<svg width="30" height="30" viewBox="0 0 30 30" fill="none" xmlns="http://www.w3.org/2000/svg">
<rect width="30" height="30" rx="15" fill="white"/>
<path d="M18.8673 18.909C18.5641 18.909 18.3183 18.6631 18.3183 18.3598V11.6749H11.6424C11.3392 11.6749 11.0934 11.429 11.0934 11.1257C11.0934 10.8224 11.3392 10.5766 11.6424 10.5766H18.8746C19.0192 10.5739 19.1589 10.6293 19.2625 10.7303C19.3673 10.835 19.4254 10.9776 19.4236 11.1257V18.3598C19.4256 18.5074 19.3674 18.6493 19.2624 18.753C19.1574 18.8566 19.0147 18.913 18.8673 18.909Z" fill="#141625"/>
<path d="M11.1007 19.4508C10.9561 19.4534 10.8164 19.398 10.7127 19.297C10.6077 19.1938 10.5485 19.0526 10.5485 18.9053C10.5485 18.758 10.6077 18.6168 10.7127 18.5136L18.4866 10.7377C18.6235 10.5907 18.8296 10.5303 19.0241 10.58C19.2186 10.6296 19.3705 10.7816 19.4202 10.9761C19.4699 11.1707 19.4094 11.3769 19.2625 11.5138L11.4887 19.297C11.3838 19.396 11.2449 19.4511 11.1007 19.4508Z" fill="#141625"/>
<path d="M18.8673 19.4581C18.2608 19.4581 17.7693 18.9664 17.7693 18.3598V12.224H11.6424C11.036 12.224 10.5444 11.7323 10.5444 11.1257C10.5444 10.5191 11.036 10.0274 11.6424 10.0274H18.8819C19.1749 10.0214 19.4577 10.1352 19.665 10.3424C19.8722 10.5497 19.9859 10.8326 19.9799 11.1257V18.3598C19.9799 18.6537 19.8622 18.9352 19.6531 19.1416C19.4441 19.348 19.161 19.462 18.8673 19.4581Z" fill="#141625"/>
<path d="M11.1007 19.9999C10.8103 20.0032 10.5308 19.8898 10.3248 19.6851C10.1169 19.4789 10 19.1981 10 18.9053C10 18.6124 10.1169 18.3317 10.3248 18.1255L18.0987 10.3496C18.3724 10.0558 18.7846 9.9348 19.1737 10.0342C19.5627 10.1336 19.8665 10.4374 19.9658 10.8266C20.0652 11.2157 19.9443 11.628 19.6505 11.9018L11.8766 19.6851C11.6688 19.8871 11.3905 20 11.1007 19.9999Z" fill="#141625"/>
</svg>
