<svg width="44" height="44" viewBox="0 0 44 44" fill="none" xmlns="http://www.w3.org/2000/svg">
<rect x="1" y="1" width="42" height="42" rx="21" fill="#141625" stroke="url(#paint0_linear_7055_889)" stroke-width="2"/>
<path d="M24.6675 25.7949H19.8759" stroke="white" stroke-width="1.5" stroke-miterlimit="10" stroke-linecap="round" stroke-linejoin="round"/>
<path d="M22.2716 23.4561V28.2477" stroke="white" stroke-width="1.5" stroke-miterlimit="10" stroke-linecap="round" stroke-linejoin="round"/>
<path d="M23.1325 13.4135L23.1037 13.4806L20.3245 19.9302H17.5933C16.9416 19.9302 16.3187 20.0644 15.7533 20.304L17.4304 16.2981L17.4687 16.2023L17.5358 16.049C17.555 15.9915 17.5741 15.934 17.6029 15.886C18.8583 12.9823 20.2766 12.321 23.1325 13.4135Z" stroke="white" stroke-width="1.5" stroke-linecap="round" stroke-linejoin="round"/>
<path d="M28.2979 20.1214C27.8667 19.9873 27.4067 19.9298 26.9467 19.9298H20.3246L23.1038 13.4802L23.1325 13.4131C23.2763 13.461 23.4104 13.5281 23.5542 13.5856L25.6721 14.4768C26.8508 14.9656 27.675 15.4735 28.1733 16.0868C28.2692 16.2018 28.3458 16.3073 28.4129 16.4318C28.4992 16.566 28.5663 16.7002 28.6046 16.8439C28.6429 16.9302 28.6717 17.0164 28.6908 17.0931C28.9496 17.8981 28.7963 18.8852 28.2979 20.1214Z" stroke="white" stroke-width="1.5" stroke-linecap="round" stroke-linejoin="round"/>
<path d="M31.6249 24.6064V26.4751C31.6249 26.6668 31.6154 26.8584 31.6058 27.0501C31.4237 30.3947 29.5549 32.0814 26.0091 32.0814H18.5341C18.3041 32.0814 18.0741 32.0622 17.8537 32.0334C14.8062 31.8322 13.177 30.203 12.9758 27.1555C12.947 26.9351 12.9279 26.7051 12.9279 26.4751V24.6064C12.9279 22.6801 14.097 21.0222 15.7645 20.3034C16.3395 20.0639 16.9529 19.9297 17.6045 19.9297H26.9579C27.4274 19.9297 27.8874 19.9968 28.3091 20.1214C30.2162 20.7059 31.6249 22.4884 31.6249 24.6064Z" stroke="white" stroke-width="1.5" stroke-linecap="round" stroke-linejoin="round"/>
<path d="M17.4304 16.2979L15.7533 20.3037C14.0858 21.0224 12.9166 22.6804 12.9166 24.6066V21.7987C12.9166 19.077 14.8525 16.8058 17.4304 16.2979Z" stroke="white" stroke-width="1.5" stroke-linecap="round" stroke-linejoin="round"/>
<path d="M31.622 21.7983V24.6063C31.622 22.4979 30.2228 20.7058 28.3062 20.1308C28.8045 18.885 28.9482 17.9075 28.7087 17.0929C28.6895 17.0067 28.6607 16.9204 28.6224 16.8438C30.4049 17.7637 31.622 19.6517 31.622 21.7983Z" stroke="white" stroke-width="1.5" stroke-linecap="round" stroke-linejoin="round"/>
<defs>
<linearGradient id="paint0_linear_7055_889" x1="22" y1="13.8462" x2="22" y2="72.9231" gradientUnits="userSpaceOnUse">
<stop stop-color="white"/>
<stop offset="1" stop-color="#13001E" stop-opacity="0"/>
</linearGradient>
</defs>
</svg>
