<svg width="44" height="44" viewBox="0 0 44 44" fill="none" xmlns="http://www.w3.org/2000/svg">
<rect x="1" y="1" width="42" height="42" rx="21" fill="#141625" stroke="url(#paint0_linear_7055_881)" stroke-width="2"/>
<path d="M29.7183 22.3389C30.5158 22.6597 31.0108 23.6039 30.8275 24.4381L30.4517 26.143C29.8008 29.0764 27.5 31.1664 24.1817 31.1664H19.8183C16.5 31.1664 14.1992 29.0764 13.5483 26.143L13.1725 24.4381C12.9892 23.6039 13.4841 22.6597 14.2816 22.3389L15.5833 21.8164L20.6342 19.7905C21.5142 19.4422 22.4858 19.4422 23.3658 19.7905L28.4167 21.8164L29.7183 22.3389Z" stroke="white" stroke-width="1.5" stroke-linecap="round" stroke-linejoin="round"/>
<path d="M22 31.167V20.167" stroke="white" stroke-width="1.5" stroke-linecap="round" stroke-linejoin="round"/>
<path d="M28.4167 18.333V21.8163L23.3658 19.7905C22.4858 19.4422 21.5142 19.4422 20.6342 19.7905L15.5833 21.8163V18.333C15.5833 16.8205 16.8208 15.583 18.3333 15.583H25.6667C27.1792 15.583 28.4167 16.8205 28.4167 18.333Z" stroke="white" stroke-width="1.5" stroke-linecap="round" stroke-linejoin="round"/>
<path d="M24.2917 15.583H19.7083V13.7497C19.7083 13.2455 20.1208 12.833 20.625 12.833H23.375C23.8792 12.833 24.2917 13.2455 24.2917 13.7497V15.583Z" stroke="white" stroke-width="1.5" stroke-linecap="round" stroke-linejoin="round"/>
<defs>
<linearGradient id="paint0_linear_7055_881" x1="22" y1="13.8462" x2="22" y2="72.9231" gradientUnits="userSpaceOnUse">
<stop stop-color="white"/>
<stop offset="1" stop-color="#13001E" stop-opacity="0"/>
</linearGradient>
</defs>
</svg>
