<svg width="44" height="44" viewBox="0 0 44 44" fill="none" xmlns="http://www.w3.org/2000/svg">
<rect x="1" y="1" width="42" height="42" rx="21" fill="#141625" stroke="url(#paint0_linear_7055_883)" stroke-width="2"/>
<path d="M27.5366 23.4211C27.1516 23.797 26.9316 24.3378 26.9866 24.9153C27.0691 25.9053 27.9766 26.6295 28.9666 26.6295H30.7083V27.7203C30.7083 29.6178 29.1591 31.167 27.2616 31.167H17.9941C18.2783 30.9287 18.5258 30.6353 18.7183 30.3053C19.0575 29.7553 19.25 29.1045 19.25 28.417C19.25 26.3912 17.6091 24.7503 15.5833 24.7503C14.7216 24.7503 13.9241 25.0528 13.2916 25.557V21.5512C13.2916 19.6537 14.8408 18.1045 16.7383 18.1045H27.2616C29.1591 18.1045 30.7083 19.6537 30.7083 21.5512V22.8712H28.8566C28.3433 22.8712 27.8758 23.0728 27.5366 23.4211Z" stroke="white" stroke-width="1.5" stroke-linecap="round" stroke-linejoin="round"/>
<path d="M13.2916 22.3757V18.1866C13.2916 17.0957 13.9608 16.124 14.9783 15.739L22.2566 12.989C23.3933 12.5582 24.6125 13.4016 24.6125 14.6207V18.1041" stroke="white" stroke-width="1.5" stroke-linecap="round" stroke-linejoin="round"/>
<path d="M31.6789 23.8061V25.6944C31.6789 26.1986 31.2755 26.6111 30.7622 26.6294H28.9655C27.9755 26.6294 27.068 25.9052 26.9855 24.9152C26.9305 24.3377 27.1505 23.7969 27.5355 23.4211C27.8747 23.0727 28.3422 22.8711 28.8555 22.8711H30.7622C31.2755 22.8894 31.6789 23.3019 31.6789 23.8061Z" stroke="white" stroke-width="1.5" stroke-linecap="round" stroke-linejoin="round"/>
<path d="M17.4166 22H23.8333" stroke="white" stroke-width="1.5" stroke-linecap="round" stroke-linejoin="round"/>
<path d="M19.25 28.4167C19.25 29.1042 19.0575 29.755 18.7183 30.305C18.5258 30.635 18.2783 30.9283 17.9941 31.1667C17.3525 31.7442 16.5091 32.0833 15.5833 32.0833C14.245 32.0833 13.0808 31.3683 12.4483 30.305C12.1091 29.755 11.9166 29.1042 11.9166 28.4167C11.9166 27.2617 12.4483 26.2258 13.2916 25.5567C13.9241 25.0525 14.7216 24.75 15.5833 24.75C17.6091 24.75 19.25 26.3908 19.25 28.4167Z" stroke="white" stroke-width="1.5" stroke-miterlimit="10" stroke-linecap="round" stroke-linejoin="round"/>
<path d="M14.1545 28.4159L15.062 29.3234L17.0145 27.5176" stroke="white" stroke-width="1.5" stroke-linecap="round" stroke-linejoin="round"/>
<defs>
<linearGradient id="paint0_linear_7055_883" x1="22" y1="13.8462" x2="22" y2="72.9231" gradientUnits="userSpaceOnUse">
<stop stop-color="white"/>
<stop offset="1" stop-color="#13001E" stop-opacity="0"/>
</linearGradient>
</defs>
</svg>
