<svg width="44" height="44" viewBox="0 0 44 44" fill="none" xmlns="http://www.w3.org/2000/svg">
<rect x="1" y="1" width="42" height="42" rx="21" fill="#141625" stroke="url(#paint0_linear_7055_886)" stroke-width="2"/>
<path d="M31.1667 22.9163V19.2497C31.1667 14.6663 29.3333 12.833 24.75 12.833H19.25C14.6667 12.833 12.8333 14.6663 12.8333 19.2497V24.7497C12.8333 29.333 14.6667 31.1663 19.25 31.1663H22.9167" stroke="white" stroke-width="1.5" stroke-linecap="round" stroke-linejoin="round"/>
<path d="M17.7191 24.2828L19.9008 21.4503C20.2125 21.0469 20.79 20.9736 21.1933 21.2853L22.8708 22.6053C23.2742 22.9169 23.8516 22.8436 24.1633 22.4495L26.2808 19.7178" stroke="white" stroke-width="1.5" stroke-linecap="round" stroke-linejoin="round"/>
<path d="M28.8567 25.5013L29.1133 26.0238C29.2417 26.2805 29.5625 26.5188 29.8467 26.5738L30.195 26.6288C31.24 26.803 31.4875 27.573 30.7358 28.3338L30.415 28.6546C30.2042 28.8746 30.085 29.2963 30.1492 29.5897L30.195 29.7822C30.4792 31.0472 29.81 31.533 28.71 30.873L28.4717 30.7355C28.1875 30.5705 27.7292 30.5705 27.445 30.7355L27.2067 30.873C26.0975 31.5421 25.4283 31.0472 25.7217 29.7822L25.7675 29.5897C25.8317 29.2963 25.7125 28.8746 25.5017 28.6546L25.1808 28.3338C24.4292 27.573 24.6767 26.803 25.7217 26.6288L26.07 26.5738C26.345 26.528 26.675 26.2805 26.8033 26.0238L27.06 25.5013C27.555 24.5022 28.3617 24.5022 28.8567 25.5013Z" stroke="white" stroke-width="1.5" stroke-linecap="round" stroke-linejoin="round"/>
<defs>
<linearGradient id="paint0_linear_7055_886" x1="22" y1="13.8462" x2="22" y2="72.9231" gradientUnits="userSpaceOnUse">
<stop stop-color="white"/>
<stop offset="1" stop-color="#13001E" stop-opacity="0"/>
</linearGradient>
</defs>
</svg>
