<svg width="21" height="22" viewBox="0 0 21 22" fill="none" xmlns="http://www.w3.org/2000/svg">
<rect width="21" height="22" rx="10.5" fill="white"/>
<path d="M13.2071 13.2363C12.9948 13.2363 12.8228 13.0642 12.8228 12.8519V8.17241H8.14967C7.93743 8.17241 7.76537 8.0003 7.76537 7.788C7.76537 7.5757 7.93743 7.4036 8.14967 7.4036H13.2122C13.3135 7.40176 13.4113 7.44052 13.4838 7.51123C13.5571 7.5845 13.5978 7.68431 13.5965 7.788V12.8519C13.5979 12.9551 13.5572 13.0545 13.4837 13.1271C13.4102 13.1996 13.3103 13.2391 13.2071 13.2363Z" fill="black"/>
<path d="M7.7705 13.6155C7.66924 13.6174 7.57145 13.5786 7.49892 13.5079C7.42538 13.4356 7.38395 13.3368 7.38395 13.2337C7.38395 13.1306 7.42538 13.0318 7.49892 12.9595L12.9406 7.51636C13.0364 7.41352 13.1807 7.37118 13.3169 7.40597C13.453 7.44075 13.5594 7.5471 13.5941 7.6833C13.6289 7.8195 13.5866 7.96382 13.4838 8.05965L8.04207 13.5079C7.96865 13.5772 7.87145 13.6157 7.7705 13.6155Z" fill="black"/>
<path d="M13.2071 13.6207C12.7826 13.6207 12.4385 13.2765 12.4385 12.8519V8.55681H8.14967C7.72519 8.55681 7.38107 8.2126 7.38107 7.788C7.38107 7.3634 7.72519 7.0192 8.14967 7.0192H13.2173C13.4224 7.01497 13.6204 7.09461 13.7655 7.23971C13.9105 7.38482 13.9902 7.58284 13.9859 7.788V12.8519C13.9859 13.0576 13.9036 13.2547 13.7572 13.3992C13.6108 13.5436 13.4127 13.6234 13.2071 13.6207Z" fill="black"/>
<path d="M7.7705 14C7.56724 14.0023 7.37155 13.9229 7.22735 13.7796C7.08185 13.6352 7 13.4387 7 13.2337C7 13.0287 7.08185 12.8322 7.22735 12.6879L12.6691 7.24471C12.8607 7.03903 13.1492 6.95436 13.4216 7.02393C13.6939 7.09349 13.9065 7.3062 13.9761 7.57859C14.0456 7.85099 13.961 8.13963 13.7554 8.33129L8.31364 13.7796C8.16819 13.921 7.97333 14 7.7705 14Z" fill="black"/>
</svg>
