<svg width="30" height="30" viewBox="0 0 30 30" fill="none" xmlns="http://www.w3.org/2000/svg">
<path d="M14.9994 25.3375C14.7509 25.3373 14.5126 25.2384 14.3369 25.0625L5.58695 16.3125C5.35249 16.0713 5.2645 15.7234 5.35612 15.3998C5.44774 15.0762 5.70505 14.826 6.03112 14.7436C6.35719 14.6611 6.70249 14.7588 6.93695 15L14.9994 23.0625L23.0619 15C23.2957 14.7492 23.6476 14.6459 23.9798 14.7308C24.312 14.8156 24.5714 15.075 24.6562 15.4071C24.741 15.7393 24.6378 16.0913 24.3869 16.325L15.6369 25.075C15.4655 25.2403 15.2376 25.3341 14.9994 25.3375Z" fill="white"/>
<path d="M14.9994 25.325C14.4845 25.3183 14.0687 24.9025 14.0619 24.3875V5.6375C14.0619 5.30256 14.2406 4.99307 14.5307 4.8256C14.8208 4.65813 15.1781 4.65813 15.4682 4.8256C15.7583 4.99307 15.9369 5.30256 15.9369 5.6375V24.3875C15.9302 24.9025 15.5144 25.3183 14.9994 25.325Z" fill="white"/>
<path d="M14.9994 26.25C14.5023 26.2496 14.0257 26.0517 13.6744 25.7L4.92445 16.95C4.19267 16.2148 4.19547 15.0255 4.9307 14.2938C5.66593 13.562 6.85517 13.5648 7.58695 14.3L14.9994 21.7375L22.3994 14.325C23.1312 13.5898 24.3205 13.587 25.0557 14.3187C25.7909 15.0505 25.7937 16.2398 25.0619 16.975L16.3119 25.725C15.9597 26.0645 15.4887 26.2529 14.9994 26.25Z" fill="white"/>
<path d="M14.9994 26.25C13.9639 26.25 13.1244 25.4105 13.1244 24.375V5.625C13.1244 4.58947 13.9639 3.75 14.9994 3.75C16.035 3.75 16.8744 4.58947 16.8744 5.625V24.375C16.8744 25.4105 16.035 26.25 14.9994 26.25Z" fill="white"/>
</svg>
