<svg width="120" height="116" viewBox="0 0 120 116" fill="none" xmlns="http://www.w3.org/2000/svg">
<path d="M54.5719 79.5654H6.57589C4.83621 79.5551 3.17064 78.8638 1.93985 77.6413C0.709072 76.4187 0.0121469 74.7634 0 73.0337V42.9861C0.010414 41.2552 0.706544 39.5982 1.93751 38.3742C3.16848 37.1503 4.83507 36.4581 6.57589 36.4478H54.5719C56.3116 36.4599 57.9765 37.1527 59.206 38.3765C60.4355 39.6002 61.1308 41.2563 61.1412 42.9861V73.0665C61.1204 74.7894 60.4206 76.4354 59.1922 77.6507C57.9637 78.8659 56.3048 79.5535 54.5719 79.5654ZM6.57589 40.4405C5.90504 40.4405 5.26155 40.705 4.78656 41.1761C4.31158 41.6471 4.04386 42.2862 4.04211 42.9532V73.0337C4.04386 73.7007 4.31158 74.3397 4.78656 74.8108C5.26155 75.2818 5.90504 75.5464 6.57589 75.5463H54.5719C55.2416 75.5446 55.8834 75.2793 56.3569 74.8084C56.8305 74.3376 57.0973 73.6995 57.0991 73.0337V42.9861C57.0973 42.3202 56.8305 41.6821 56.3569 41.2112C55.8834 40.7404 55.2416 40.4751 54.5719 40.4734L6.57589 40.4405Z" fill="white"/>
<path d="M90.1439 24.8313H68.5771C66.9804 24.8278 65.4501 24.1952 64.3217 23.0719C63.1933 21.9487 62.5587 20.4265 62.5569 18.8389V5.99239C62.5587 4.40478 63.1933 2.88259 64.3217 1.75936C65.4501 0.636132 66.9804 0.00348066 68.5771 0H90.1439C91.7418 0.0017411 93.2737 0.633616 94.4035 1.75703C95.5334 2.88045 96.1689 4.40364 96.1707 5.99239V18.8389C96.1689 20.4277 95.5334 21.9508 94.4035 23.0742C93.2737 24.1976 91.7418 24.8296 90.1439 24.8313ZM68.5771 4.02563C68.0507 4.02563 67.5459 4.23352 67.1737 4.6036C66.8015 4.97367 66.5924 5.47561 66.5924 5.99898V18.8455C66.5924 19.3689 66.8015 19.8707 67.1737 20.2408C67.5459 20.6109 68.0507 20.8188 68.5771 20.8188H90.1439C90.6703 20.8188 91.175 20.6109 91.5472 20.2408C91.9194 19.8707 92.1286 19.3689 92.1286 18.8455V5.99898C92.1286 5.47561 91.9194 4.97367 91.5472 4.6036C91.175 4.23352 90.6703 4.02563 90.1439 4.02563H68.5771Z" fill="white"/>
<path d="M90.1439 116H68.5771C66.9804 115.997 65.4501 115.364 64.3217 114.241C63.1933 113.117 62.5587 111.595 62.5569 110.008V97.1611C62.5587 95.5735 63.1933 94.0513 64.3217 92.9281C65.4501 91.8048 66.9804 91.1722 68.5771 91.1687H90.1439C91.7418 91.1704 93.2737 91.8023 94.4035 92.9257C95.5334 94.0491 96.1689 95.5723 96.1707 97.1611V110.008C96.1689 111.596 95.5334 113.12 94.4035 114.243C93.2737 115.366 91.7418 115.998 90.1439 116ZM68.5771 95.1943C68.0507 95.1943 67.5459 95.4022 67.1737 95.7723C66.8015 96.1424 66.5924 96.6443 66.5924 97.1677V110.014C66.5924 110.538 66.8015 111.039 67.1737 111.41C67.5459 111.78 68.0507 111.988 68.5771 111.988H90.1439C90.6703 111.988 91.175 111.78 91.5472 111.41C91.9194 111.039 92.1286 110.538 92.1286 110.014V97.1677C92.1286 96.6443 91.9194 96.1424 91.5472 95.7723C91.175 95.4022 90.6703 95.1943 90.1439 95.1943H68.5771Z" fill="white"/>
<path d="M113.973 70.409H92.4064C90.8097 70.4055 89.2794 69.7729 88.151 68.6497C87.0226 67.5264 86.3879 66.0042 86.3862 64.4166V51.5702C86.3879 49.9826 87.0226 48.4604 88.151 47.3372C89.2794 46.2139 90.8097 45.5812 92.4064 45.5777H113.973C115.571 45.5795 117.103 46.2114 118.233 47.3348C119.363 48.4583 119.998 49.9814 120 51.5702V64.4166C119.998 66.0054 119.363 67.5286 118.233 68.652C117.103 69.7754 115.571 70.4073 113.973 70.409ZM92.4064 49.5968C91.88 49.5968 91.3752 49.8047 91.003 50.1748C90.6308 50.5449 90.4217 51.0468 90.4217 51.5702V64.4166C90.4217 64.94 90.6308 65.4419 91.003 65.812C91.3752 66.1821 91.88 66.39 92.4064 66.39H113.973C114.5 66.39 115.004 66.1821 115.377 65.812C115.749 65.4419 115.958 64.94 115.958 64.4166V51.5702C115.958 51.0468 115.749 50.5449 115.377 50.1748C115.004 49.8047 114.5 49.5968 113.973 49.5968H92.4064Z" fill="white"/>
<path d="M88.404 60.0029H59.1168C58.6008 59.9736 58.1156 59.7491 57.7607 59.3754C57.4058 59.0018 57.2081 58.5073 57.2081 57.9934C57.2081 57.4795 57.4058 56.985 57.7607 56.6114C58.1156 56.2378 58.6008 56.0133 59.1168 55.9839H88.404C88.6791 55.9682 88.9546 56.0086 89.2134 56.1025C89.4723 56.1964 89.7093 56.3419 89.9096 56.5301C90.11 56.7182 90.2696 56.945 90.3786 57.1967C90.4877 57.4483 90.544 57.7194 90.544 57.9934C90.544 58.2674 90.4877 58.5385 90.3786 58.7901C90.2696 59.0418 90.11 59.2686 89.9096 59.4568C89.7093 59.6449 89.4723 59.7904 89.2134 59.8843C88.9546 59.9782 88.6791 60.0186 88.404 60.0029Z" fill="white"/>
<path d="M66.341 49.5968H59.1168C58.6008 49.5675 58.1156 49.343 57.7607 48.9693C57.4058 48.5957 57.2081 48.1012 57.2081 47.5873C57.2081 47.0734 57.4058 46.5789 57.7607 46.2053C58.1156 45.8317 58.6008 45.6071 59.1168 45.5777H66.341C69.2578 45.5742 72.0541 44.4207 74.1165 42.37C76.179 40.3193 77.3392 37.539 77.3427 34.6389V22.7988C77.3723 22.2857 77.5981 21.8032 77.9738 21.4504C78.3496 21.0975 78.8469 20.9009 79.3638 20.9009C79.8806 20.9009 80.3779 21.0975 80.7537 21.4504C81.1295 21.8032 81.3553 22.2857 81.3848 22.7988V34.6389C81.3813 38.6049 79.7953 42.4075 76.9747 45.2119C74.1542 48.0163 70.3298 49.5934 66.341 49.5968Z" fill="white"/>
<path d="M79.3605 95.1746C78.8247 95.1728 78.3115 94.96 77.9333 94.5827C77.5551 94.2054 77.3427 93.6945 77.3427 93.1618V81.3217C77.3392 78.4222 76.1788 75.6425 74.1161 73.5928C72.0535 71.5432 69.2572 70.3911 66.341 70.3894H59.1168C58.5799 70.3894 58.065 70.1773 57.6854 69.7998C57.3057 69.4223 57.0924 68.9103 57.0924 68.3765C57.0924 67.8427 57.3057 67.3307 57.6854 66.9533C58.065 66.5758 58.5799 66.3637 59.1168 66.3637H66.341C70.3298 66.3672 74.1542 67.9443 76.9747 70.7487C79.7953 73.5531 81.3813 77.3557 81.3848 81.3217V93.1618C81.3848 93.6956 81.1716 94.2076 80.7919 94.585C80.4123 94.9625 79.8974 95.1746 79.3605 95.1746Z" fill="white"/>
</svg>
