<svg width="431" height="333" viewBox="0 0 431 333" fill="none" xmlns="http://www.w3.org/2000/svg">
<g opacity="0.3">
<path d="M320.545 127.975V249.605L215.209 310.422L109.873 249.605V127.975L215.209 67.1582L320.545 127.975Z" stroke="white"/>
<path d="M299.377 140.195V237.385L215.208 285.98L131.04 237.385V140.195L215.208 91.5996L299.377 140.195Z" stroke="white"/>
<path d="M278.212 152.418V225.165L215.21 261.54L152.209 225.165V152.418L215.21 116.043L278.212 152.418Z" stroke="white"/>
<path d="M257.042 164.639V212.944L215.207 237.098L173.373 212.944V164.639L215.207 140.484L257.042 164.639Z" stroke="white"/>
<path d="M235.877 176.861V200.725L215.209 212.657L194.542 200.725V176.861L215.209 164.928L235.877 176.861Z" stroke="white"/>
<line x1="111.082" y1="249.464" x2="319.974" y2="128.551" stroke="white"/>
<line x1="215.709" y1="68.1094" x2="215.709" y2="309.472" stroke="white"/>
<line x1="111.582" y1="128.782" x2="320.608" y2="249.463" stroke="white"/>
</g>
<path d="M138.064 233.857L131.189 139.909L215.972 91.7891L306.865 136.09L299.227 236.912L215.208 285.796L138.064 233.857Z" fill="#070ACF" fill-opacity="0.2" stroke="#070ACF"/>
<path d="M159.45 221.636L152.576 152.129L215.972 116.23L287.77 146.783L278.604 224.691L215.972 273.574L159.45 221.636Z" fill="#CF0E07" fill-opacity="0.2" stroke="#CF0E07"/>
<path d="M222.751 67.1818V73H222.046V67.9205H222.012L220.592 68.8636V68.1477L222.046 67.1818H222.751ZM226.234 73.0795C225.806 73.0795 225.441 72.9631 225.14 72.7301C224.839 72.4953 224.609 72.1553 224.45 71.7102C224.29 71.2633 224.211 70.7235 224.211 70.0909C224.211 69.4621 224.29 68.9252 224.45 68.4801C224.611 68.0331 224.842 67.6922 225.143 67.4574C225.446 67.2206 225.809 67.1023 226.234 67.1023C226.658 67.1023 227.021 67.2206 227.322 67.4574C227.625 67.6922 227.856 68.0331 228.015 68.4801C228.176 68.9252 228.256 69.4621 228.256 70.0909C228.256 70.7235 228.177 71.2633 228.018 71.7102C227.859 72.1553 227.629 72.4953 227.327 72.7301C227.026 72.9631 226.662 73.0795 226.234 73.0795ZM226.234 72.4545C226.658 72.4545 226.987 72.25 227.222 71.8409C227.457 71.4318 227.575 70.8485 227.575 70.0909C227.575 69.5871 227.521 69.1581 227.413 68.804C227.307 68.4498 227.153 68.1799 226.952 67.9943C226.754 67.8087 226.514 67.7159 226.234 67.7159C225.813 67.7159 225.485 67.9233 225.248 68.3381C225.011 68.7509 224.893 69.3352 224.893 70.0909C224.893 70.5947 224.946 71.0227 225.052 71.375C225.158 71.7273 225.31 71.9953 225.509 72.179C225.71 72.3627 225.951 72.4545 226.234 72.4545ZM231.146 73.0795C230.718 73.0795 230.353 72.9631 230.052 72.7301C229.751 72.4953 229.521 72.1553 229.362 71.7102C229.202 71.2633 229.123 70.7235 229.123 70.0909C229.123 69.4621 229.202 68.9252 229.362 68.4801C229.523 68.0331 229.754 67.6922 230.055 67.4574C230.358 67.2206 230.721 67.1023 231.146 67.1023C231.57 67.1023 231.933 67.2206 232.234 67.4574C232.537 67.6922 232.768 68.0331 232.927 68.4801C233.088 68.9252 233.168 69.4621 233.168 70.0909C233.168 70.7235 233.089 71.2633 232.93 71.7102C232.771 72.1553 232.541 72.4953 232.239 72.7301C231.938 72.9631 231.574 73.0795 231.146 73.0795ZM231.146 72.4545C231.57 72.4545 231.899 72.25 232.134 71.8409C232.369 71.4318 232.487 70.8485 232.487 70.0909C232.487 69.5871 232.433 69.1581 232.325 68.804C232.219 68.4498 232.065 68.1799 231.864 67.9943C231.666 67.8087 231.426 67.7159 231.146 67.7159C230.725 67.7159 230.397 67.9233 230.16 68.3381C229.923 68.7509 229.805 69.3352 229.805 70.0909C229.805 70.5947 229.858 71.0227 229.964 71.375C230.07 71.7273 230.222 71.9953 230.421 72.179C230.622 72.3627 230.863 72.4545 231.146 72.4545ZM224.419 97.0795C224.029 97.0795 223.684 97.0104 223.385 96.8722C223.088 96.732 222.856 96.5398 222.689 96.2955C222.523 96.0492 222.44 95.7689 222.442 95.4545C222.44 95.2083 222.488 94.9811 222.587 94.7727C222.685 94.5625 222.82 94.3873 222.99 94.2472C223.163 94.1051 223.355 94.0152 223.567 93.9773V93.9432C223.289 93.8712 223.067 93.715 222.902 93.4744C222.737 93.232 222.656 92.9564 222.658 92.6477C222.656 92.3523 222.731 92.0881 222.882 91.8551C223.034 91.6222 223.242 91.4384 223.507 91.304C223.774 91.1695 224.078 91.1023 224.419 91.1023C224.756 91.1023 225.058 91.1695 225.323 91.304C225.588 91.4384 225.796 91.6222 225.948 91.8551C226.101 92.0881 226.179 92.3523 226.181 92.6477C226.179 92.9564 226.095 93.232 225.928 93.4744C225.763 93.715 225.544 93.8712 225.272 93.9432V93.9773C225.482 94.0152 225.671 94.1051 225.84 94.2472C226.008 94.3873 226.143 94.5625 226.243 94.7727C226.344 94.9811 226.395 95.2083 226.397 95.4545C226.395 95.7689 226.309 96.0492 226.141 96.2955C225.974 96.5398 225.742 96.732 225.445 96.8722C225.149 97.0104 224.808 97.0795 224.419 97.0795ZM224.419 96.4545C224.683 96.4545 224.91 96.4119 225.101 96.3267C225.292 96.2415 225.44 96.1212 225.544 95.9659C225.648 95.8106 225.702 95.6288 225.703 95.4205C225.702 95.2008 225.645 95.0066 225.533 94.8381C225.421 94.6695 225.269 94.5369 225.076 94.4403C224.884 94.3437 224.666 94.2955 224.419 94.2955C224.171 94.2955 223.95 94.3437 223.755 94.4403C223.561 94.5369 223.409 94.6695 223.297 94.8381C223.187 95.0066 223.133 95.2008 223.135 95.4205C223.133 95.6288 223.184 95.8106 223.286 95.9659C223.39 96.1212 223.539 96.2415 223.732 96.3267C223.925 96.4119 224.154 96.4545 224.419 96.4545ZM224.419 93.6932C224.628 93.6932 224.812 93.6515 224.973 93.5682C225.136 93.4848 225.264 93.3684 225.357 93.2188C225.45 93.0691 225.497 92.8939 225.499 92.6932C225.497 92.4962 225.451 92.3248 225.36 92.179C225.269 92.0312 225.143 91.9176 224.982 91.8381C224.821 91.7566 224.633 91.7159 224.419 91.7159C224.202 91.7159 224.011 91.7566 223.848 91.8381C223.685 91.9176 223.559 92.0312 223.47 92.179C223.381 92.3248 223.338 92.4962 223.34 92.6932C223.338 92.8939 223.382 93.0691 223.473 93.2188C223.566 93.3684 223.694 93.4848 223.857 93.5682C224.02 93.6515 224.207 93.6932 224.419 93.6932ZM229.295 97.0795C228.867 97.0795 228.502 96.9631 228.201 96.7301C227.9 96.4953 227.67 96.1553 227.511 95.7102C227.352 95.2633 227.272 94.7235 227.272 94.0909C227.272 93.4621 227.352 92.9252 227.511 92.4801C227.672 92.0331 227.903 91.6922 228.204 91.4574C228.507 91.2206 228.871 91.1023 229.295 91.1023C229.719 91.1023 230.082 91.2206 230.383 91.4574C230.686 91.6922 230.917 92.0331 231.076 92.4801C231.237 92.9252 231.318 93.4621 231.318 94.0909C231.318 94.7235 231.238 95.2633 231.079 95.7102C230.92 96.1553 230.69 96.4953 230.389 96.7301C230.088 96.9631 229.723 97.0795 229.295 97.0795ZM229.295 96.4545C229.719 96.4545 230.049 96.25 230.284 95.8409C230.519 95.4318 230.636 94.8485 230.636 94.0909C230.636 93.5871 230.582 93.1581 230.474 92.804C230.368 92.4498 230.215 92.1799 230.014 91.9943C229.815 91.8087 229.575 91.7159 229.295 91.7159C228.875 91.7159 228.546 91.9233 228.309 92.3381C228.073 92.7509 227.954 93.3352 227.954 94.0909C227.954 94.5947 228.007 95.0227 228.113 95.375C228.219 95.7273 228.372 95.9953 228.571 96.179C228.771 96.3627 229.013 96.4545 229.295 96.4545ZM224.456 121.08C224.218 121.076 223.979 121.03 223.74 120.943C223.502 120.856 223.284 120.709 223.087 120.503C222.89 120.295 222.732 120.013 222.612 119.659C222.493 119.303 222.434 118.856 222.434 118.318C222.434 117.803 222.482 117.347 222.578 116.949C222.675 116.549 222.815 116.213 222.999 115.94C223.183 115.666 223.404 115.457 223.664 115.315C223.925 115.173 224.22 115.102 224.547 115.102C224.873 115.102 225.163 115.168 225.416 115.298C225.672 115.427 225.88 115.607 226.041 115.838C226.202 116.069 226.307 116.335 226.354 116.636H225.661C225.596 116.375 225.471 116.158 225.286 115.986C225.1 115.813 224.854 115.727 224.547 115.727C224.096 115.727 223.741 115.923 223.482 116.315C223.224 116.707 223.095 117.258 223.093 117.966H223.138C223.244 117.805 223.37 117.668 223.516 117.554C223.664 117.438 223.827 117.349 224.005 117.287C224.183 117.224 224.371 117.193 224.57 117.193C224.903 117.193 225.208 117.277 225.485 117.443C225.761 117.608 225.983 117.836 226.149 118.128C226.316 118.418 226.399 118.75 226.399 119.125C226.399 119.485 226.319 119.814 226.158 120.114C225.997 120.411 225.771 120.648 225.479 120.824C225.189 120.998 224.848 121.083 224.456 121.08ZM224.456 120.455C224.695 120.455 224.909 120.395 225.098 120.276C225.29 120.156 225.44 119.996 225.55 119.795C225.662 119.595 225.718 119.371 225.718 119.125C225.718 118.884 225.664 118.666 225.556 118.469C225.45 118.27 225.303 118.112 225.115 117.994C224.93 117.877 224.718 117.818 224.479 117.818C224.299 117.818 224.131 117.854 223.976 117.926C223.821 117.996 223.684 118.093 223.567 118.216C223.452 118.339 223.361 118.48 223.294 118.639C223.228 118.796 223.195 118.962 223.195 119.136C223.195 119.367 223.249 119.583 223.357 119.784C223.467 119.985 223.616 120.147 223.806 120.27C223.997 120.393 224.214 120.455 224.456 120.455ZM229.326 121.08C228.898 121.08 228.534 120.963 228.233 120.73C227.931 120.495 227.701 120.155 227.542 119.71C227.383 119.263 227.304 118.723 227.304 118.091C227.304 117.462 227.383 116.925 227.542 116.48C227.703 116.033 227.934 115.692 228.235 115.457C228.538 115.221 228.902 115.102 229.326 115.102C229.751 115.102 230.113 115.221 230.414 115.457C230.717 115.692 230.949 116.033 231.108 116.48C231.269 116.925 231.349 117.462 231.349 118.091C231.349 118.723 231.27 119.263 231.11 119.71C230.951 120.155 230.721 120.495 230.42 120.73C230.119 120.963 229.754 121.08 229.326 121.08ZM229.326 120.455C229.751 120.455 230.08 120.25 230.315 119.841C230.55 119.432 230.667 118.848 230.667 118.091C230.667 117.587 230.613 117.158 230.505 116.804C230.399 116.45 230.246 116.18 230.045 115.994C229.846 115.809 229.607 115.716 229.326 115.716C228.906 115.716 228.577 115.923 228.341 116.338C228.104 116.751 227.985 117.335 227.985 118.091C227.985 118.595 228.038 119.023 228.145 119.375C228.251 119.727 228.403 119.995 228.602 120.179C228.803 120.363 229.044 120.455 229.326 120.455ZM222.318 143.807V143.227L224.875 139.182H225.295V140.08H225.011L223.079 143.136V143.182H226.522V143.807H222.318ZM225.056 145V143.631V143.361V139.182H225.727V145H225.056ZM229.397 145.08C228.969 145.08 228.604 144.963 228.303 144.73C228.002 144.495 227.772 144.155 227.613 143.71C227.453 143.263 227.374 142.723 227.374 142.091C227.374 141.462 227.453 140.925 227.613 140.48C227.774 140.033 228.005 139.692 228.306 139.457C228.609 139.221 228.972 139.102 229.397 139.102C229.821 139.102 230.184 139.221 230.485 139.457C230.788 139.692 231.019 140.033 231.178 140.48C231.339 140.925 231.419 141.462 231.419 142.091C231.419 142.723 231.34 143.263 231.181 143.71C231.022 144.155 230.792 144.495 230.49 144.73C230.189 144.963 229.825 145.08 229.397 145.08ZM229.397 144.455C229.821 144.455 230.15 144.25 230.385 143.841C230.62 143.432 230.738 142.848 230.738 142.091C230.738 141.587 230.684 141.158 230.576 140.804C230.47 140.45 230.316 140.18 230.115 139.994C229.917 139.809 229.677 139.716 229.397 139.716C228.976 139.716 228.648 139.923 228.411 140.338C228.174 140.751 228.056 141.335 228.056 142.091C228.056 142.595 228.109 143.023 228.215 143.375C228.321 143.727 228.473 143.995 228.672 144.179C228.873 144.363 229.114 144.455 229.397 144.455ZM222.599 169V168.489L224.519 166.386C224.744 166.14 224.93 165.926 225.076 165.744C225.222 165.561 225.33 165.388 225.4 165.227C225.472 165.064 225.508 164.894 225.508 164.716C225.508 164.511 225.458 164.334 225.36 164.185C225.263 164.035 225.131 163.92 224.962 163.838C224.794 163.757 224.604 163.716 224.394 163.716C224.171 163.716 223.976 163.762 223.809 163.855C223.644 163.946 223.516 164.074 223.425 164.239C223.336 164.403 223.292 164.597 223.292 164.818H222.621C222.621 164.477 222.7 164.178 222.857 163.92C223.014 163.663 223.228 163.462 223.499 163.318C223.772 163.174 224.078 163.102 224.417 163.102C224.758 163.102 225.06 163.174 225.323 163.318C225.586 163.462 225.793 163.656 225.942 163.901C226.092 164.145 226.167 164.417 226.167 164.716C226.167 164.93 226.128 165.139 226.05 165.344C225.975 165.546 225.842 165.773 225.653 166.023C225.465 166.271 225.205 166.574 224.871 166.932L223.565 168.33V168.375H226.269V169H222.599ZM229.252 169.08C228.824 169.08 228.46 168.963 228.158 168.73C227.857 168.495 227.627 168.155 227.468 167.71C227.309 167.263 227.229 166.723 227.229 166.091C227.229 165.462 227.309 164.925 227.468 164.48C227.629 164.033 227.86 163.692 228.161 163.457C228.464 163.221 228.828 163.102 229.252 163.102C229.676 163.102 230.039 163.221 230.34 163.457C230.643 163.692 230.874 164.033 231.033 164.48C231.194 164.925 231.275 165.462 231.275 166.091C231.275 166.723 231.195 167.263 231.036 167.71C230.877 168.155 230.647 168.495 230.346 168.73C230.045 168.963 229.68 169.08 229.252 169.08ZM229.252 168.455C229.676 168.455 230.006 168.25 230.241 167.841C230.476 167.432 230.593 166.848 230.593 166.091C230.593 165.587 230.539 165.158 230.431 164.804C230.325 164.45 230.172 164.18 229.971 163.994C229.772 163.809 229.532 163.716 229.252 163.716C228.832 163.716 228.503 163.923 228.266 164.338C228.03 164.751 227.911 165.335 227.911 166.091C227.911 166.595 227.964 167.023 228.07 167.375C228.176 167.727 228.329 167.995 228.528 168.179C228.728 168.363 228.97 168.455 229.252 168.455Z" fill="white"/>
<path d="M209.161 46V38.7273H211.618C212.186 38.7273 212.653 38.8243 213.017 39.0185C213.382 39.2102 213.652 39.4742 213.827 39.8104C214.002 40.1465 214.09 40.5289 214.09 40.9574C214.09 41.3859 214.002 41.7659 213.827 42.0973C213.652 42.4287 213.383 42.6892 213.021 42.8786C212.658 43.0656 212.196 43.1591 211.632 43.1591H209.644V42.3636H211.604C211.992 42.3636 212.305 42.3068 212.541 42.1932C212.78 42.0795 212.953 41.9186 213.06 41.7102C213.169 41.4995 213.223 41.2486 213.223 40.9574C213.223 40.6662 213.169 40.4117 213.06 40.1939C212.951 39.9761 212.777 39.808 212.538 39.6896C212.299 39.5689 211.983 39.5085 211.59 39.5085H210.041V46H209.161ZM212.584 42.733L214.374 46H213.351L211.59 42.733H212.584ZM221.583 42.3636C221.583 43.1307 221.445 43.7936 221.168 44.3523C220.891 44.911 220.511 45.3419 220.028 45.6449C219.545 45.9479 218.993 46.0994 218.373 46.0994C217.753 46.0994 217.201 45.9479 216.718 45.6449C216.235 45.3419 215.855 44.911 215.578 44.3523C215.301 43.7936 215.163 43.1307 215.163 42.3636C215.163 41.5966 215.301 40.9337 215.578 40.375C215.855 39.8163 216.235 39.3854 216.718 39.0824C217.201 38.7794 217.753 38.6278 218.373 38.6278C218.993 38.6278 219.545 38.7794 220.028 39.0824C220.511 39.3854 220.891 39.8163 221.168 40.375C221.445 40.9337 221.583 41.5966 221.583 42.3636ZM220.731 42.3636C220.731 41.7339 220.626 41.2024 220.415 40.7692C220.207 40.3359 219.924 40.008 219.566 39.7855C219.211 39.563 218.814 39.4517 218.373 39.4517C217.933 39.4517 217.534 39.563 217.176 39.7855C216.821 40.008 216.538 40.3359 216.328 40.7692C216.119 41.2024 216.015 41.7339 216.015 42.3636C216.015 42.9934 216.119 43.5249 216.328 43.9581C216.538 44.3913 216.821 44.7192 217.176 44.9418C217.534 45.1643 217.933 45.2756 218.373 45.2756C218.814 45.2756 219.211 45.1643 219.566 44.9418C219.924 44.7192 220.207 44.3913 220.415 43.9581C220.626 43.5249 220.731 42.9934 220.731 42.3636ZM223.835 38.7273V46H222.954V38.7273H223.835Z" fill="white"/>
<path d="M330.874 118.509V117.727H336.329V118.509H334.042V125H333.161V118.509H330.874ZM338.889 125.114C338.397 125.114 337.965 124.996 337.593 124.762C337.224 124.528 336.935 124.2 336.726 123.778C336.52 123.357 336.417 122.865 336.417 122.301C336.417 121.733 336.52 121.237 336.726 120.813C336.935 120.389 337.224 120.06 337.593 119.826C337.965 119.592 338.397 119.474 338.889 119.474C339.382 119.474 339.812 119.592 340.182 119.826C340.553 120.06 340.842 120.389 341.048 120.813C341.257 121.237 341.361 121.733 341.361 122.301C341.361 122.865 341.257 123.357 341.048 123.778C340.842 124.2 340.553 124.528 340.182 124.762C339.812 124.996 339.382 125.114 338.889 125.114ZM338.889 124.361C339.263 124.361 339.571 124.265 339.812 124.073C340.054 123.881 340.233 123.629 340.349 123.317C340.465 123.004 340.523 122.666 340.523 122.301C340.523 121.937 340.465 121.597 340.349 121.282C340.233 120.967 340.054 120.713 339.812 120.518C339.571 120.324 339.263 120.227 338.889 120.227C338.515 120.227 338.207 120.324 337.966 120.518C337.724 120.713 337.546 120.967 337.43 121.282C337.314 121.597 337.256 121.937 337.256 122.301C337.256 122.666 337.314 123.004 337.43 123.317C337.546 123.629 337.724 123.881 337.966 124.073C338.207 124.265 338.515 124.361 338.889 124.361ZM346.735 119.545V125H345.896V119.545H346.735ZM346.408 122.145V122.926C346.218 122.997 346.03 123.06 345.843 123.114C345.656 123.166 345.46 123.208 345.254 123.239C345.048 123.267 344.822 123.281 344.575 123.281C343.958 123.281 343.462 123.114 343.088 122.781C342.716 122.447 342.53 121.946 342.53 121.278V119.531H343.368V121.278C343.368 121.558 343.421 121.787 343.528 121.967C343.634 122.147 343.779 122.281 343.961 122.369C344.143 122.456 344.348 122.5 344.575 122.5C344.931 122.5 345.251 122.468 345.538 122.404C345.827 122.338 346.117 122.251 346.408 122.145ZM351.813 121.889V122.67H348.801V121.889H351.813ZM349 119.545V125H348.162V119.545H349ZM352.452 119.545V125H351.614V119.545H352.452ZM356.088 125.114C355.596 125.114 355.164 124.996 354.792 124.762C354.423 124.528 354.134 124.2 353.926 123.778C353.72 123.357 353.617 122.865 353.617 122.301C353.617 121.733 353.72 121.237 353.926 120.813C354.134 120.389 354.423 120.06 354.792 119.826C355.164 119.592 355.596 119.474 356.088 119.474C356.581 119.474 357.012 119.592 357.381 119.826C357.753 120.06 358.042 120.389 358.247 120.813C358.456 121.237 358.56 121.733 358.56 122.301C358.56 122.865 358.456 123.357 358.247 123.778C358.042 124.2 357.753 124.528 357.381 124.762C357.012 124.996 356.581 125.114 356.088 125.114ZM356.088 124.361C356.462 124.361 356.77 124.265 357.012 124.073C357.253 123.881 357.432 123.629 357.548 123.317C357.664 123.004 357.722 122.666 357.722 122.301C357.722 121.937 357.664 121.597 357.548 121.282C357.432 120.967 357.253 120.713 357.012 120.518C356.77 120.324 356.462 120.227 356.088 120.227C355.714 120.227 355.407 120.324 355.165 120.518C354.924 120.713 354.745 120.967 354.629 121.282C354.513 121.597 354.455 121.937 354.455 122.301C354.455 122.666 354.513 123.004 354.629 123.317C354.745 123.629 354.924 123.881 355.165 124.073C355.407 124.265 355.714 124.361 356.088 124.361ZM361.945 125.114C361.434 125.114 360.993 124.993 360.624 124.751C360.255 124.51 359.971 124.177 359.772 123.754C359.573 123.33 359.474 122.846 359.474 122.301C359.474 121.747 359.575 121.258 359.779 120.835C359.985 120.408 360.271 120.076 360.638 119.837C361.008 119.595 361.439 119.474 361.931 119.474C362.314 119.474 362.66 119.545 362.968 119.688C363.276 119.83 363.528 120.028 363.724 120.284C363.921 120.54 364.043 120.838 364.09 121.179H363.252C363.188 120.93 363.046 120.71 362.826 120.518C362.608 120.324 362.314 120.227 361.945 120.227C361.618 120.227 361.332 120.312 361.086 120.483C360.842 120.651 360.651 120.889 360.514 121.197C360.379 121.502 360.312 121.861 360.312 122.273C360.312 122.694 360.378 123.061 360.511 123.374C360.645 123.686 360.835 123.929 361.079 124.102C361.325 124.274 361.614 124.361 361.945 124.361C362.163 124.361 362.361 124.323 362.538 124.247C362.716 124.171 362.866 124.062 362.989 123.92C363.112 123.778 363.2 123.608 363.252 123.409H364.09C364.043 123.731 363.926 124.021 363.739 124.279C363.554 124.535 363.309 124.738 363.003 124.89C362.7 125.039 362.348 125.114 361.945 125.114ZM364.776 120.327V119.545H369.207V120.327H367.418V125H366.579V120.327H364.776ZM371.044 121.52H372.607C373.246 121.52 373.735 121.682 374.073 122.006C374.412 122.331 374.581 122.741 374.581 123.239C374.581 123.565 374.505 123.862 374.354 124.13C374.202 124.395 373.98 124.607 373.686 124.766C373.393 124.922 373.033 125 372.607 125H370.32V119.545H371.158V124.219H372.607C372.938 124.219 373.21 124.131 373.424 123.956C373.637 123.781 373.743 123.556 373.743 123.281C373.743 122.992 373.637 122.757 373.424 122.575C373.21 122.392 372.938 122.301 372.607 122.301H371.044V121.52ZM378.563 125V117.727H379.444V124.219H382.824V125H378.563ZM384.078 125V117.727H384.959V124.219H388.339V125H384.078ZM389.593 117.727H390.644L393.116 123.764H393.201L395.673 117.727H396.724V125H395.9V119.474H395.829L393.556 125H392.761L390.488 119.474H390.417V125H389.593V117.727Z" fill="white"/>
<path d="M336.957 256H336.076C336.024 255.747 335.933 255.524 335.803 255.332C335.675 255.141 335.519 254.98 335.334 254.849C335.152 254.717 334.949 254.617 334.727 254.551C334.504 254.485 334.272 254.452 334.031 254.452C333.591 254.452 333.192 254.563 332.834 254.786C332.479 255.008 332.196 255.336 331.985 255.769C331.777 256.202 331.673 256.734 331.673 257.364C331.673 257.993 331.777 258.525 331.985 258.958C332.196 259.391 332.479 259.719 332.834 259.942C333.192 260.164 333.591 260.276 334.031 260.276C334.272 260.276 334.504 260.242 334.727 260.176C334.949 260.11 335.152 260.012 335.334 259.881C335.519 259.749 335.675 259.587 335.803 259.395C335.933 259.201 336.024 258.978 336.076 258.727H336.957C336.891 259.099 336.77 259.432 336.595 259.725C336.42 260.019 336.202 260.268 335.941 260.474C335.681 260.678 335.389 260.833 335.064 260.94C334.742 261.046 334.398 261.099 334.031 261.099C333.411 261.099 332.859 260.948 332.376 260.645C331.893 260.342 331.513 259.911 331.236 259.352C330.959 258.794 330.821 258.131 330.821 257.364C330.821 256.597 330.959 255.934 331.236 255.375C331.513 254.816 331.893 254.385 332.376 254.082C332.859 253.779 333.411 253.628 334.031 253.628C334.398 253.628 334.742 253.681 335.064 253.788C335.389 253.894 335.681 254.05 335.941 254.256C336.202 254.46 336.42 254.709 336.595 255.002C336.77 255.293 336.891 255.626 336.957 256ZM338.156 261V255.545H338.995V257.918H339.549L341.509 255.545H342.588L340.387 258.173L342.617 261H341.537L339.747 258.699H338.995V261H338.156ZM345.409 261.114C344.916 261.114 344.484 260.996 344.113 260.762C343.743 260.528 343.455 260.2 343.246 259.778C343.04 259.357 342.937 258.865 342.937 258.301C342.937 257.733 343.04 257.237 343.246 256.813C343.455 256.389 343.743 256.06 344.113 255.826C344.484 255.592 344.916 255.474 345.409 255.474C345.901 255.474 346.332 255.592 346.702 255.826C347.073 256.06 347.362 256.389 347.568 256.813C347.776 257.237 347.88 257.733 347.88 258.301C347.88 258.865 347.776 259.357 347.568 259.778C347.362 260.2 347.073 260.528 346.702 260.762C346.332 260.996 345.901 261.114 345.409 261.114ZM345.409 260.361C345.783 260.361 346.091 260.265 346.332 260.073C346.574 259.881 346.752 259.629 346.868 259.317C346.984 259.004 347.042 258.666 347.042 258.301C347.042 257.937 346.984 257.597 346.868 257.282C346.752 256.967 346.574 256.713 346.332 256.518C346.091 256.324 345.783 256.227 345.409 256.227C345.035 256.227 344.727 256.324 344.486 256.518C344.244 256.713 344.065 256.967 343.949 257.282C343.833 257.597 343.775 257.937 343.775 258.301C343.775 258.666 343.833 259.004 343.949 259.317C344.065 259.629 344.244 259.881 344.486 260.073C344.727 260.265 345.035 260.361 345.409 260.361ZM349.05 263.045V255.545H349.859V256.412H349.959C350.02 256.317 350.106 256.196 350.215 256.05C350.326 255.901 350.484 255.768 350.69 255.652C350.899 255.534 351.18 255.474 351.536 255.474C351.995 255.474 352.4 255.589 352.75 255.819C353.1 256.049 353.374 256.374 353.57 256.795C353.767 257.217 353.865 257.714 353.865 258.287C353.865 258.865 353.767 259.365 353.57 259.789C353.374 260.21 353.102 260.537 352.754 260.769C352.406 260.999 352.004 261.114 351.55 261.114C351.199 261.114 350.919 261.056 350.708 260.94C350.497 260.821 350.335 260.687 350.222 260.538C350.108 260.387 350.02 260.261 349.959 260.162H349.888V263.045H349.05ZM349.874 258.273C349.874 258.685 349.934 259.048 350.055 259.363C350.175 259.675 350.352 259.92 350.584 260.098C350.816 260.273 351.1 260.361 351.436 260.361C351.787 260.361 352.079 260.268 352.313 260.084C352.55 259.897 352.728 259.646 352.846 259.331C352.967 259.014 353.027 258.661 353.027 258.273C353.027 257.889 352.968 257.544 352.849 257.236C352.733 256.926 352.557 256.681 352.32 256.501C352.086 256.318 351.791 256.227 351.436 256.227C351.095 256.227 350.809 256.314 350.577 256.487C350.345 256.657 350.17 256.896 350.051 257.204C349.933 257.509 349.874 257.866 349.874 258.273ZM357.249 261.114C356.757 261.114 356.325 260.996 355.953 260.762C355.584 260.528 355.295 260.2 355.087 259.778C354.881 259.357 354.778 258.865 354.778 258.301C354.778 257.733 354.881 257.237 355.087 256.813C355.295 256.389 355.584 256.06 355.953 255.826C356.325 255.592 356.757 255.474 357.249 255.474C357.742 255.474 358.173 255.592 358.542 255.826C358.914 256.06 359.203 256.389 359.409 256.813C359.617 257.237 359.721 257.733 359.721 258.301C359.721 258.865 359.617 259.357 359.409 259.778C359.203 260.2 358.914 260.528 358.542 260.762C358.173 260.996 357.742 261.114 357.249 261.114ZM357.249 260.361C357.623 260.361 357.931 260.265 358.173 260.073C358.414 259.881 358.593 259.629 358.709 259.317C358.825 259.004 358.883 258.666 358.883 258.301C358.883 257.937 358.825 257.597 358.709 257.282C358.593 256.967 358.414 256.713 358.173 256.518C357.931 256.324 357.623 256.227 357.249 256.227C356.875 256.227 356.568 256.324 356.326 256.518C356.085 256.713 355.906 256.967 355.79 257.282C355.674 257.597 355.616 257.937 355.616 258.301C355.616 258.666 355.674 259.004 355.79 259.317C355.906 259.629 356.085 259.881 356.326 260.073C356.568 260.265 356.875 260.361 357.249 260.361ZM363.106 261.114C362.595 261.114 362.155 260.993 361.785 260.751C361.416 260.51 361.132 260.177 360.933 259.754C360.734 259.33 360.635 258.846 360.635 258.301C360.635 257.747 360.736 257.258 360.94 256.835C361.146 256.408 361.432 256.076 361.799 255.837C362.169 255.595 362.6 255.474 363.092 255.474C363.476 255.474 363.821 255.545 364.129 255.688C364.437 255.83 364.689 256.028 364.885 256.284C365.082 256.54 365.204 256.838 365.251 257.179H364.413C364.349 256.93 364.207 256.71 363.987 256.518C363.769 256.324 363.476 256.227 363.106 256.227C362.78 256.227 362.493 256.312 362.247 256.483C362.003 256.651 361.812 256.889 361.675 257.197C361.54 257.502 361.473 257.861 361.473 258.273C361.473 258.694 361.539 259.061 361.672 259.374C361.807 259.686 361.996 259.929 362.24 260.102C362.486 260.274 362.775 260.361 363.106 260.361C363.324 260.361 363.522 260.323 363.699 260.247C363.877 260.171 364.027 260.062 364.15 259.92C364.273 259.778 364.361 259.608 364.413 259.409H365.251C365.204 259.731 365.087 260.021 364.9 260.279C364.715 260.535 364.47 260.738 364.164 260.89C363.861 261.039 363.509 261.114 363.106 261.114ZM365.937 256.327V255.545H370.368V256.327H368.579V261H367.741V256.327H365.937ZM372.205 257.52H373.768C374.407 257.52 374.896 257.682 375.234 258.006C375.573 258.331 375.742 258.741 375.742 259.239C375.742 259.565 375.666 259.862 375.515 260.13C375.363 260.395 375.141 260.607 374.847 260.766C374.554 260.922 374.194 261 373.768 261H371.481V255.545H372.319V260.219H373.768C374.099 260.219 374.371 260.131 374.585 259.956C374.798 259.781 374.904 259.556 374.904 259.281C374.904 258.992 374.798 258.757 374.585 258.575C374.371 258.392 374.099 258.301 373.768 258.301H372.205V257.52ZM379.61 261V255.545H381.841C382.428 255.545 382.894 255.678 383.24 255.943C383.585 256.208 383.758 256.559 383.758 256.994C383.758 257.326 383.66 257.583 383.463 257.765C383.267 257.945 383.015 258.067 382.707 258.131C382.908 258.159 383.104 258.23 383.293 258.344C383.485 258.457 383.643 258.614 383.769 258.812C383.894 259.009 383.957 259.25 383.957 259.537C383.957 259.816 383.886 260.066 383.744 260.286C383.602 260.506 383.398 260.68 383.133 260.808C382.868 260.936 382.551 261 382.182 261H379.61ZM380.406 260.233H382.182C382.47 260.233 382.696 260.164 382.86 260.027C383.023 259.89 383.105 259.703 383.105 259.466C383.105 259.184 383.023 258.963 382.86 258.802C382.696 258.638 382.47 258.557 382.182 258.557H380.406V260.233ZM380.406 257.832H381.841C382.066 257.832 382.258 257.802 382.419 257.74C382.58 257.676 382.704 257.586 382.789 257.47C382.876 257.352 382.92 257.212 382.92 257.051C382.92 256.821 382.824 256.642 382.632 256.511C382.441 256.379 382.177 256.312 381.841 256.312H380.406V257.832ZM388.766 257.889V258.67H385.755V257.889H388.766ZM385.954 255.545V261H385.116V255.545H385.954ZM389.405 255.545V261H388.567V255.545H389.405ZM393.113 261.114C392.587 261.114 392.134 260.998 391.753 260.766C391.374 260.531 391.082 260.205 390.876 259.786C390.672 259.364 390.57 258.874 390.57 258.315C390.57 257.757 390.672 257.264 390.876 256.838C391.082 256.41 391.368 256.076 391.735 255.837C392.104 255.595 392.535 255.474 393.028 255.474C393.312 255.474 393.592 255.522 393.869 255.616C394.146 255.711 394.398 255.865 394.626 256.078C394.853 256.289 395.034 256.568 395.169 256.916C395.304 257.264 395.371 257.693 395.371 258.202V258.557H391.167V257.832H394.519C394.519 257.525 394.458 257.25 394.335 257.009C394.214 256.767 394.041 256.576 393.816 256.437C393.594 256.297 393.331 256.227 393.028 256.227C392.694 256.227 392.405 256.31 392.161 256.476C391.92 256.639 391.734 256.852 391.604 257.115C391.474 257.378 391.408 257.66 391.408 257.96V258.443C391.408 258.855 391.479 259.204 391.621 259.491C391.766 259.775 391.966 259.991 392.222 260.141C392.477 260.287 392.774 260.361 393.113 260.361C393.333 260.361 393.532 260.33 393.71 260.268C393.889 260.205 394.045 260.11 394.175 259.984C394.305 259.857 394.406 259.698 394.477 259.509L395.286 259.736C395.201 260.01 395.058 260.252 394.857 260.46C394.655 260.666 394.407 260.827 394.111 260.943C393.815 261.057 393.482 261.114 393.113 261.114ZM395.954 262.562V260.219H396.409C396.52 260.103 396.616 259.977 396.696 259.842C396.777 259.707 396.846 259.548 396.906 259.363C396.967 259.176 397.019 258.949 397.062 258.681C397.105 258.411 397.142 258.086 397.176 257.705L397.36 255.545H400.826V260.219H401.664V262.562H400.826V261H396.792V262.562H395.954ZM397.36 260.219H399.988V256.327H398.141L397.999 257.705C397.94 258.275 397.867 258.773 397.779 259.2C397.692 259.626 397.552 259.965 397.36 260.219ZM402.667 263.045V255.545H403.476V256.412H403.576C403.637 256.317 403.722 256.196 403.831 256.05C403.943 255.901 404.101 255.768 404.307 255.652C404.516 255.534 404.797 255.474 405.152 255.474C405.612 255.474 406.016 255.589 406.367 255.819C406.717 256.049 406.991 256.374 407.187 256.795C407.384 257.217 407.482 257.714 407.482 258.287C407.482 258.865 407.384 259.365 407.187 259.789C406.991 260.21 406.718 260.537 406.37 260.769C406.022 260.999 405.621 261.114 405.167 261.114C404.816 261.114 404.536 261.056 404.325 260.94C404.114 260.821 403.952 260.687 403.838 260.538C403.725 260.387 403.637 260.261 403.576 260.162H403.505V263.045H402.667ZM403.49 258.273C403.49 258.685 403.551 259.048 403.672 259.363C403.792 259.675 403.969 259.92 404.201 260.098C404.433 260.273 404.717 260.361 405.053 260.361C405.403 260.361 405.696 260.268 405.93 260.084C406.167 259.897 406.344 259.646 406.463 259.331C406.583 259.014 406.644 258.661 406.644 258.273C406.644 257.889 406.585 257.544 406.466 257.236C406.35 256.926 406.174 256.681 405.937 256.501C405.703 256.318 405.408 256.227 405.053 256.227C404.712 256.227 404.426 256.314 404.194 256.487C403.962 256.657 403.786 256.896 403.668 257.204C403.55 257.509 403.49 257.866 403.49 258.273ZM410.937 261.114C410.412 261.114 409.958 260.998 409.577 260.766C409.198 260.531 408.906 260.205 408.7 259.786C408.496 259.364 408.395 258.874 408.395 258.315C408.395 257.757 408.496 257.264 408.7 256.838C408.906 256.41 409.192 256.076 409.559 255.837C409.929 255.595 410.36 255.474 410.852 255.474C411.136 255.474 411.417 255.522 411.694 255.616C411.971 255.711 412.223 255.865 412.45 256.078C412.677 256.289 412.858 256.568 412.993 256.916C413.128 257.264 413.196 257.693 413.196 258.202V258.557H408.991V257.832H412.344C412.344 257.525 412.282 257.25 412.159 257.009C412.038 256.767 411.865 256.576 411.64 256.437C411.418 256.297 411.155 256.227 410.852 256.227C410.518 256.227 410.229 256.31 409.986 256.476C409.744 256.639 409.558 256.852 409.428 257.115C409.298 257.378 409.233 257.66 409.233 257.96V258.443C409.233 258.855 409.304 259.204 409.446 259.491C409.59 259.775 409.79 259.991 410.046 260.141C410.302 260.287 410.599 260.361 410.937 260.361C411.157 260.361 411.356 260.33 411.534 260.268C411.714 260.205 411.869 260.11 411.999 259.984C412.129 259.857 412.23 259.698 412.301 259.509L413.111 259.736C413.025 260.01 412.882 260.252 412.681 260.46C412.48 260.666 412.231 260.827 411.935 260.943C411.639 261.057 411.307 261.114 410.937 261.114ZM418.011 257.889V258.67H415V257.889H418.011ZM415.199 255.545V261H414.361V255.545H415.199ZM418.65 255.545V261H417.812V255.545H418.65ZM420.909 259.764L423.537 255.545H424.503V261H423.665V256.781L421.051 261H420.071V255.545H420.909V259.764ZM429.209 261V256.312H427.76C427.433 256.312 427.177 256.388 426.99 256.54C426.803 256.691 426.709 256.9 426.709 257.165C426.709 257.425 426.793 257.63 426.961 257.779C427.132 257.928 427.365 258.003 427.661 258.003H429.422V258.784H427.661C427.291 258.784 426.973 258.719 426.705 258.589C426.438 258.459 426.232 258.273 426.088 258.031C425.943 257.787 425.871 257.499 425.871 257.165C425.871 256.829 425.947 256.54 426.098 256.298C426.25 256.057 426.466 255.871 426.748 255.741C427.032 255.611 427.37 255.545 427.76 255.545H430.004V261H429.209ZM425.573 261L427.121 258.287H428.03L426.482 261H425.573Z" fill="white"/>
<path d="M173.455 329.099V328.276H173.909C174.084 328.276 174.231 328.241 174.35 328.173C174.47 328.104 174.57 328.015 174.648 327.906C174.728 327.797 174.795 327.684 174.847 327.565L174.96 327.295L172.446 321.727H173.398L175.401 326.244L177.233 321.727H178.171L175.656 327.821C175.557 328.048 175.443 328.259 175.316 328.453C175.19 328.647 175.018 328.804 174.801 328.922C174.585 329.04 174.293 329.099 173.924 329.099H173.455ZM178.505 330.562V328.219H178.96C179.071 328.103 179.167 327.977 179.248 327.842C179.328 327.707 179.398 327.548 179.457 327.363C179.519 327.176 179.571 326.949 179.613 326.681C179.656 326.411 179.694 326.086 179.727 325.705L179.912 323.545H183.378V328.219H184.216V330.562H183.378V329H179.344V330.562H178.505ZM179.912 328.219H182.54V324.327H180.693L180.551 325.705C180.492 326.275 180.418 326.773 180.331 327.2C180.243 327.626 180.103 327.965 179.912 328.219ZM187.434 329.114C186.942 329.114 186.509 328.996 186.138 328.762C185.768 328.528 185.48 328.2 185.271 327.778C185.065 327.357 184.962 326.865 184.962 326.301C184.962 325.733 185.065 325.237 185.271 324.813C185.48 324.389 185.768 324.06 186.138 323.826C186.509 323.592 186.942 323.474 187.434 323.474C187.926 323.474 188.357 323.592 188.727 323.826C189.098 324.06 189.387 324.389 189.593 324.813C189.801 325.237 189.906 325.733 189.906 326.301C189.906 326.865 189.801 327.357 189.593 327.778C189.387 328.2 189.098 328.528 188.727 328.762C188.357 328.996 187.926 329.114 187.434 329.114ZM187.434 328.361C187.808 328.361 188.116 328.265 188.357 328.073C188.599 327.881 188.777 327.629 188.893 327.317C189.009 327.004 189.067 326.666 189.067 326.301C189.067 325.937 189.009 325.597 188.893 325.282C188.777 324.967 188.599 324.713 188.357 324.518C188.116 324.324 187.808 324.227 187.434 324.227C187.06 324.227 186.752 324.324 186.511 324.518C186.269 324.713 186.09 324.967 185.974 325.282C185.858 325.597 185.8 325.937 185.8 326.301C185.8 326.666 185.858 327.004 185.974 327.317C186.09 327.629 186.269 327.881 186.511 328.073C186.752 328.265 187.06 328.361 187.434 328.361ZM191.075 329V323.545H193.305C193.892 323.545 194.358 323.678 194.704 323.943C195.05 324.208 195.223 324.559 195.223 324.994C195.223 325.326 195.124 325.583 194.928 325.765C194.731 325.945 194.479 326.067 194.171 326.131C194.373 326.159 194.568 326.23 194.757 326.344C194.949 326.457 195.108 326.614 195.233 326.812C195.359 327.009 195.421 327.25 195.421 327.537C195.421 327.816 195.35 328.066 195.208 328.286C195.066 328.506 194.863 328.68 194.598 328.808C194.332 328.936 194.015 329 193.646 329H191.075ZM191.87 328.233H193.646C193.935 328.233 194.161 328.164 194.324 328.027C194.488 327.89 194.569 327.703 194.569 327.466C194.569 327.184 194.488 326.963 194.324 326.802C194.161 326.638 193.935 326.557 193.646 326.557H191.87V328.233ZM191.87 325.832H193.305C193.53 325.832 193.723 325.802 193.884 325.74C194.045 325.676 194.168 325.586 194.253 325.47C194.341 325.352 194.385 325.212 194.385 325.051C194.385 324.821 194.289 324.642 194.097 324.511C193.905 324.379 193.641 324.312 193.305 324.312H191.87V325.832ZM196.097 329V328.219H196.296C196.459 328.219 196.595 328.187 196.704 328.123C196.813 328.057 196.901 327.942 196.967 327.778C197.036 327.613 197.088 327.383 197.123 327.089C197.161 326.794 197.189 326.417 197.205 325.96L197.305 323.545H200.941V329H200.103V324.327H198.1L198.015 326.273C197.996 326.72 197.956 327.114 197.894 327.455C197.835 327.794 197.744 328.078 197.621 328.308C197.5 328.537 197.339 328.71 197.138 328.826C196.936 328.942 196.684 329 196.381 329H196.097ZM204.655 329.114C204.13 329.114 203.677 328.998 203.295 328.766C202.917 328.531 202.624 328.205 202.418 327.786C202.215 327.364 202.113 326.874 202.113 326.315C202.113 325.757 202.215 325.264 202.418 324.838C202.624 324.41 202.911 324.076 203.278 323.837C203.647 323.595 204.078 323.474 204.57 323.474C204.854 323.474 205.135 323.522 205.412 323.616C205.689 323.711 205.941 323.865 206.168 324.078C206.396 324.289 206.577 324.568 206.712 324.916C206.847 325.264 206.914 325.693 206.914 326.202V326.557H202.709V325.832H206.062C206.062 325.525 206 325.25 205.877 325.009C205.756 324.767 205.583 324.576 205.359 324.437C205.136 324.297 204.873 324.227 204.57 324.227C204.236 324.227 203.948 324.31 203.704 324.476C203.462 324.639 203.276 324.852 203.146 325.115C203.016 325.378 202.951 325.66 202.951 325.96V326.443C202.951 326.855 203.022 327.204 203.164 327.491C203.308 327.775 203.508 327.991 203.764 328.141C204.02 328.287 204.317 328.361 204.655 328.361C204.876 328.361 205.074 328.33 205.252 328.268C205.432 328.205 205.587 328.11 205.717 327.984C205.847 327.857 205.948 327.698 206.019 327.509L206.829 327.736C206.744 328.01 206.6 328.252 206.399 328.46C206.198 328.666 205.949 328.827 205.653 328.943C205.357 329.057 205.025 329.114 204.655 329.114ZM207.571 324.327V323.545H212.003V324.327H210.213V329H209.375V324.327H207.571ZM213.115 329V323.545H215.345C215.933 323.545 216.399 323.678 216.745 323.943C217.09 324.208 217.263 324.559 217.263 324.994C217.263 325.326 217.165 325.583 216.968 325.765C216.772 325.945 216.52 326.067 216.212 326.131C216.413 326.159 216.608 326.23 216.798 326.344C216.99 326.457 217.148 326.614 217.274 326.812C217.399 327.009 217.462 327.25 217.462 327.537C217.462 327.816 217.391 328.066 217.249 328.286C217.107 328.506 216.903 328.68 216.638 328.808C216.373 328.936 216.056 329 215.686 329H213.115ZM213.911 328.233H215.686C215.975 328.233 216.201 328.164 216.365 328.027C216.528 327.89 216.61 327.703 216.61 327.466C216.61 327.184 216.528 326.963 216.365 326.802C216.201 326.638 215.975 326.557 215.686 326.557H213.911V328.233ZM213.911 325.832H215.345C215.57 325.832 215.763 325.802 215.924 325.74C216.085 325.676 216.208 325.586 216.294 325.47C216.381 325.352 216.425 325.212 216.425 325.051C216.425 324.821 216.329 324.642 216.137 324.511C215.946 324.379 215.682 324.312 215.345 324.312H213.911V325.832ZM220.836 329.114C220.344 329.114 219.912 328.996 219.54 328.762C219.171 328.528 218.882 328.2 218.674 327.778C218.468 327.357 218.365 326.865 218.365 326.301C218.365 325.733 218.468 325.237 218.674 324.813C218.882 324.389 219.171 324.06 219.54 323.826C219.912 323.592 220.344 323.474 220.836 323.474C221.329 323.474 221.76 323.592 222.129 323.826C222.501 324.06 222.79 324.389 222.996 324.813C223.204 325.237 223.308 325.733 223.308 326.301C223.308 326.865 223.204 327.357 222.996 327.778C222.79 328.2 222.501 328.528 222.129 328.762C221.76 328.996 221.329 329.114 220.836 329.114ZM220.836 328.361C221.211 328.361 221.518 328.265 221.76 328.073C222.001 327.881 222.18 327.629 222.296 327.317C222.412 327.004 222.47 326.666 222.47 326.301C222.47 325.937 222.412 325.597 222.296 325.282C222.18 324.967 222.001 324.713 221.76 324.518C221.518 324.324 221.211 324.227 220.836 324.227C220.462 324.227 220.155 324.324 219.913 324.518C219.672 324.713 219.493 324.967 219.377 325.282C219.261 325.597 219.203 325.937 219.203 326.301C219.203 326.666 219.261 327.004 219.377 327.317C219.493 327.629 219.672 327.881 219.913 328.073C220.155 328.265 220.462 328.361 220.836 328.361ZM224.477 331.045V323.545H225.287V324.412H225.386C225.448 324.317 225.533 324.196 225.642 324.05C225.753 323.901 225.912 323.768 226.118 323.652C226.326 323.534 226.608 323.474 226.963 323.474C227.422 323.474 227.827 323.589 228.178 323.819C228.528 324.049 228.801 324.374 228.998 324.795C229.194 325.217 229.293 325.714 229.293 326.287C229.293 326.865 229.194 327.365 228.998 327.789C228.801 328.21 228.529 328.537 228.181 328.769C227.833 328.999 227.432 329.114 226.977 329.114C226.627 329.114 226.346 329.056 226.136 328.94C225.925 328.821 225.763 328.687 225.649 328.538C225.536 328.387 225.448 328.261 225.386 328.162H225.315V331.045H224.477ZM225.301 326.273C225.301 326.685 225.362 327.048 225.482 327.363C225.603 327.675 225.779 327.92 226.011 328.098C226.243 328.273 226.528 328.361 226.864 328.361C227.214 328.361 227.506 328.268 227.741 328.084C227.978 327.897 228.155 327.646 228.274 327.331C228.394 327.014 228.455 326.661 228.455 326.273C228.455 325.889 228.395 325.544 228.277 325.236C228.161 324.926 227.985 324.681 227.748 324.501C227.514 324.318 227.219 324.227 226.864 324.227C226.523 324.227 226.236 324.314 226.004 324.487C225.772 324.657 225.597 324.896 225.479 325.204C225.36 325.509 225.301 325.866 225.301 326.273ZM232.748 329.114C232.222 329.114 231.769 328.998 231.388 328.766C231.009 328.531 230.717 328.205 230.511 327.786C230.307 327.364 230.205 326.874 230.205 326.315C230.205 325.757 230.307 325.264 230.511 324.838C230.717 324.41 231.003 324.076 231.37 323.837C231.74 323.595 232.17 323.474 232.663 323.474C232.947 323.474 233.227 323.522 233.504 323.616C233.781 323.711 234.034 323.865 234.261 324.078C234.488 324.289 234.669 324.568 234.804 324.916C234.939 325.264 235.007 325.693 235.007 326.202V326.557H230.802V325.832H234.154C234.154 325.525 234.093 325.25 233.97 325.009C233.849 324.767 233.676 324.576 233.451 324.437C233.229 324.297 232.966 324.227 232.663 324.227C232.329 324.227 232.04 324.31 231.796 324.476C231.555 324.639 231.369 324.852 231.239 325.115C231.109 325.378 231.043 325.66 231.043 325.96V326.443C231.043 326.855 231.115 327.204 231.257 327.491C231.401 327.775 231.601 327.991 231.857 328.141C232.112 328.287 232.41 328.361 232.748 328.361C232.968 328.361 233.167 328.33 233.345 328.268C233.525 328.205 233.68 328.11 233.81 327.984C233.94 327.857 234.041 327.698 234.112 327.509L234.921 327.736C234.836 328.01 234.693 328.252 234.492 328.46C234.29 328.666 234.042 328.827 233.746 328.943C233.45 329.057 233.117 329.114 232.748 329.114ZM239.822 325.889V326.67H236.811V325.889H239.822ZM237.009 323.545V329H236.171V323.545H237.009ZM240.461 323.545V329H239.623V323.545H240.461ZM245.532 325.889V326.67H242.521V325.889H245.532ZM242.72 323.545V329H241.882V323.545H242.72ZM246.172 323.545V329H245.333V323.545H246.172ZM249.808 329.114C249.316 329.114 248.883 328.996 248.512 328.762C248.142 328.528 247.854 328.2 247.645 327.778C247.439 327.357 247.336 326.865 247.336 326.301C247.336 325.733 247.439 325.237 247.645 324.813C247.854 324.389 248.142 324.06 248.512 323.826C248.883 323.592 249.316 323.474 249.808 323.474C250.3 323.474 250.731 323.592 251.101 323.826C251.472 324.06 251.761 324.389 251.967 324.813C252.175 325.237 252.28 325.733 252.28 326.301C252.28 326.865 252.175 327.357 251.967 327.778C251.761 328.2 251.472 328.528 251.101 328.762C250.731 328.996 250.3 329.114 249.808 329.114ZM249.808 328.361C250.182 328.361 250.49 328.265 250.731 328.073C250.973 327.881 251.151 327.629 251.267 327.317C251.383 327.004 251.441 326.666 251.441 326.301C251.441 325.937 251.383 325.597 251.267 325.282C251.151 324.967 250.973 324.713 250.731 324.518C250.49 324.324 250.182 324.227 249.808 324.227C249.434 324.227 249.126 324.324 248.885 324.518C248.643 324.713 248.464 324.967 248.348 325.282C248.232 325.597 248.174 325.937 248.174 326.301C248.174 326.666 248.232 327.004 248.348 327.317C248.464 327.629 248.643 327.881 248.885 328.073C249.126 328.265 249.434 328.361 249.808 328.361ZM255.665 329.114C255.153 329.114 254.713 328.993 254.344 328.751C253.974 328.51 253.69 328.177 253.491 327.754C253.293 327.33 253.193 326.846 253.193 326.301C253.193 325.747 253.295 325.258 253.499 324.835C253.705 324.408 253.991 324.076 254.358 323.837C254.727 323.595 255.158 323.474 255.651 323.474C256.034 323.474 256.38 323.545 256.687 323.688C256.995 323.83 257.247 324.028 257.444 324.284C257.64 324.54 257.762 324.838 257.81 325.179H256.972C256.908 324.93 256.766 324.71 256.545 324.518C256.328 324.324 256.034 324.227 255.665 324.227C255.338 324.227 255.052 324.312 254.805 324.483C254.562 324.651 254.371 324.889 254.234 325.197C254.099 325.502 254.031 325.861 254.031 326.273C254.031 326.694 254.098 327.061 254.23 327.374C254.365 327.686 254.554 327.929 254.798 328.102C255.044 328.274 255.333 328.361 255.665 328.361C255.883 328.361 256.08 328.323 256.258 328.247C256.435 328.171 256.586 328.062 256.709 327.92C256.832 327.778 256.919 327.608 256.972 327.409H257.81C257.762 327.731 257.645 328.021 257.458 328.279C257.273 328.535 257.028 328.738 256.723 328.89C256.42 329.039 256.067 329.114 255.665 329.114ZM258.495 324.327V323.545H262.927V324.327H261.137V329H260.299V324.327H258.495ZM264.764 325.52H266.326C266.966 325.52 267.454 325.682 267.793 326.006C268.131 326.331 268.301 326.741 268.301 327.239C268.301 327.565 268.225 327.862 268.073 328.13C267.922 328.395 267.699 328.607 267.406 328.766C267.112 328.922 266.752 329 266.326 329H264.039V323.545H264.877V328.219H266.326C266.658 328.219 266.93 328.131 267.143 327.956C267.356 327.781 267.463 327.556 267.463 327.281C267.463 326.992 267.356 326.757 267.143 326.575C266.93 326.392 266.658 326.301 266.326 326.301H264.764V325.52Z" fill="white"/>
<path d="M6.75895 253.727V261H5.87827V254.509H2.2135V261H1.33282V253.727H6.75895ZM8.31177 263.045V255.545H9.12143V256.412H9.22086C9.28242 256.317 9.36764 256.196 9.47655 256.05C9.58782 255.901 9.74643 255.768 9.9524 255.652C10.1607 255.534 10.4425 255.474 10.7976 255.474C11.2568 255.474 11.6617 255.589 12.0121 255.819C12.3624 256.049 12.6359 256.374 12.8324 256.795C13.0289 257.217 13.1271 257.714 13.1271 258.287C13.1271 258.865 13.0289 259.365 12.8324 259.789C12.6359 260.21 12.3636 260.537 12.0156 260.769C11.6676 260.999 11.2663 261.114 10.8118 261.114C10.4614 261.114 10.1809 261.056 9.97015 260.94C9.75945 260.821 9.59728 260.687 9.48365 260.538C9.37001 260.387 9.28242 260.261 9.22086 260.162H9.14984V263.045H8.31177ZM9.13564 258.273C9.13564 258.685 9.19601 259.048 9.31674 259.363C9.43748 259.675 9.61386 259.92 9.84586 260.098C10.0779 260.273 10.362 260.361 10.6981 260.361C11.0485 260.361 11.3409 260.268 11.5753 260.084C11.812 259.897 11.9896 259.646 12.1079 259.331C12.2287 259.014 12.289 258.661 12.289 258.273C12.289 257.889 12.2299 257.544 12.1115 257.236C11.9955 256.926 11.8191 256.681 11.5824 256.501C11.348 256.318 11.0533 256.227 10.6981 256.227C10.3572 256.227 10.0708 256.314 9.83876 256.487C9.60675 256.657 9.43156 256.896 9.31319 257.204C9.19482 257.509 9.13564 257.866 9.13564 258.273ZM16.5114 261.114C16.019 261.114 15.587 260.996 15.2153 260.762C14.8459 260.528 14.5571 260.2 14.3488 259.778C14.1428 259.357 14.0398 258.865 14.0398 258.301C14.0398 257.733 14.1428 257.237 14.3488 256.813C14.5571 256.389 14.8459 256.06 15.2153 255.826C15.587 255.592 16.019 255.474 16.5114 255.474C17.0039 255.474 17.4347 255.592 17.804 255.826C18.1757 256.06 18.4646 256.389 18.6705 256.813C18.8789 257.237 18.983 257.733 18.983 258.301C18.983 258.865 18.8789 259.357 18.6705 259.778C18.4646 260.2 18.1757 260.528 17.804 260.762C17.4347 260.996 17.0039 261.114 16.5114 261.114ZM16.5114 260.361C16.8855 260.361 17.1933 260.265 17.4347 260.073C17.6762 259.881 17.8549 259.629 17.9709 259.317C18.087 259.004 18.145 258.666 18.145 258.301C18.145 257.937 18.087 257.597 17.9709 257.282C17.8549 256.967 17.6762 256.713 17.4347 256.518C17.1933 256.324 16.8855 256.227 16.5114 256.227C16.1374 256.227 15.8296 256.324 15.5881 256.518C15.3467 256.713 15.1679 256.967 15.0519 257.282C14.9359 257.597 14.8779 257.937 14.8779 258.301C14.8779 258.666 14.9359 259.004 15.0519 259.317C15.1679 259.629 15.3467 259.881 15.5881 260.073C15.8296 260.265 16.1374 260.361 16.5114 260.361ZM20.9904 259.764L23.6182 255.545H24.5841V261H23.7461V256.781L21.1324 261H20.1523V255.545H20.9904V259.764ZM25.6682 259.608H26.5631C26.582 259.854 26.6933 260.041 26.8969 260.169C27.1029 260.297 27.3704 260.361 27.6995 260.361C28.0356 260.361 28.3233 260.292 28.5624 260.155C28.8015 260.015 28.921 259.79 28.921 259.48C28.921 259.298 28.8761 259.139 28.7861 259.004C28.6961 258.867 28.5695 258.76 28.4061 258.685C28.2428 258.609 28.0498 258.571 27.8273 258.571H26.8898V257.818H27.8273C28.1611 257.818 28.4073 257.742 28.5659 257.591C28.7269 257.439 28.8074 257.25 28.8074 257.023C28.8074 256.779 28.721 256.584 28.5482 256.437C28.3754 256.288 28.1303 256.213 27.8131 256.213C27.4935 256.213 27.2272 256.285 27.0141 256.43C26.801 256.572 26.6886 256.755 26.6767 256.98H25.796C25.8055 256.687 25.8955 256.427 26.0659 256.202C26.2364 255.975 26.4684 255.798 26.762 255.67C27.0555 255.54 27.3917 255.474 27.7705 255.474C28.154 255.474 28.4866 255.542 28.7683 255.677C29.0524 255.809 29.2714 255.991 29.4253 256.22C29.5816 256.447 29.6597 256.705 29.6597 256.994C29.6597 257.302 29.5733 257.551 29.4005 257.74C29.2276 257.929 29.011 258.064 28.7506 258.145V258.202C28.9566 258.216 29.1353 258.282 29.2868 258.401C29.4407 258.517 29.5603 258.669 29.6455 258.859C29.7307 259.046 29.7733 259.253 29.7733 259.48C29.7733 259.812 29.6845 260.1 29.507 260.347C29.3294 260.59 29.0856 260.78 28.7755 260.915C28.4653 261.047 28.1114 261.114 27.7137 261.114C27.3278 261.114 26.9821 261.051 26.6767 260.925C26.3713 260.798 26.1287 260.621 25.9487 260.396C25.7712 260.169 25.6777 259.906 25.6682 259.608ZM30.8405 261V255.545H33.0706C33.6578 255.545 34.1241 255.678 34.4698 255.943C34.8154 256.208 34.9883 256.559 34.9883 256.994C34.9883 257.326 34.89 257.583 34.6935 257.765C34.497 257.945 34.2449 258.067 33.9371 258.131C34.1383 258.159 34.3337 258.23 34.5231 258.344C34.7148 258.457 34.8734 258.614 34.9989 258.812C35.1244 259.009 35.1871 259.25 35.1871 259.537C35.1871 259.816 35.1161 260.066 34.974 260.286C34.832 260.506 34.6284 260.68 34.3633 260.808C34.0981 260.936 33.7809 261 33.4115 261H30.8405ZM31.636 260.233H33.4115C33.7004 260.233 33.9265 260.164 34.0898 260.027C34.2532 259.89 34.3348 259.703 34.3348 259.466C34.3348 259.184 34.2532 258.963 34.0898 258.802C33.9265 258.638 33.7004 258.557 33.4115 258.557H31.636V260.233ZM31.636 257.832H33.0706C33.2955 257.832 33.4885 257.802 33.6495 257.74C33.8105 257.676 33.9336 257.586 34.0188 257.47C34.1064 257.352 34.1502 257.212 34.1502 257.051C34.1502 256.821 34.0543 256.642 33.8625 256.511C33.6708 256.379 33.4068 256.312 33.0706 256.312H31.636V257.832ZM38.5617 261.114C38.0692 261.114 37.6372 260.996 37.2655 260.762C36.8962 260.528 36.6074 260.2 36.399 259.778C36.1931 259.357 36.0901 258.865 36.0901 258.301C36.0901 257.733 36.1931 257.237 36.399 256.813C36.6074 256.389 36.8962 256.06 37.2655 255.826C37.6372 255.592 38.0692 255.474 38.5617 255.474C39.0541 255.474 39.485 255.592 39.8543 255.826C40.226 256.06 40.5148 256.389 40.7208 256.813C40.9291 257.237 41.0333 257.733 41.0333 258.301C41.0333 258.865 40.9291 259.357 40.7208 259.778C40.5148 260.2 40.226 260.528 39.8543 260.762C39.485 260.996 39.0541 261.114 38.5617 261.114ZM38.5617 260.361C38.9357 260.361 39.2435 260.265 39.485 260.073C39.7264 259.881 39.9052 259.629 40.0212 259.317C40.1372 259.004 40.1952 258.666 40.1952 258.301C40.1952 257.937 40.1372 257.597 40.0212 257.282C39.9052 256.967 39.7264 256.713 39.485 256.518C39.2435 256.324 38.9357 256.227 38.5617 256.227C38.1876 256.227 37.8798 256.324 37.6384 256.518C37.3969 256.713 37.2182 256.967 37.1021 257.282C36.9861 257.597 36.9281 257.937 36.9281 258.301C36.9281 258.666 36.9861 259.004 37.1021 259.317C37.2182 259.629 37.3969 259.881 37.6384 260.073C37.8798 260.265 38.1876 260.361 38.5617 260.361ZM41.6202 262.562V260.219H42.0747C42.186 260.103 42.2819 259.977 42.3624 259.842C42.4428 259.707 42.5127 259.548 42.5719 259.363C42.6334 259.176 42.6855 258.949 42.7281 258.681C42.7707 258.411 42.8086 258.086 42.8418 257.705L43.0264 255.545H46.4923V260.219H47.3304V262.562H46.4923V261H42.4582V262.562H41.6202ZM43.0264 260.219H45.6543V256.327H43.8077L43.6656 257.705C43.6064 258.275 43.533 258.773 43.4455 259.2C43.3579 259.626 43.2182 259.965 43.0264 260.219ZM49.1709 259.764L51.7987 255.545H52.7646V261H51.9265V256.781L49.3129 261H48.3328V255.545H49.1709V259.764ZM53.4474 256.327V255.545H57.8792V256.327H56.0894V261H55.2514V256.327H53.4474ZM60.9954 261.114C60.4699 261.114 60.0165 260.998 59.6353 260.766C59.2566 260.531 58.9642 260.205 58.7582 259.786C58.5546 259.364 58.4528 258.874 58.4528 258.315C58.4528 257.757 58.5546 257.264 58.7582 256.838C58.9642 256.41 59.2506 256.076 59.6176 255.837C59.9869 255.595 60.4178 255.474 60.9102 255.474C61.1943 255.474 61.4748 255.522 61.7518 255.616C62.0288 255.711 62.2809 255.865 62.5082 256.078C62.7355 256.289 62.9166 256.568 63.0515 256.916C63.1865 257.264 63.2539 257.693 63.2539 258.202V258.557H59.0494V257.832H62.4017C62.4017 257.525 62.3401 257.25 62.217 257.009C62.0963 256.767 61.9235 256.576 61.6986 256.437C61.476 256.297 61.2132 256.227 60.9102 256.227C60.5764 256.227 60.2876 256.31 60.0437 256.476C59.8022 256.639 59.6164 256.852 59.4862 257.115C59.356 257.378 59.2909 257.66 59.2909 257.96V258.443C59.2909 258.855 59.3619 259.204 59.5039 259.491C59.6484 259.775 59.8484 259.991 60.1041 260.141C60.3598 260.287 60.6569 260.361 60.9954 260.361C61.2156 260.361 61.4145 260.33 61.592 260.268C61.7719 260.205 61.927 260.11 62.0572 259.984C62.1874 259.857 62.288 259.698 62.3591 259.509L63.1687 259.736C63.0835 260.01 62.9403 260.252 62.739 260.46C62.5378 260.666 62.2892 260.827 61.9933 260.943C61.6974 261.057 61.3647 261.114 60.9954 261.114ZM63.9359 261V260.219H64.1347C64.2981 260.219 64.4342 260.187 64.5431 260.123C64.652 260.057 64.7396 259.942 64.8059 259.778C64.8745 259.613 64.9266 259.383 64.9621 259.089C65 258.794 65.0272 258.417 65.0438 257.96L65.1432 255.545H68.7796V261H67.9415V256.327H65.9387L65.8535 258.273C65.8345 258.72 65.7943 259.114 65.7327 259.455C65.6735 259.794 65.5824 260.078 65.4593 260.308C65.3385 260.537 65.1776 260.71 64.9763 260.826C64.7751 260.942 64.523 261 64.2199 261H63.9359ZM70.9317 257.52H72.4942C73.1334 257.52 73.6223 257.682 73.9608 258.006C74.2993 258.331 74.4686 258.741 74.4686 259.239C74.4686 259.565 74.3929 259.862 74.2413 260.13C74.0898 260.395 73.8673 260.607 73.5737 260.766C73.2802 260.922 72.9203 261 72.4942 261H70.2072V255.545H71.0453V260.219H72.4942C72.8256 260.219 73.0979 260.131 73.3109 259.956C73.524 259.781 73.6305 259.556 73.6305 259.281C73.6305 258.992 73.524 258.757 73.3109 258.575C73.0979 258.392 72.8256 258.301 72.4942 258.301H70.9317V257.52ZM79.2849 257.889V258.67H76.2736V257.889H79.2849ZM76.4724 255.545V261H75.6344V255.545H76.4724ZM79.9241 255.545V261H79.0861V255.545H79.9241ZM83.5606 261.114C83.0682 261.114 82.6361 260.996 82.2644 260.762C81.8951 260.528 81.6063 260.2 81.3979 259.778C81.192 259.357 81.089 258.865 81.089 258.301C81.089 257.733 81.192 257.237 81.3979 256.813C81.6063 256.389 81.8951 256.06 82.2644 255.826C82.6361 255.592 83.0682 255.474 83.5606 255.474C84.053 255.474 84.4839 255.592 84.8532 255.826C85.2249 256.06 85.5137 256.389 85.7197 256.813C85.928 257.237 86.0322 257.733 86.0322 258.301C86.0322 258.865 85.928 259.357 85.7197 259.778C85.5137 260.2 85.2249 260.528 84.8532 260.762C84.4839 260.996 84.053 261.114 83.5606 261.114ZM83.5606 260.361C83.9346 260.361 84.2424 260.265 84.4839 260.073C84.7253 259.881 84.9041 259.629 85.0201 259.317C85.1361 259.004 85.1941 258.666 85.1941 258.301C85.1941 257.937 85.1361 257.597 85.0201 257.282C84.9041 256.967 84.7253 256.713 84.4839 256.518C84.2424 256.324 83.9346 256.227 83.5606 256.227C83.1865 256.227 82.8788 256.324 82.6373 256.518C82.3958 256.713 82.2171 256.967 82.1011 257.282C81.9851 257.597 81.9271 257.937 81.9271 258.301C81.9271 258.666 81.9851 259.004 82.1011 259.317C82.2171 259.629 82.3958 259.881 82.6373 260.073C82.8788 260.265 83.1865 260.361 83.5606 260.361ZM89.4174 261.114C88.906 261.114 88.4657 260.993 88.0963 260.751C87.727 260.51 87.4429 260.177 87.2441 259.754C87.0452 259.33 86.9458 258.846 86.9458 258.301C86.9458 257.747 87.0476 257.258 87.2512 256.835C87.4571 256.408 87.7436 256.076 88.1106 255.837C88.4799 255.595 88.9107 255.474 89.4032 255.474C89.7867 255.474 90.1323 255.545 90.4401 255.688C90.7479 255.83 91 256.028 91.1965 256.284C91.393 256.54 91.5149 256.838 91.5623 257.179H90.7242C90.6603 256.93 90.5182 256.71 90.2981 256.518C90.0803 256.324 89.7867 256.227 89.4174 256.227C89.0907 256.227 88.8042 256.312 88.558 256.483C88.3142 256.651 88.1236 256.889 87.9863 257.197C87.8513 257.502 87.7838 257.861 87.7838 258.273C87.7838 258.694 87.8501 259.061 87.9827 259.374C88.1177 259.686 88.3071 259.929 88.5509 260.102C88.7971 260.274 89.0859 260.361 89.4174 260.361C89.6352 260.361 89.8329 260.323 90.0104 260.247C90.188 260.171 90.3383 260.062 90.4614 259.92C90.5845 259.778 90.6721 259.608 90.7242 259.409H91.5623C91.5149 259.731 91.3977 260.021 91.2107 260.279C91.026 260.535 90.781 260.738 90.4756 260.89C90.1726 261.039 89.8198 261.114 89.4174 261.114ZM92.2477 256.327V255.545H96.6795V256.327H94.8898V261H94.0517V256.327H92.2477ZM98.5164 257.52H100.079C100.718 257.52 101.207 257.682 101.546 258.006C101.884 258.331 102.053 258.741 102.053 259.239C102.053 259.565 101.978 259.862 101.826 260.13C101.675 260.395 101.452 260.607 101.158 260.766C100.865 260.922 100.505 261 100.079 261H97.792V255.545H98.6301V260.219H100.079C100.41 260.219 100.683 260.131 100.896 259.956C101.109 259.781 101.215 259.556 101.215 259.281C101.215 258.992 101.109 258.757 100.896 258.575C100.683 258.392 100.41 258.301 100.079 258.301H98.5164V257.52Z" fill="white"/>
<path d="M5.04846 117.727H6.09959L8.57118 123.764H8.65641L11.128 117.727H12.1791V125H11.3553V119.474H11.2843L9.01152 125H8.21607L5.94334 119.474H5.87232V125H5.04846V117.727ZM15.3264 125.128C14.9808 125.128 14.6671 125.063 14.3854 124.933C14.1036 124.8 13.8799 124.609 13.7142 124.361C13.5485 124.11 13.4656 123.807 13.4656 123.452C13.4656 123.139 13.5272 122.886 13.6503 122.692C13.7734 122.495 13.9379 122.341 14.1439 122.23C14.3499 122.119 14.5771 122.036 14.8257 121.982C15.0767 121.925 15.3288 121.88 15.5821 121.847C15.9135 121.804 16.1822 121.772 16.3882 121.751C16.5965 121.727 16.7481 121.688 16.8428 121.634C16.9398 121.579 16.9883 121.484 16.9883 121.349V121.321C16.9883 120.971 16.8925 120.698 16.7007 120.504C16.5113 120.31 16.2237 120.213 15.8378 120.213C15.4377 120.213 15.124 120.301 14.8967 120.476C14.6695 120.651 14.5097 120.838 14.4173 121.037L13.6219 120.753C13.7639 120.421 13.9533 120.163 14.1901 119.979C14.4292 119.792 14.6896 119.661 14.9713 119.588C15.2554 119.512 15.5348 119.474 15.8094 119.474C15.9846 119.474 16.1858 119.496 16.4131 119.538C16.6427 119.579 16.8641 119.663 17.0771 119.79C17.2926 119.918 17.4713 120.111 17.6133 120.369C17.7554 120.627 17.8264 120.973 17.8264 121.406V125H16.9883V124.261H16.9457C16.8889 124.38 16.7942 124.506 16.6616 124.641C16.5291 124.776 16.3527 124.891 16.1325 124.986C15.9124 125.08 15.6437 125.128 15.3264 125.128ZM15.4543 124.375C15.7857 124.375 16.0651 124.31 16.2923 124.18C16.522 124.049 16.6948 123.881 16.8108 123.675C16.9292 123.469 16.9883 123.253 16.9883 123.026V122.259C16.9528 122.301 16.8747 122.34 16.754 122.376C16.6356 122.409 16.4983 122.438 16.342 122.464C16.1882 122.488 16.0378 122.509 15.891 122.528C15.7466 122.545 15.6294 122.559 15.5395 122.571C15.3217 122.599 15.1181 122.646 14.9287 122.71C14.7417 122.771 14.5901 122.865 14.4741 122.99C14.3605 123.113 14.3037 123.281 14.3037 123.494C14.3037 123.786 14.4114 124.006 14.6268 124.155C14.8446 124.302 15.1205 124.375 15.4543 124.375ZM21.462 125.114C20.9506 125.114 20.5103 124.993 20.141 124.751C19.7716 124.51 19.4875 124.177 19.2887 123.754C19.0898 123.33 18.9904 122.846 18.9904 122.301C18.9904 121.747 19.0922 121.258 19.2958 120.835C19.5018 120.408 19.7882 120.076 20.1552 119.837C20.5245 119.595 20.9553 119.474 21.4478 119.474C21.8313 119.474 22.1769 119.545 22.4847 119.688C22.7925 119.83 23.0446 120.028 23.2411 120.284C23.4376 120.54 23.5595 120.838 23.6069 121.179H22.7688C22.7049 120.93 22.5628 120.71 22.3427 120.518C22.1249 120.324 21.8313 120.227 21.462 120.227C21.1353 120.227 20.8488 120.312 20.6026 120.483C20.3588 120.651 20.1682 120.889 20.0309 121.197C19.8959 121.502 19.8285 121.861 19.8285 122.273C19.8285 122.694 19.8947 123.061 20.0273 123.374C20.1623 123.686 20.3517 123.929 20.5955 124.102C20.8417 124.274 21.1305 124.361 21.462 124.361C21.6798 124.361 21.8775 124.323 22.055 124.247C22.2326 124.171 22.3829 124.062 22.506 123.92C22.6291 123.778 22.7167 123.608 22.7688 123.409H23.6069C23.5595 123.731 23.4423 124.021 23.2553 124.279C23.0706 124.535 22.8256 124.738 22.5202 124.89C22.2172 125.039 21.8644 125.114 21.462 125.114ZM24.722 119.545H25.5601V124.219H27.6197V119.545H28.4578V124.219H30.5175V119.545H31.3555V125H24.722V119.545ZM32.0339 120.327V119.545H36.4657V120.327H34.6759V125H33.8379V120.327H32.0339ZM38.9001 125.128C38.5544 125.128 38.2408 125.063 37.959 124.933C37.6773 124.8 37.4536 124.609 37.2879 124.361C37.1222 124.11 37.0393 123.807 37.0393 123.452C37.0393 123.139 37.1008 122.886 37.224 122.692C37.3471 122.495 37.5116 122.341 37.7176 122.23C37.9235 122.119 38.1508 122.036 38.3994 121.982C38.6503 121.925 38.9025 121.88 39.1558 121.847C39.4872 121.804 39.7559 121.772 39.9619 121.751C40.1702 121.727 40.3217 121.688 40.4164 121.634C40.5135 121.579 40.562 121.484 40.562 121.349V121.321C40.562 120.971 40.4661 120.698 40.2744 120.504C40.085 120.31 39.7973 120.213 39.4115 120.213C39.0114 120.213 38.6977 120.301 38.4704 120.476C38.2431 120.651 38.0833 120.838 37.991 121.037L37.1955 120.753C37.3376 120.421 37.527 120.163 37.7637 119.979C38.0028 119.792 38.2633 119.661 38.545 119.588C38.8291 119.512 39.1084 119.474 39.383 119.474C39.5582 119.474 39.7595 119.496 39.9867 119.538C40.2164 119.579 40.4377 119.663 40.6508 119.79C40.8662 119.918 41.045 120.111 41.187 120.369C41.3291 120.627 41.4001 120.973 41.4001 121.406V125H40.562V124.261H40.5194C40.4626 124.38 40.3679 124.506 40.2353 124.641C40.1027 124.776 39.9264 124.891 39.7062 124.986C39.486 125.08 39.2173 125.128 38.9001 125.128ZM39.0279 124.375C39.3594 124.375 39.6387 124.31 39.866 124.18C40.0956 124.049 40.2685 123.881 40.3845 123.675C40.5028 123.469 40.562 123.253 40.562 123.026V122.259C40.5265 122.301 40.4484 122.34 40.3276 122.376C40.2093 122.409 40.072 122.438 39.9157 122.464C39.7618 122.488 39.6115 122.509 39.4647 122.528C39.3203 122.545 39.2031 122.559 39.1132 122.571C38.8954 122.599 38.6918 122.646 38.5024 122.71C38.3153 122.771 38.1638 122.865 38.0478 122.99C37.9342 123.113 37.8774 123.281 37.8774 123.494C37.8774 123.786 37.9851 124.006 38.2005 124.155C38.4183 124.302 38.6941 124.375 39.0279 124.375ZM46.868 117.5L47.2942 118.011C47.1285 118.172 46.9367 118.285 46.7189 118.349C46.5011 118.413 46.2549 118.452 45.9803 118.466C45.7056 118.48 45.4002 118.494 45.0641 118.509C44.6853 118.523 44.3716 118.615 44.123 118.786C43.8744 118.956 43.6827 119.202 43.5477 119.524C43.4128 119.846 43.3264 120.241 43.2885 120.71H43.3595C43.5442 120.369 43.7999 120.118 44.1266 119.957C44.4533 119.796 44.8036 119.716 45.1777 119.716C45.6038 119.716 45.9874 119.815 46.3283 120.014C46.6692 120.213 46.9391 120.508 47.1379 120.898C47.3368 121.289 47.4362 121.771 47.4362 122.344C47.4362 122.914 47.3344 123.407 47.1308 123.821C46.9296 124.235 46.6467 124.555 46.2821 124.78C45.9199 125.002 45.4949 125.114 45.0072 125.114C44.5196 125.114 44.0922 124.999 43.7253 124.769C43.3583 124.537 43.0731 124.194 42.8695 123.739C42.6659 123.282 42.5641 122.718 42.5641 122.045V121.463C42.5641 120.249 42.77 119.328 43.182 118.7C43.5963 118.073 44.2189 117.749 45.0499 117.727C45.3434 117.718 45.605 117.715 45.8347 117.72C46.0643 117.725 46.2643 117.714 46.4348 117.688C46.6053 117.662 46.7497 117.599 46.868 117.5ZM45.0072 124.361C45.3363 124.361 45.6192 124.278 45.856 124.112C46.0951 123.946 46.2785 123.713 46.4064 123.413C46.5342 123.11 46.5982 122.753 46.5982 122.344C46.5982 121.946 46.533 121.607 46.4028 121.328C46.275 121.049 46.0915 120.836 45.8524 120.689C45.6133 120.542 45.3268 120.469 44.993 120.469C44.7492 120.469 44.5302 120.51 44.3361 120.593C44.1419 120.676 43.9762 120.798 43.8389 120.959C43.7016 121.12 43.5951 121.316 43.5193 121.548C43.4459 121.78 43.4069 122.045 43.4021 122.344C43.4021 122.955 43.5454 123.443 43.8318 123.81C44.1183 124.177 44.5101 124.361 45.0072 124.361ZM49.4462 123.764L52.0741 119.545H53.04V125H52.2019V120.781L49.5883 125H48.6082V119.545H49.4462V123.764ZM54.465 127.045V119.545H55.2746V120.412H55.3741C55.4356 120.317 55.5208 120.196 55.6297 120.05C55.741 119.901 55.8996 119.768 56.1056 119.652C56.3139 119.534 56.5957 119.474 56.9508 119.474C57.4101 119.474 57.8149 119.589 58.1653 119.819C58.5156 120.049 58.7891 120.374 58.9856 120.795C59.1821 121.217 59.2803 121.714 59.2803 122.287C59.2803 122.865 59.1821 123.365 58.9856 123.789C58.7891 124.21 58.5168 124.537 58.1688 124.769C57.8208 124.999 57.4195 125.114 56.965 125.114C56.6146 125.114 56.3341 125.056 56.1234 124.94C55.9127 124.821 55.7505 124.687 55.6368 124.538C55.5232 124.387 55.4356 124.261 55.3741 124.162H55.303V127.045H54.465ZM55.2888 122.273C55.2888 122.685 55.3492 123.048 55.4699 123.363C55.5907 123.675 55.7671 123.92 55.9991 124.098C56.2311 124.273 56.5152 124.361 56.8513 124.361C57.2017 124.361 57.4941 124.268 57.7285 124.084C57.9652 123.897 58.1428 123.646 58.2611 123.331C58.3819 123.014 58.4422 122.661 58.4422 122.273C58.4422 121.889 58.3831 121.544 58.2647 121.236C58.1487 120.926 57.9723 120.681 57.7356 120.501C57.5012 120.318 57.2065 120.227 56.8513 120.227C56.5104 120.227 56.224 120.314 55.992 120.487C55.76 120.657 55.5848 120.896 55.4664 121.204C55.348 121.509 55.2888 121.866 55.2888 122.273ZM60.7932 127.045C60.6511 127.045 60.5245 127.034 60.4132 127.01C60.3019 126.989 60.225 126.967 60.1824 126.946L60.3955 126.207C60.5991 126.259 60.779 126.278 60.9352 126.264C61.0915 126.25 61.23 126.18 61.3507 126.055C61.4738 125.932 61.5863 125.732 61.6881 125.455L61.8443 125.028L59.8273 119.545H60.7364L62.242 123.892H62.2989L63.8045 119.545H64.7136L62.3983 125.795C62.2941 126.077 62.1651 126.31 62.0112 126.495C61.8573 126.682 61.6786 126.821 61.475 126.911C61.2738 127 61.0465 127.045 60.7932 127.045ZM67.8014 125.114C67.2759 125.114 66.8225 124.998 66.4414 124.766C66.0626 124.531 65.7702 124.205 65.5642 123.786C65.3606 123.364 65.2588 122.874 65.2588 122.315C65.2588 121.757 65.3606 121.264 65.5642 120.838C65.7702 120.41 66.0566 120.076 66.4236 119.837C66.7929 119.595 67.2238 119.474 67.7162 119.474C68.0003 119.474 68.2808 119.522 68.5578 119.616C68.8348 119.711 69.087 119.865 69.3142 120.078C69.5415 120.289 69.7226 120.568 69.8575 120.916C69.9925 121.264 70.06 121.693 70.06 122.202V122.557H65.8554V121.832H69.2077C69.2077 121.525 69.1461 121.25 69.023 121.009C68.9023 120.767 68.7295 120.576 68.5046 120.437C68.282 120.297 68.0192 120.227 67.7162 120.227C67.3824 120.227 67.0936 120.31 66.8497 120.476C66.6083 120.639 66.4224 120.852 66.2922 121.115C66.162 121.378 66.0969 121.66 66.0969 121.96V122.443C66.0969 122.855 66.1679 123.204 66.31 123.491C66.4544 123.775 66.6544 123.991 66.9101 124.141C67.1658 124.287 67.4629 124.361 67.8014 124.361C68.0216 124.361 68.2205 124.33 68.398 124.268C68.578 124.205 68.733 124.11 68.8632 123.984C68.9934 123.857 69.0941 123.698 69.1651 123.509L69.9747 123.736C69.8895 124.01 69.7463 124.252 69.545 124.46C69.3438 124.666 69.0952 124.827 68.7993 124.943C68.5034 125.057 68.1708 125.114 67.8014 125.114ZM74.2078 123.864L76.1112 119.545H76.9066L74.5487 125H73.8669L71.5515 119.545H72.3328L74.2078 123.864ZM72.0629 119.545V125H71.2248V119.545H72.0629ZM76.3527 125V119.545H77.1907V125H76.3527ZM80.8307 125.114C80.3383 125.114 79.9063 124.996 79.5346 124.762C79.1652 124.528 78.8764 124.2 78.6681 123.778C78.4621 123.357 78.3591 122.865 78.3591 122.301C78.3591 121.733 78.4621 121.237 78.6681 120.813C78.8764 120.389 79.1652 120.06 79.5346 119.826C79.9063 119.592 80.3383 119.474 80.8307 119.474C81.3232 119.474 81.754 119.592 82.1233 119.826C82.495 120.06 82.7839 120.389 82.9898 120.813C83.1982 121.237 83.3023 121.733 83.3023 122.301C83.3023 122.865 83.1982 123.357 82.9898 123.778C82.7839 124.2 82.495 124.528 82.1233 124.762C81.754 124.996 81.3232 125.114 80.8307 125.114ZM80.8307 124.361C81.2048 124.361 81.5126 124.265 81.754 124.073C81.9955 123.881 82.1742 123.629 82.2903 123.317C82.4063 123.004 82.4643 122.666 82.4643 122.301C82.4643 121.937 82.4063 121.597 82.2903 121.282C82.1742 120.967 81.9955 120.713 81.754 120.518C81.5126 120.324 81.2048 120.227 80.8307 120.227C80.4567 120.227 80.1489 120.324 79.9074 120.518C79.666 120.713 79.4872 120.967 79.3712 121.282C79.2552 121.597 79.1972 121.937 79.1972 122.301C79.1972 122.666 79.2552 123.004 79.3712 123.317C79.4872 123.629 79.666 123.881 79.9074 124.073C80.1489 124.265 80.4567 124.361 80.8307 124.361ZM86.6875 125.114C86.1762 125.114 85.7358 124.993 85.3665 124.751C84.9972 124.51 84.7131 124.177 84.5142 123.754C84.3154 123.33 84.2159 122.846 84.2159 122.301C84.2159 121.747 84.3177 121.258 84.5213 120.835C84.7273 120.408 85.0138 120.076 85.3807 119.837C85.75 119.595 86.1809 119.474 86.6733 119.474C87.0568 119.474 87.4025 119.545 87.7103 119.688C88.018 119.83 88.2702 120.028 88.4666 120.284C88.6631 120.54 88.7851 120.838 88.8324 121.179H87.9943C87.9304 120.93 87.7884 120.71 87.5682 120.518C87.3504 120.324 87.0568 120.227 86.6875 120.227C86.3608 120.227 86.0744 120.312 85.8282 120.483C85.5843 120.651 85.3937 120.889 85.2564 121.197C85.1215 121.502 85.054 121.861 85.054 122.273C85.054 122.694 85.1203 123.061 85.2529 123.374C85.3878 123.686 85.5772 123.929 85.8211 124.102C86.0673 124.274 86.3561 124.361 86.6875 124.361C86.9053 124.361 87.103 124.323 87.2806 124.247C87.4581 124.171 87.6085 124.062 87.7316 123.92C87.8547 123.778 87.9423 123.608 87.9943 123.409H88.8324C88.7851 123.731 88.6679 124.021 88.4809 124.279C88.2962 124.535 88.0512 124.738 87.7458 124.89C87.4427 125.039 87.09 125.114 86.6875 125.114ZM89.5179 120.327V119.545H93.9497V120.327H92.1599V125H91.3218V120.327H89.5179ZM95.7866 121.52H97.3491C97.9883 121.52 98.4772 121.682 98.8157 122.006C99.1543 122.331 99.3235 122.741 99.3235 123.239C99.3235 123.565 99.2478 123.862 99.0963 124.13C98.9447 124.395 98.7222 124.607 98.4286 124.766C98.1351 124.922 97.7752 125 97.3491 125H95.0622V119.545H95.9002V124.219H97.3491C97.6805 124.219 97.9528 124.131 98.1659 123.956C98.3789 123.781 98.4855 123.556 98.4855 123.281C98.4855 122.992 98.3789 122.757 98.1659 122.575C97.9528 122.392 97.6805 122.301 97.3491 122.301H95.7866V121.52Z" fill="white"/>
<circle cx="131.19" cy="139.907" r="4.58283" fill="#070ACF"/>
<circle cx="152.577" cy="152.13" r="4.58283" fill="#CF0E07"/>
<circle cx="160.216" cy="220.872" r="4.58283" fill="#CF0E07"/>
<circle cx="215.21" cy="272.809" r="4.58283" fill="#CF0E07"/>
<circle cx="279.37" cy="225.454" r="4.58283" fill="#CF0E07"/>
<circle cx="287.009" cy="146.018" r="4.58283" fill="#CF0E07"/>
<circle cx="216.735" cy="115.468" r="4.58283" fill="#CF0E07"/>
<circle cx="138.829" cy="233.093" r="4.58283" fill="#070ACF"/>
<circle cx="215.21" cy="285.03" r="4.58283" fill="#070ACF"/>
<circle cx="299.227" cy="236.147" r="4.58283" fill="#070ACF"/>
<circle cx="306.866" cy="136.852" r="4.58283" fill="#070ACF"/>
<circle cx="216.735" cy="92.5535" r="4.58283" fill="#070ACF"/>
<path d="M97.2544 10.1619L97.155 12.7188H96.2459V11H95.7345V10.1619H97.2544ZM91.0754 11V3.72727H91.9135V10.1903H95.6635V3.72727H96.5016V11H91.0754ZM100.649 11.1136C100.123 11.1136 99.6696 10.9976 99.2884 10.7656C98.9096 10.5312 98.6173 10.2045 98.4113 9.78551C98.2077 9.36411 98.1059 8.87405 98.1059 8.31534C98.1059 7.75663 98.2077 7.2642 98.4113 6.83807C98.6173 6.40956 98.9037 6.07576 99.2707 5.83665C99.64 5.59517 100.071 5.47443 100.563 5.47443C100.847 5.47443 101.128 5.52178 101.405 5.61648C101.682 5.71117 101.934 5.86506 102.161 6.07812C102.389 6.28883 102.57 6.56818 102.705 6.91619C102.84 7.2642 102.907 7.69271 102.907 8.2017V8.55682H98.7025V7.83239H102.055C102.055 7.52462 101.993 7.25 101.87 7.00852C101.749 6.76705 101.577 6.57647 101.352 6.43679C101.129 6.29711 100.866 6.22727 100.563 6.22727C100.229 6.22727 99.9406 6.31013 99.6968 6.47585C99.4553 6.6392 99.2695 6.85227 99.1393 7.11506C99.0091 7.37784 98.944 7.65956 98.944 7.96023V8.44318C98.944 8.85511 99.015 9.20431 99.157 9.49077C99.3014 9.77486 99.5015 9.99148 99.7572 10.1406C100.013 10.2874 100.31 10.3608 100.649 10.3608C100.869 10.3608 101.068 10.33 101.245 10.2685C101.425 10.2045 101.58 10.1098 101.71 9.98438C101.841 9.85653 101.941 9.69792 102.012 9.50852L102.822 9.7358C102.737 10.0104 102.593 10.2519 102.392 10.4602C102.191 10.6662 101.942 10.8272 101.646 10.9432C101.35 11.0568 101.018 11.1136 100.649 11.1136ZM103.589 11V10.2188H103.788C103.951 10.2188 104.087 10.1868 104.196 10.1229C104.305 10.0566 104.393 9.94176 104.459 9.77841C104.528 9.61269 104.58 9.38305 104.615 9.08949C104.653 8.79356 104.68 8.41714 104.697 7.96023L104.796 5.54545H108.433V11H107.595V6.3267H105.592L105.507 8.27273C105.488 8.72017 105.447 9.11435 105.386 9.45526C105.327 9.7938 105.235 10.0779 105.112 10.3075C104.992 10.5372 104.831 10.71 104.629 10.826C104.428 10.942 104.176 11 103.873 11H103.589ZM112.147 11.1136C111.622 11.1136 111.168 10.9976 110.787 10.7656C110.408 10.5312 110.116 10.2045 109.91 9.78551C109.706 9.36411 109.605 8.87405 109.605 8.31534C109.605 7.75663 109.706 7.2642 109.91 6.83807C110.116 6.40956 110.402 6.07576 110.769 5.83665C111.139 5.59517 111.57 5.47443 112.062 5.47443C112.346 5.47443 112.627 5.52178 112.904 5.61648C113.181 5.71117 113.433 5.86506 113.66 6.07812C113.887 6.28883 114.068 6.56818 114.203 6.91619C114.338 7.2642 114.406 7.69271 114.406 8.2017V8.55682H110.201V7.83239H113.554C113.554 7.52462 113.492 7.25 113.369 7.00852C113.248 6.76705 113.075 6.57647 112.85 6.43679C112.628 6.29711 112.365 6.22727 112.062 6.22727C111.728 6.22727 111.439 6.31013 111.196 6.47585C110.954 6.6392 110.768 6.85227 110.638 7.11506C110.508 7.37784 110.443 7.65956 110.443 7.96023V8.44318C110.443 8.85511 110.514 9.20431 110.656 9.49077C110.8 9.77486 111 9.99148 111.256 10.1406C111.512 10.2874 111.809 10.3608 112.147 10.3608C112.367 10.3608 112.566 10.33 112.744 10.2685C112.924 10.2045 113.079 10.1098 113.209 9.98438C113.339 9.85653 113.44 9.69792 113.511 9.50852L114.321 9.7358C114.235 10.0104 114.092 10.2519 113.891 10.4602C113.69 10.6662 113.441 10.8272 113.145 10.9432C112.849 11.0568 112.517 11.1136 112.147 11.1136ZM115.571 11V5.54545H117.801C118.388 5.54545 118.854 5.67803 119.2 5.94318C119.546 6.20833 119.718 6.55871 119.718 6.99432C119.718 7.32576 119.62 7.58262 119.424 7.76491C119.227 7.94484 118.975 8.06676 118.667 8.13068C118.868 8.15909 119.064 8.23011 119.253 8.34375C119.445 8.45739 119.604 8.61364 119.729 8.8125C119.854 9.009 119.917 9.25047 119.917 9.53693C119.917 9.81629 119.846 10.0661 119.704 10.2862C119.562 10.5064 119.359 10.6804 119.093 10.8082C118.828 10.9361 118.511 11 118.142 11H115.571ZM116.366 10.233H118.142C118.43 10.233 118.657 10.1643 118.82 10.027C118.983 9.88968 119.065 9.70265 119.065 9.46591C119.065 9.18419 118.983 8.96283 118.82 8.80185C118.657 8.63849 118.43 8.55682 118.142 8.55682H116.366V10.233ZM116.366 7.83239H117.801C118.026 7.83239 118.219 7.80161 118.38 7.74006C118.541 7.67614 118.664 7.58617 118.749 7.47017C118.837 7.3518 118.88 7.21212 118.88 7.05114C118.88 6.8215 118.784 6.64157 118.593 6.51136C118.401 6.37879 118.137 6.3125 117.801 6.3125H116.366V7.83239ZM121.8 7.51989H123.363C124.002 7.51989 124.491 7.68205 124.829 8.00639C125.168 8.33073 125.337 8.74148 125.337 9.23864C125.337 9.56534 125.261 9.86245 125.11 10.13C124.958 10.3951 124.736 10.607 124.442 10.7656C124.149 10.9219 123.789 11 123.363 11H121.076V5.54545H121.914V10.2188H123.363C123.694 10.2188 123.967 10.1312 124.18 9.95597C124.393 9.78078 124.499 9.55587 124.499 9.28125C124.499 8.99242 124.393 8.75687 124.18 8.57457C123.967 8.39228 123.694 8.30114 123.363 8.30114H121.8V7.51989ZM126.204 11V5.54545H127.042V11H126.204ZM130.753 11.1136C130.227 11.1136 129.774 10.9976 129.393 10.7656C129.014 10.5312 128.722 10.2045 128.516 9.78551C128.312 9.36411 128.21 8.87405 128.21 8.31534C128.21 7.75663 128.312 7.2642 128.516 6.83807C128.722 6.40956 129.008 6.07576 129.375 5.83665C129.744 5.59517 130.175 5.47443 130.668 5.47443C130.952 5.47443 131.232 5.52178 131.509 5.61648C131.786 5.71117 132.038 5.86506 132.266 6.07812C132.493 6.28883 132.674 6.56818 132.809 6.91619C132.944 7.2642 133.011 7.69271 133.011 8.2017V8.55682H128.807V7.83239H132.159C132.159 7.52462 132.098 7.25 131.974 7.00852C131.854 6.76705 131.681 6.57647 131.456 6.43679C131.233 6.29711 130.971 6.22727 130.668 6.22727C130.334 6.22727 130.045 6.31013 129.801 6.47585C129.56 6.6392 129.374 6.85227 129.244 7.11506C129.113 7.37784 129.048 7.65956 129.048 7.96023V8.44318C129.048 8.85511 129.119 9.20431 129.261 9.49077C129.406 9.77486 129.606 9.99148 129.861 10.1406C130.117 10.2874 130.414 10.3608 130.753 10.3608C130.973 10.3608 131.172 10.33 131.349 10.2685C131.529 10.2045 131.684 10.1098 131.815 9.98438C131.945 9.85653 132.045 9.69792 132.116 9.50852L132.926 9.7358C132.841 10.0104 132.698 10.2519 132.496 10.4602C132.295 10.6662 132.047 10.8272 131.751 10.9432C131.455 11.0568 131.122 11.1136 130.753 11.1136ZM136.879 11V5.54545H141.168V11H140.33V6.3267H137.717V11H136.879ZM144.805 11.1136C144.312 11.1136 143.88 10.9964 143.509 10.7621C143.139 10.5277 142.851 10.1998 142.642 9.77841C142.436 9.35701 142.333 8.86458 142.333 8.30114C142.333 7.73295 142.436 7.23698 142.642 6.81321C142.851 6.38944 143.139 6.06037 143.509 5.82599C143.88 5.59162 144.312 5.47443 144.805 5.47443C145.297 5.47443 145.728 5.59162 146.098 5.82599C146.469 6.06037 146.758 6.38944 146.964 6.81321C147.172 7.23698 147.276 7.73295 147.276 8.30114C147.276 8.86458 147.172 9.35701 146.964 9.77841C146.758 10.1998 146.469 10.5277 146.098 10.7621C145.728 10.9964 145.297 11.1136 144.805 11.1136ZM144.805 10.3608C145.179 10.3608 145.487 10.2649 145.728 10.0732C145.97 9.88139 146.148 9.62926 146.264 9.31676C146.38 9.00426 146.438 8.66572 146.438 8.30114C146.438 7.93655 146.38 7.59683 146.264 7.28196C146.148 6.96709 145.97 6.71259 145.728 6.51847C145.487 6.32434 145.179 6.22727 144.805 6.22727C144.431 6.22727 144.123 6.32434 143.882 6.51847C143.64 6.71259 143.461 6.96709 143.345 7.28196C143.229 7.59683 143.171 7.93655 143.171 8.30114C143.171 8.66572 143.229 9.00426 143.345 9.31676C143.461 9.62926 143.64 9.88139 143.882 10.0732C144.123 10.2649 144.431 10.3608 144.805 10.3608ZM148.446 11V5.54545H149.284V7.91761H149.838L151.798 5.54545H152.878L150.676 8.1733L152.906 11H151.826L150.037 8.69886H149.284V11H148.446ZM155.312 11.1278C154.966 11.1278 154.653 11.0627 154.371 10.9325C154.089 10.8 153.866 10.6094 153.7 10.3608C153.534 10.1098 153.451 9.80682 153.451 9.4517C153.451 9.1392 153.513 8.88589 153.636 8.69176C153.759 8.49527 153.924 8.34138 154.129 8.23011C154.335 8.11884 154.563 8.03598 154.811 7.98153C155.062 7.92472 155.314 7.87973 155.568 7.84659C155.899 7.80398 156.168 7.77202 156.374 7.75071C156.582 7.72704 156.734 7.68797 156.828 7.63352C156.925 7.57907 156.974 7.48437 156.974 7.34943V7.32102C156.974 6.97064 156.878 6.69839 156.686 6.50426C156.497 6.31013 156.209 6.21307 155.823 6.21307C155.423 6.21307 155.11 6.30066 154.882 6.47585C154.655 6.65104 154.495 6.83807 154.403 7.03693L153.607 6.75284C153.75 6.4214 153.939 6.16335 154.176 5.97869C154.415 5.79167 154.675 5.66146 154.957 5.58807C155.241 5.51231 155.52 5.47443 155.795 5.47443C155.97 5.47443 156.171 5.49574 156.399 5.53835C156.628 5.5786 156.85 5.66264 157.063 5.79048C157.278 5.91832 157.457 6.11127 157.599 6.36932C157.741 6.62737 157.812 6.97301 157.812 7.40625V11H156.974V10.2614H156.931C156.875 10.3797 156.78 10.5064 156.647 10.6413C156.515 10.7763 156.338 10.8911 156.118 10.9858C155.898 11.0805 155.629 11.1278 155.312 11.1278ZM155.44 10.375C155.771 10.375 156.051 10.3099 156.278 10.1797C156.508 10.0495 156.68 9.88139 156.796 9.67543C156.915 9.46946 156.974 9.25284 156.974 9.02557V8.25852C156.938 8.30114 156.86 8.3402 156.74 8.37571C156.621 8.40885 156.484 8.43845 156.328 8.46449C156.174 8.48816 156.023 8.50947 155.877 8.52841C155.732 8.54498 155.615 8.55919 155.525 8.57102C155.307 8.59943 155.104 8.6456 154.914 8.70952C154.727 8.77107 154.576 8.86458 154.46 8.99006C154.346 9.11316 154.289 9.28125 154.289 9.49432C154.289 9.78551 154.397 10.0057 154.612 10.1548C154.83 10.3016 155.106 10.375 155.44 10.375ZM158.891 9.60795H159.786C159.805 9.85417 159.916 10.0412 160.119 10.169C160.325 10.2969 160.593 10.3608 160.922 10.3608C161.258 10.3608 161.546 10.2921 161.785 10.1548C162.024 10.0152 162.144 9.79025 162.144 9.48011C162.144 9.29782 162.099 9.1392 162.009 9.00426C161.919 8.86695 161.792 8.76042 161.629 8.68466C161.465 8.6089 161.272 8.57102 161.05 8.57102H160.112V7.81818H161.05C161.384 7.81818 161.63 7.74242 161.788 7.59091C161.949 7.43939 162.03 7.25 162.03 7.02273C162.03 6.77888 161.944 6.58357 161.771 6.43679C161.598 6.28764 161.353 6.21307 161.036 6.21307C160.716 6.21307 160.45 6.28527 160.237 6.42969C160.024 6.57173 159.911 6.75521 159.899 6.98011H159.019C159.028 6.68655 159.118 6.42732 159.288 6.20241C159.459 5.97514 159.691 5.79759 159.985 5.66974C160.278 5.53954 160.614 5.47443 160.993 5.47443C161.377 5.47443 161.709 5.5419 161.991 5.67685C162.275 5.80942 162.494 5.99053 162.648 6.22017C162.804 6.44744 162.882 6.70549 162.882 6.99432C162.882 7.30208 162.796 7.55066 162.623 7.74006C162.45 7.92945 162.234 8.06439 161.973 8.14489V8.2017C162.179 8.21591 162.358 8.2822 162.509 8.40057C162.663 8.51657 162.783 8.66927 162.868 8.85866C162.953 9.04569 162.996 9.25284 162.996 9.48011C162.996 9.81155 162.907 10.1004 162.73 10.3466C162.552 10.5904 162.308 10.7798 161.998 10.9148C161.688 11.0473 161.334 11.1136 160.936 11.1136C160.55 11.1136 160.205 11.0509 159.899 10.9254C159.594 10.7976 159.351 10.6212 159.171 10.3963C158.994 10.169 158.9 9.90625 158.891 9.60795ZM165.668 11.1278C165.323 11.1278 165.009 11.0627 164.727 10.9325C164.445 10.8 164.222 10.6094 164.056 10.3608C163.89 10.1098 163.807 9.80682 163.807 9.4517C163.807 9.1392 163.869 8.88589 163.992 8.69176C164.115 8.49527 164.28 8.34138 164.486 8.23011C164.692 8.11884 164.919 8.03598 165.167 7.98153C165.418 7.92472 165.671 7.87973 165.924 7.84659C166.255 7.80398 166.524 7.77202 166.73 7.75071C166.938 7.72704 167.09 7.68797 167.185 7.63352C167.282 7.57907 167.33 7.48437 167.33 7.34943V7.32102C167.33 6.97064 167.234 6.69839 167.042 6.50426C166.853 6.31013 166.565 6.21307 166.18 6.21307C165.779 6.21307 165.466 6.30066 165.238 6.47585C165.011 6.65104 164.851 6.83807 164.759 7.03693L163.964 6.75284C164.106 6.4214 164.295 6.16335 164.532 5.97869C164.771 5.79167 165.031 5.66146 165.313 5.58807C165.597 5.51231 165.877 5.47443 166.151 5.47443C166.326 5.47443 166.528 5.49574 166.755 5.53835C166.984 5.5786 167.206 5.66264 167.419 5.79048C167.634 5.91832 167.813 6.11127 167.955 6.36932C168.097 6.62737 168.168 6.97301 168.168 7.40625V11H167.33V10.2614H167.287C167.231 10.3797 167.136 10.5064 167.003 10.6413C166.871 10.7763 166.694 10.8911 166.474 10.9858C166.254 11.0805 165.985 11.1278 165.668 11.1278ZM165.796 10.375C166.127 10.375 166.407 10.3099 166.634 10.1797C166.864 10.0495 167.037 9.88139 167.153 9.67543C167.271 9.46946 167.33 9.25284 167.33 9.02557V8.25852C167.295 8.30114 167.216 8.3402 167.096 8.37571C166.977 8.40885 166.84 8.43845 166.684 8.46449C166.53 8.48816 166.38 8.50947 166.233 8.52841C166.088 8.54498 165.971 8.55919 165.881 8.57102C165.663 8.59943 165.46 8.6456 165.27 8.70952C165.083 8.77107 164.932 8.86458 164.816 8.99006C164.702 9.11316 164.645 9.28125 164.645 9.49432C164.645 9.78551 164.753 10.0057 164.969 10.1548C165.186 10.3016 165.462 10.375 165.796 10.375ZM168.846 6.3267V5.54545H173.277V6.3267H171.488V11H170.65V6.3267H168.846ZM176.394 11.1136C175.868 11.1136 175.415 10.9976 175.034 10.7656C174.655 10.5312 174.362 10.2045 174.156 9.78551C173.953 9.36411 173.851 8.87405 173.851 8.31534C173.851 7.75663 173.953 7.2642 174.156 6.83807C174.362 6.40956 174.649 6.07576 175.016 5.83665C175.385 5.59517 175.816 5.47443 176.308 5.47443C176.593 5.47443 176.873 5.52178 177.15 5.61648C177.427 5.71117 177.679 5.86506 177.906 6.07812C178.134 6.28883 178.315 6.56818 178.45 6.91619C178.585 7.2642 178.652 7.69271 178.652 8.2017V8.55682H174.448V7.83239H177.8C177.8 7.52462 177.738 7.25 177.615 7.00852C177.495 6.76705 177.322 6.57647 177.097 6.43679C176.874 6.29711 176.611 6.22727 176.308 6.22727C175.975 6.22727 175.686 6.31013 175.442 6.47585C175.2 6.6392 175.015 6.85227 174.884 7.11506C174.754 7.37784 174.689 7.65956 174.689 7.96023V8.44318C174.689 8.85511 174.76 9.20431 174.902 9.49077C175.047 9.77486 175.247 9.99148 175.502 10.1406C175.758 10.2874 176.055 10.3608 176.394 10.3608C176.614 10.3608 176.813 10.33 176.99 10.2685C177.17 10.2045 177.325 10.1098 177.455 9.98438C177.586 9.85653 177.686 9.69792 177.757 9.50852L178.567 9.7358C178.482 10.0104 178.339 10.2519 178.137 10.4602C177.936 10.6662 177.687 10.8272 177.392 10.9432C177.096 11.0568 176.763 11.1136 176.394 11.1136ZM179.334 11V10.2188H179.533C179.696 10.2188 179.832 10.1868 179.941 10.1229C180.05 10.0566 180.138 9.94176 180.204 9.77841C180.273 9.61269 180.325 9.38305 180.36 9.08949C180.398 8.79356 180.425 8.41714 180.442 7.96023L180.541 5.54545H184.178V11H183.34V6.3267H181.337L181.252 8.27273C181.233 8.72017 181.193 9.11435 181.131 9.45526C181.072 9.7938 180.981 10.0779 180.858 10.3075C180.737 10.5372 180.576 10.71 180.375 10.826C180.173 10.942 179.921 11 179.618 11H179.334ZM186.444 9.7642L189.071 5.54545H190.037V11H189.199V6.78125L186.586 11H185.605V5.54545H186.444V9.7642Z" fill="white"/>
<rect x="50.5" y="2.5" width="29" height="10" rx="1.5" fill="#070ACF" fill-opacity="0.2" stroke="#070ACF"/>
<path d="M281.754 4.50852V3.72727H287.208V4.50852H284.922V11H284.041V4.50852H281.754ZM289.84 11.1136C289.314 11.1136 288.861 10.9976 288.48 10.7656C288.101 10.5312 287.809 10.2045 287.603 9.78551C287.399 9.36411 287.297 8.87405 287.297 8.31534C287.297 7.75663 287.399 7.2642 287.603 6.83807C287.809 6.40956 288.095 6.07576 288.462 5.83665C288.831 5.59517 289.262 5.47443 289.755 5.47443C290.039 5.47443 290.319 5.52178 290.596 5.61648C290.873 5.71117 291.125 5.86506 291.353 6.07812C291.58 6.28883 291.761 6.56818 291.896 6.91619C292.031 7.2642 292.098 7.69271 292.098 8.2017V8.55682H287.894V7.83239H291.246C291.246 7.52462 291.185 7.25 291.062 7.00852C290.941 6.76705 290.768 6.57647 290.543 6.43679C290.321 6.29711 290.058 6.22727 289.755 6.22727C289.421 6.22727 289.132 6.31013 288.888 6.47585C288.647 6.6392 288.461 6.85227 288.331 7.11506C288.2 7.37784 288.135 7.65956 288.135 7.96023V8.44318C288.135 8.85511 288.206 9.20431 288.348 9.49077C288.493 9.77486 288.693 9.99148 288.949 10.1406C289.204 10.2874 289.501 10.3608 289.84 10.3608C290.06 10.3608 290.259 10.33 290.437 10.2685C290.616 10.2045 290.771 10.1098 290.902 9.98438C291.032 9.85653 291.133 9.69792 291.204 9.50852L292.013 9.7358C291.928 10.0104 291.785 10.2519 291.584 10.4602C291.382 10.6662 291.134 10.8272 290.838 10.9432C290.542 11.0568 290.209 11.1136 289.84 11.1136ZM293.263 11V5.54545H294.101V7.91761H294.655L296.616 5.54545H297.695L295.493 8.1733L297.724 11H296.644L294.854 8.69886H294.101V11H293.263ZM299.064 13.0455C298.922 13.0455 298.795 13.0336 298.684 13.0099C298.573 12.9886 298.496 12.9673 298.453 12.946L298.666 12.2074C298.87 12.2595 299.05 12.2784 299.206 12.2642C299.362 12.25 299.501 12.1802 299.622 12.0547C299.745 11.9316 299.857 11.7315 299.959 11.4545L300.115 11.0284L298.098 5.54545H299.007L300.513 9.89205H300.57L302.076 5.54545H302.985L300.669 11.7955C300.565 12.0772 300.436 12.3104 300.282 12.495C300.128 12.6821 299.95 12.8205 299.746 12.9105C299.545 13.0005 299.317 13.0455 299.064 13.0455ZM311.424 10.2188L311.325 12.5625H310.458V11H309.748V10.2188H311.424ZM303.981 5.54545H304.819V10.2188H306.879V5.54545H307.717V10.2188H309.776V5.54545H310.614V11H303.981V5.54545ZM313.371 9.7642L315.999 5.54545H316.965V11H316.127V6.78125L313.513 11H312.533V5.54545H313.371V9.7642ZM320.677 11.1136C320.151 11.1136 319.698 10.9976 319.317 10.7656C318.938 10.5312 318.645 10.2045 318.439 9.78551C318.236 9.36411 318.134 8.87405 318.134 8.31534C318.134 7.75663 318.236 7.2642 318.439 6.83807C318.645 6.40956 318.932 6.07576 319.299 5.83665C319.668 5.59517 320.099 5.47443 320.591 5.47443C320.875 5.47443 321.156 5.52178 321.433 5.61648C321.71 5.71117 321.962 5.86506 322.189 6.07812C322.417 6.28883 322.598 6.56818 322.733 6.91619C322.868 7.2642 322.935 7.69271 322.935 8.2017V8.55682H318.731V7.83239H322.083C322.083 7.52462 322.021 7.25 321.898 7.00852C321.777 6.76705 321.605 6.57647 321.38 6.43679C321.157 6.29711 320.894 6.22727 320.591 6.22727C320.258 6.22727 319.969 6.31013 319.725 6.47585C319.483 6.6392 319.298 6.85227 319.167 7.11506C319.037 7.37784 318.972 7.65956 318.972 7.96023V8.44318C318.972 8.85511 319.043 9.20431 319.185 9.49077C319.33 9.77486 319.53 9.99148 319.785 10.1406C320.041 10.2874 320.338 10.3608 320.677 10.3608C320.897 10.3608 321.096 10.33 321.273 10.2685C321.453 10.2045 321.608 10.1098 321.738 9.98438C321.869 9.85653 321.969 9.69792 322.04 9.50852L322.85 9.7358C322.765 10.0104 322.621 10.2519 322.42 10.4602C322.219 10.6662 321.97 10.8272 321.675 10.9432C321.379 11.0568 321.046 11.1136 320.677 11.1136ZM326.803 11V5.54545H331.092V11H330.254V6.3267H327.641V11H326.803ZM334.729 11.1136C334.236 11.1136 333.804 10.9964 333.433 10.7621C333.063 10.5277 332.774 10.1998 332.566 9.77841C332.36 9.35701 332.257 8.86458 332.257 8.30114C332.257 7.73295 332.36 7.23698 332.566 6.81321C332.774 6.38944 333.063 6.06037 333.433 5.82599C333.804 5.59162 334.236 5.47443 334.729 5.47443C335.221 5.47443 335.652 5.59162 336.021 5.82599C336.393 6.06037 336.682 6.38944 336.888 6.81321C337.096 7.23698 337.2 7.73295 337.2 8.30114C337.2 8.86458 337.096 9.35701 336.888 9.77841C336.682 10.1998 336.393 10.5277 336.021 10.7621C335.652 10.9964 335.221 11.1136 334.729 11.1136ZM334.729 10.3608C335.103 10.3608 335.411 10.2649 335.652 10.0732C335.894 9.88139 336.072 9.62926 336.188 9.31676C336.304 9.00426 336.362 8.66572 336.362 8.30114C336.362 7.93655 336.304 7.59683 336.188 7.28196C336.072 6.96709 335.894 6.71259 335.652 6.51847C335.411 6.32434 335.103 6.22727 334.729 6.22727C334.355 6.22727 334.047 6.32434 333.805 6.51847C333.564 6.71259 333.385 6.96709 333.269 7.28196C333.153 7.59683 333.095 7.93655 333.095 8.30114C333.095 8.66572 333.153 9.00426 333.269 9.31676C333.385 9.62926 333.564 9.88139 333.805 10.0732C334.047 10.2649 334.355 10.3608 334.729 10.3608ZM338.37 11V5.54545H339.208V7.91761H339.762L341.722 5.54545H342.801L340.6 8.1733L342.83 11H341.75L339.961 8.69886H339.208V11H338.37ZM345.236 11.1278C344.89 11.1278 344.577 11.0627 344.295 10.9325C344.013 10.8 343.789 10.6094 343.624 10.3608C343.458 10.1098 343.375 9.80682 343.375 9.4517C343.375 9.1392 343.437 8.88589 343.56 8.69176C343.683 8.49527 343.847 8.34138 344.053 8.23011C344.259 8.11884 344.487 8.03598 344.735 7.98153C344.986 7.92472 345.238 7.87973 345.492 7.84659C345.823 7.80398 346.092 7.77202 346.298 7.75071C346.506 7.72704 346.657 7.68797 346.752 7.63352C346.849 7.57907 346.898 7.48437 346.898 7.34943V7.32102C346.898 6.97064 346.802 6.69839 346.61 6.50426C346.421 6.31013 346.133 6.21307 345.747 6.21307C345.347 6.21307 345.033 6.30066 344.806 6.47585C344.579 6.65104 344.419 6.83807 344.327 7.03693L343.531 6.75284C343.673 6.4214 343.863 6.16335 344.099 5.97869C344.339 5.79167 344.599 5.66146 344.881 5.58807C345.165 5.51231 345.444 5.47443 345.719 5.47443C345.894 5.47443 346.095 5.49574 346.322 5.53835C346.552 5.5786 346.773 5.66264 346.987 5.79048C347.202 5.91832 347.381 6.11127 347.523 6.36932C347.665 6.62737 347.736 6.97301 347.736 7.40625V11H346.898V10.2614H346.855C346.798 10.3797 346.704 10.5064 346.571 10.6413C346.438 10.7763 346.262 10.8911 346.042 10.9858C345.822 11.0805 345.553 11.1278 345.236 11.1278ZM345.364 10.375C345.695 10.375 345.974 10.3099 346.202 10.1797C346.431 10.0495 346.604 9.88139 346.72 9.67543C346.839 9.46946 346.898 9.25284 346.898 9.02557V8.25852C346.862 8.30114 346.784 8.3402 346.663 8.37571C346.545 8.40885 346.408 8.43845 346.251 8.46449C346.098 8.48816 345.947 8.50947 345.8 8.52841C345.656 8.54498 345.539 8.55919 345.449 8.57102C345.231 8.59943 345.027 8.6456 344.838 8.70952C344.651 8.77107 344.5 8.86458 344.384 8.99006C344.27 9.11316 344.213 9.28125 344.213 9.49432C344.213 9.78551 344.321 10.0057 344.536 10.1548C344.754 10.3016 345.03 10.375 345.364 10.375ZM348.815 9.60795H349.709C349.728 9.85417 349.84 10.0412 350.043 10.169C350.249 10.2969 350.517 10.3608 350.846 10.3608C351.182 10.3608 351.47 10.2921 351.709 10.1548C351.948 10.0152 352.067 9.79025 352.067 9.48011C352.067 9.29782 352.022 9.1392 351.932 9.00426C351.843 8.86695 351.716 8.76042 351.553 8.68466C351.389 8.6089 351.196 8.57102 350.974 8.57102H350.036V7.81818H350.974C351.307 7.81818 351.554 7.74242 351.712 7.59091C351.873 7.43939 351.954 7.25 351.954 7.02273C351.954 6.77888 351.867 6.58357 351.695 6.43679C351.522 6.28764 351.277 6.21307 350.959 6.21307C350.64 6.21307 350.374 6.28527 350.16 6.42969C349.947 6.57173 349.835 6.75521 349.823 6.98011H348.942C348.952 6.68655 349.042 6.42732 349.212 6.20241C349.383 5.97514 349.615 5.79759 349.908 5.66974C350.202 5.53954 350.538 5.47443 350.917 5.47443C351.3 5.47443 351.633 5.5419 351.915 5.67685C352.199 5.80942 352.418 5.99053 352.572 6.22017C352.728 6.44744 352.806 6.70549 352.806 6.99432C352.806 7.30208 352.72 7.55066 352.547 7.74006C352.374 7.92945 352.157 8.06439 351.897 8.14489V8.2017C352.103 8.21591 352.282 8.2822 352.433 8.40057C352.587 8.51657 352.707 8.66927 352.792 8.85866C352.877 9.04569 352.92 9.25284 352.92 9.48011C352.92 9.81155 352.831 10.1004 352.653 10.3466C352.476 10.5904 352.232 10.7798 351.922 10.9148C351.612 11.0473 351.258 11.1136 350.86 11.1136C350.474 11.1136 350.128 11.0509 349.823 10.9254C349.518 10.7976 349.275 10.6212 349.095 10.3963C348.918 10.169 348.824 9.90625 348.815 9.60795ZM355.592 11.1278C355.246 11.1278 354.933 11.0627 354.651 10.9325C354.369 10.8 354.146 10.6094 353.98 10.3608C353.814 10.1098 353.731 9.80682 353.731 9.4517C353.731 9.1392 353.793 8.88589 353.916 8.69176C354.039 8.49527 354.204 8.34138 354.409 8.23011C354.615 8.11884 354.843 8.03598 355.091 7.98153C355.342 7.92472 355.594 7.87973 355.848 7.84659C356.179 7.80398 356.448 7.77202 356.654 7.75071C356.862 7.72704 357.014 7.68797 357.108 7.63352C357.205 7.57907 357.254 7.48437 357.254 7.34943V7.32102C357.254 6.97064 357.158 6.69839 356.966 6.50426C356.777 6.31013 356.489 6.21307 356.103 6.21307C355.703 6.21307 355.39 6.30066 355.162 6.47585C354.935 6.65104 354.775 6.83807 354.683 7.03693L353.887 6.75284C354.03 6.4214 354.219 6.16335 354.456 5.97869C354.695 5.79167 354.955 5.66146 355.237 5.58807C355.521 5.51231 355.8 5.47443 356.075 5.47443C356.25 5.47443 356.451 5.49574 356.679 5.53835C356.908 5.5786 357.13 5.66264 357.343 5.79048C357.558 5.91832 357.737 6.11127 357.879 6.36932C358.021 6.62737 358.092 6.97301 358.092 7.40625V11H357.254V10.2614H357.211C357.155 10.3797 357.06 10.5064 356.927 10.6413C356.795 10.7763 356.618 10.8911 356.398 10.9858C356.178 11.0805 355.909 11.1278 355.592 11.1278ZM355.72 10.375C356.051 10.375 356.331 10.3099 356.558 10.1797C356.788 10.0495 356.96 9.88139 357.076 9.67543C357.195 9.46946 357.254 9.25284 357.254 9.02557V8.25852C357.218 8.30114 357.14 8.3402 357.02 8.37571C356.901 8.40885 356.764 8.43845 356.608 8.46449C356.454 8.48816 356.303 8.50947 356.157 8.52841C356.012 8.54498 355.895 8.55919 355.805 8.57102C355.587 8.59943 355.384 8.6456 355.194 8.70952C355.007 8.77107 354.856 8.86458 354.74 8.99006C354.626 9.11316 354.569 9.28125 354.569 9.49432C354.569 9.78551 354.677 10.0057 354.892 10.1548C355.11 10.3016 355.386 10.375 355.72 10.375ZM358.769 6.3267V5.54545H363.201V6.3267H361.412V11H360.573V6.3267H358.769ZM366.317 11.1136C365.792 11.1136 365.339 10.9976 364.957 10.7656C364.579 10.5312 364.286 10.2045 364.08 9.78551C363.877 9.36411 363.775 8.87405 363.775 8.31534C363.775 7.75663 363.877 7.2642 364.08 6.83807C364.286 6.40956 364.573 6.07576 364.94 5.83665C365.309 5.59517 365.74 5.47443 366.232 5.47443C366.516 5.47443 366.797 5.52178 367.074 5.61648C367.351 5.71117 367.603 5.86506 367.83 6.07812C368.058 6.28883 368.239 6.56818 368.374 6.91619C368.509 7.2642 368.576 7.69271 368.576 8.2017V8.55682H364.371V7.83239H367.724C367.724 7.52462 367.662 7.25 367.539 7.00852C367.418 6.76705 367.246 6.57647 367.021 6.43679C366.798 6.29711 366.535 6.22727 366.232 6.22727C365.898 6.22727 365.61 6.31013 365.366 6.47585C365.124 6.6392 364.938 6.85227 364.808 7.11506C364.678 7.37784 364.613 7.65956 364.613 7.96023V8.44318C364.613 8.85511 364.684 9.20431 364.826 9.49077C364.97 9.77486 365.17 9.99148 365.426 10.1406C365.682 10.2874 365.979 10.3608 366.317 10.3608C366.538 10.3608 366.737 10.33 366.914 10.2685C367.094 10.2045 367.249 10.1098 367.379 9.98438C367.509 9.85653 367.61 9.69792 367.681 9.50852L368.491 9.7358C368.406 10.0104 368.262 10.2519 368.061 10.4602C367.86 10.6662 367.611 10.8272 367.315 10.9432C367.019 11.0568 366.687 11.1136 366.317 11.1136ZM369.258 11V10.2188H369.457C369.62 10.2188 369.756 10.1868 369.865 10.1229C369.974 10.0566 370.062 9.94176 370.128 9.77841C370.197 9.61269 370.249 9.38305 370.284 9.08949C370.322 8.79356 370.349 8.41714 370.366 7.96023L370.465 5.54545H374.102V11H373.264V6.3267H371.261L371.176 8.27273C371.157 8.72017 371.116 9.11435 371.055 9.45526C370.996 9.7938 370.904 10.0779 370.781 10.3075C370.661 10.5372 370.5 10.71 370.298 10.826C370.097 10.942 369.845 11 369.542 11H369.258ZM376.367 9.7642L378.995 5.54545H379.961V11H379.123V6.78125L376.509 11H375.529V5.54545H376.367V9.7642Z" fill="white"/>
<rect x="241.5" y="2.5" width="29" height="10" rx="1.5" fill="#CF0E07" fill-opacity="0.2" stroke="#CF0E07"/>
</svg>
