<svg width="1104" height="524" viewBox="0 0 1104 524" fill="none" xmlns="http://www.w3.org/2000/svg">
<path d="M67.3575 0.146447C67.1622 -0.0488155 66.8456 -0.0488155 66.6504 0.146447L63.4684 3.32843C63.2731 3.52369 63.2731 3.84027 63.4684 4.03553C63.6636 4.2308 63.9802 4.2308 64.1755 4.03553L67.0039 1.20711L69.8323 4.03553C70.0276 4.2308 70.3442 4.2308 70.5394 4.03553C70.7347 3.84027 70.7347 3.52369 70.5394 3.32843L67.3575 0.146447ZM67.0039 460.5H66.5039V461H67.0039V460.5ZM1103.36 460.854C1103.55 460.658 1103.55 460.342 1103.36 460.146L1100.18 456.964C1099.98 456.769 1099.66 456.769 1099.47 456.964C1099.27 457.16 1099.27 457.476 1099.47 457.672L1102.3 460.5L1099.47 463.328C1099.27 463.524 1099.27 463.84 1099.47 464.036C1099.66 464.231 1099.98 464.231 1100.18 464.036L1103.36 460.854ZM67.0039 0.5H66.5039V460.5H67.0039H67.5039V0.5H67.0039ZM67.0039 460.5V461H1103V460.5V460H67.0039V460.5Z" fill="white"/>
<path d="M0.00390625 523.467C241.345 525.564 795.822 429.106 1083 26.5" stroke="white"/>
<path d="M923.515 496.5V488.864H924.688V492.185H925.463L928.208 488.864H929.719L926.637 492.543L929.759 496.5H928.248L925.742 493.278H924.688V496.5H923.515ZM933.542 496.659C932.853 496.659 932.248 496.495 931.727 496.167C931.21 495.839 930.806 495.38 930.514 494.79C930.226 494.2 930.082 493.51 930.082 492.722C930.082 491.926 930.226 491.232 930.514 490.638C930.806 490.045 931.21 489.585 931.727 489.256C932.248 488.928 932.853 488.764 933.542 488.764C934.231 488.764 934.835 488.928 935.352 489.256C935.872 489.585 936.276 490.045 936.565 490.638C936.856 491.232 937.002 491.926 937.002 492.722C937.002 493.51 936.856 494.2 936.565 494.79C936.276 495.38 935.872 495.839 935.352 496.167C934.835 496.495 934.231 496.659 933.542 496.659ZM933.542 495.605C934.066 495.605 934.496 495.471 934.835 495.202C935.173 494.934 935.423 494.581 935.585 494.143C935.748 493.706 935.829 493.232 935.829 492.722C935.829 492.211 935.748 491.736 935.585 491.295C935.423 490.854 935.173 490.498 934.835 490.226C934.496 489.954 934.066 489.818 933.542 489.818C933.018 489.818 932.587 489.954 932.249 490.226C931.911 490.498 931.661 490.854 931.499 491.295C931.336 491.736 931.255 492.211 931.255 492.722C931.255 493.232 931.336 493.706 931.499 494.143C931.661 494.581 931.911 494.934 932.249 495.202C932.587 495.471 933.018 495.605 933.542 495.605ZM937.837 496.5V495.406H938.115C938.344 495.406 938.535 495.362 938.687 495.272C938.84 495.179 938.962 495.018 939.055 494.79C939.151 494.558 939.224 494.236 939.274 493.825C939.327 493.411 939.365 492.884 939.388 492.244L939.527 488.864H944.618V496.5H943.445V489.957H940.641L940.522 492.682C940.495 493.308 940.439 493.86 940.353 494.337C940.27 494.811 940.142 495.209 939.97 495.531C939.801 495.852 939.575 496.094 939.294 496.256C939.012 496.419 938.659 496.5 938.235 496.5H937.837ZM947.664 494.77L951.343 488.864H952.696V496.5H951.522V490.594L947.863 496.5H946.491V488.864H947.664V494.77ZM960.451 488.864V496.5H959.278V488.864H960.451ZM959.993 492.503V493.597C959.728 493.696 959.465 493.784 959.203 493.86C958.941 493.933 958.666 493.991 958.378 494.034C958.089 494.074 957.773 494.094 957.428 494.094C956.563 494.094 955.869 493.86 955.345 493.393C954.825 492.925 954.564 492.224 954.564 491.29V488.844H955.738V491.29C955.738 491.681 955.812 492.002 955.962 492.254C956.111 492.506 956.313 492.693 956.568 492.816C956.823 492.939 957.11 493 957.428 493C957.925 493 958.374 492.955 958.775 492.866C959.18 492.773 959.586 492.652 959.993 492.503ZM965.525 496.659C964.789 496.659 964.155 496.497 963.621 496.172C963.091 495.844 962.682 495.386 962.393 494.8C962.108 494.21 961.966 493.524 961.966 492.741C961.966 491.959 962.108 491.27 962.393 490.673C962.682 490.073 963.083 489.606 963.596 489.271C964.113 488.933 964.717 488.764 965.406 488.764C965.804 488.764 966.196 488.83 966.584 488.963C966.972 489.096 967.325 489.311 967.643 489.609C967.961 489.904 968.215 490.295 968.404 490.783C968.593 491.27 968.687 491.87 968.687 492.582V493.08H962.801V492.065H967.494C967.494 491.634 967.408 491.25 967.235 490.912C967.066 490.574 966.824 490.307 966.51 490.112C966.198 489.916 965.83 489.818 965.406 489.818C964.939 489.818 964.534 489.934 964.193 490.166C963.855 490.395 963.595 490.693 963.412 491.061C963.23 491.429 963.139 491.823 963.139 492.244V492.92C963.139 493.497 963.238 493.986 963.437 494.387C963.639 494.785 963.919 495.088 964.277 495.297C964.635 495.502 965.051 495.605 965.525 495.605C965.833 495.605 966.112 495.562 966.36 495.476C966.612 495.386 966.829 495.254 967.012 495.078C967.194 494.899 967.335 494.677 967.434 494.412L968.568 494.73C968.449 495.115 968.248 495.453 967.966 495.744C967.685 496.033 967.337 496.258 966.922 496.42C966.508 496.58 966.042 496.659 965.525 496.659ZM973.294 496.659C972.578 496.659 971.962 496.49 971.445 496.152C970.928 495.814 970.53 495.348 970.252 494.755C969.973 494.162 969.834 493.484 969.834 492.722C969.834 491.946 969.977 491.262 970.262 490.668C970.55 490.072 970.951 489.606 971.465 489.271C971.982 488.933 972.585 488.764 973.274 488.764C973.811 488.764 974.295 488.864 974.726 489.062C975.157 489.261 975.51 489.54 975.785 489.898C976.06 490.256 976.231 490.673 976.297 491.151H975.124C975.034 490.803 974.835 490.494 974.527 490.226C974.222 489.954 973.811 489.818 973.294 489.818C972.837 489.818 972.436 489.937 972.091 490.176C971.75 490.411 971.483 490.745 971.291 491.175C971.102 491.603 971.007 492.105 971.007 492.682C971.007 493.272 971.1 493.786 971.286 494.223C971.475 494.661 971.74 495 972.081 495.242C972.426 495.484 972.83 495.605 973.294 495.605C973.599 495.605 973.876 495.552 974.125 495.446C974.373 495.34 974.584 495.188 974.756 494.989C974.928 494.79 975.051 494.551 975.124 494.273H976.297C976.231 494.723 976.067 495.129 975.805 495.491C975.546 495.849 975.203 496.134 974.776 496.346C974.352 496.555 973.858 496.659 973.294 496.659ZM977.131 489.957V488.864H983.335V489.957H980.83V496.5H979.656V489.957H977.131ZM984.767 496.5V488.864H987.889C988.711 488.864 989.364 489.049 989.848 489.42C990.332 489.792 990.574 490.282 990.574 490.892C990.574 491.356 990.436 491.716 990.161 491.971C989.886 492.223 989.533 492.393 989.102 492.483C989.384 492.523 989.657 492.622 989.922 492.781C990.191 492.94 990.413 493.159 990.588 493.438C990.764 493.713 990.852 494.051 990.852 494.452C990.852 494.843 990.753 495.192 990.554 495.501C990.355 495.809 990.07 496.053 989.699 496.232C989.327 496.411 988.883 496.5 988.366 496.5H984.767ZM985.88 495.426H988.366C988.771 495.426 989.087 495.33 989.316 495.138C989.544 494.946 989.659 494.684 989.659 494.352C989.659 493.958 989.544 493.648 989.316 493.423C989.087 493.194 988.771 493.08 988.366 493.08H985.88V495.426ZM985.88 492.065H987.889C988.204 492.065 988.474 492.022 988.699 491.936C988.925 491.847 989.097 491.721 989.216 491.558C989.339 491.393 989.4 491.197 989.4 490.972C989.4 490.65 989.266 490.398 988.998 490.216C988.729 490.03 988.36 489.938 987.889 489.938H985.88V492.065ZM995.45 496.659C994.761 496.659 994.156 496.495 993.636 496.167C993.119 495.839 992.714 495.38 992.423 494.79C992.134 494.2 991.99 493.51 991.99 492.722C991.99 491.926 992.134 491.232 992.423 490.638C992.714 490.045 993.119 489.585 993.636 489.256C994.156 488.928 994.761 488.764 995.45 488.764C996.14 488.764 996.743 488.928 997.26 489.256C997.78 489.585 998.185 490.045 998.473 490.638C998.765 491.232 998.911 491.926 998.911 492.722C998.911 493.51 998.765 494.2 998.473 494.79C998.185 495.38 997.78 495.839 997.26 496.167C996.743 496.495 996.14 496.659 995.45 496.659ZM995.45 495.605C995.974 495.605 996.405 495.471 996.743 495.202C997.081 494.934 997.331 494.581 997.494 494.143C997.656 493.706 997.737 493.232 997.737 492.722C997.737 492.211 997.656 491.736 997.494 491.295C997.331 490.854 997.081 490.498 996.743 490.226C996.405 489.954 995.974 489.818 995.45 489.818C994.927 489.818 994.496 489.954 994.158 490.226C993.82 490.498 993.569 490.854 993.407 491.295C993.245 491.736 993.163 492.211 993.163 492.722C993.163 493.232 993.245 493.706 993.407 494.143C993.569 494.581 993.82 494.934 994.158 495.202C994.496 495.471 994.927 495.605 995.45 495.605ZM1004.08 496.5V488.864H1010.08V496.5H1008.91V489.957H1005.25V496.5H1004.08ZM1015.05 496.659C1014.36 496.659 1013.76 496.495 1013.24 496.167C1012.72 495.839 1012.31 495.38 1012.02 494.79C1011.73 494.2 1011.59 493.51 1011.59 492.722C1011.59 491.926 1011.73 491.232 1012.02 490.638C1012.31 490.045 1012.72 489.585 1013.24 489.256C1013.76 488.928 1014.36 488.764 1015.05 488.764C1015.74 488.764 1016.34 488.928 1016.86 489.256C1017.38 489.585 1017.78 490.045 1018.07 490.638C1018.36 491.232 1018.51 491.926 1018.51 492.722C1018.51 493.51 1018.36 494.2 1018.07 494.79C1017.78 495.38 1017.38 495.839 1016.86 496.167C1016.34 496.495 1015.74 496.659 1015.05 496.659ZM1015.05 495.605C1015.57 495.605 1016 495.471 1016.34 495.202C1016.68 494.934 1016.93 494.581 1017.09 494.143C1017.26 493.706 1017.34 493.232 1017.34 492.722C1017.34 492.211 1017.26 491.736 1017.09 491.295C1016.93 490.854 1016.68 490.498 1016.34 490.226C1016 489.954 1015.57 489.818 1015.05 489.818C1014.53 489.818 1014.1 489.954 1013.76 490.226C1013.42 490.498 1013.17 490.854 1013.01 491.295C1012.84 491.736 1012.76 492.211 1012.76 492.722C1012.76 493.232 1012.84 493.706 1013.01 494.143C1013.17 494.581 1013.42 494.934 1013.76 495.202C1014.1 495.471 1014.53 495.605 1015.05 495.605ZM1019.34 496.5V495.406H1019.62C1019.85 495.406 1020.04 495.362 1020.2 495.272C1020.35 495.179 1020.47 495.018 1020.56 494.79C1020.66 494.558 1020.73 494.236 1020.78 493.825C1020.83 493.411 1020.87 492.884 1020.9 492.244L1021.04 488.864H1026.13V496.5H1024.95V489.957H1022.15L1022.03 492.682C1022 493.308 1021.95 493.86 1021.86 494.337C1021.78 494.811 1021.65 495.209 1021.48 495.531C1021.31 495.852 1021.08 496.094 1020.8 496.256C1020.52 496.419 1020.17 496.5 1019.74 496.5H1019.34ZM1029.01 491.628H1031.2C1032.1 491.628 1032.78 491.855 1033.25 492.309C1033.73 492.763 1033.96 493.338 1033.96 494.034C1033.96 494.491 1033.86 494.907 1033.65 495.282C1033.43 495.653 1033.12 495.95 1032.71 496.172C1032.3 496.391 1031.8 496.5 1031.2 496.5H1028V488.864H1029.17V495.406H1031.2C1031.66 495.406 1032.05 495.284 1032.34 495.038C1032.64 494.793 1032.79 494.478 1032.79 494.094C1032.79 493.689 1032.64 493.36 1032.34 493.104C1032.05 492.849 1031.66 492.722 1031.2 492.722H1029.01V491.628ZM1034.99 494.551H1036.25C1036.27 494.896 1036.43 495.158 1036.71 495.337C1037 495.516 1037.38 495.605 1037.84 495.605C1038.31 495.605 1038.71 495.509 1039.05 495.317C1039.38 495.121 1039.55 494.806 1039.55 494.372C1039.55 494.117 1039.48 493.895 1039.36 493.706C1039.23 493.514 1039.06 493.365 1038.83 493.259C1038.6 493.152 1038.33 493.099 1038.02 493.099H1036.7V492.045H1038.02C1038.48 492.045 1038.83 491.939 1039.05 491.727C1039.28 491.515 1039.39 491.25 1039.39 490.932C1039.39 490.59 1039.27 490.317 1039.03 490.112C1038.78 489.903 1038.44 489.798 1038 489.798C1037.55 489.798 1037.18 489.899 1036.88 490.102C1036.58 490.3 1036.42 490.557 1036.41 490.872H1035.17C1035.19 490.461 1035.31 490.098 1035.55 489.783C1035.79 489.465 1036.11 489.217 1036.52 489.038C1036.94 488.855 1037.41 488.764 1037.94 488.764C1038.47 488.764 1038.94 488.859 1039.33 489.048C1039.73 489.233 1040.04 489.487 1040.25 489.808C1040.47 490.126 1040.58 490.488 1040.58 490.892C1040.58 491.323 1040.46 491.671 1040.22 491.936C1039.98 492.201 1039.67 492.39 1039.31 492.503V492.582C1039.6 492.602 1039.85 492.695 1040.06 492.861C1040.28 493.023 1040.44 493.237 1040.56 493.502C1040.68 493.764 1040.74 494.054 1040.74 494.372C1040.74 494.836 1040.62 495.241 1040.37 495.585C1040.12 495.927 1039.78 496.192 1039.34 496.381C1038.91 496.566 1038.41 496.659 1037.86 496.659C1037.32 496.659 1036.83 496.571 1036.41 496.396C1035.98 496.217 1035.64 495.97 1035.39 495.655C1035.14 495.337 1035.01 494.969 1034.99 494.551ZM1045.21 496.659C1044.52 496.659 1043.92 496.495 1043.4 496.167C1042.88 495.839 1042.48 495.38 1042.18 494.79C1041.9 494.2 1041.75 493.51 1041.75 492.722C1041.75 491.926 1041.9 491.232 1042.18 490.638C1042.48 490.045 1042.88 489.585 1043.4 489.256C1043.92 488.928 1044.52 488.764 1045.21 488.764C1045.9 488.764 1046.5 488.928 1047.02 489.256C1047.54 489.585 1047.95 490.045 1048.23 490.638C1048.53 491.232 1048.67 491.926 1048.67 492.722C1048.67 493.51 1048.53 494.2 1048.23 494.79C1047.95 495.38 1047.54 495.839 1047.02 496.167C1046.5 496.495 1045.9 496.659 1045.21 496.659ZM1045.21 495.605C1045.73 495.605 1046.17 495.471 1046.5 495.202C1046.84 494.934 1047.09 494.581 1047.25 494.143C1047.42 493.706 1047.5 493.232 1047.5 492.722C1047.5 492.211 1047.42 491.736 1047.25 491.295C1047.09 490.854 1046.84 490.498 1046.5 490.226C1046.17 489.954 1045.73 489.818 1045.21 489.818C1044.69 489.818 1044.26 489.954 1043.92 490.226C1043.58 490.498 1043.33 490.854 1043.17 491.295C1043.01 491.736 1042.92 492.211 1042.92 492.722C1042.92 493.232 1043.01 493.706 1043.17 494.143C1043.33 494.581 1043.58 494.934 1043.92 495.202C1044.26 495.471 1044.69 495.605 1045.21 495.605ZM1050.18 496.5V488.864H1053.3C1054.13 488.864 1054.78 489.049 1055.26 489.42C1055.75 489.792 1055.99 490.282 1055.99 490.892C1055.99 491.356 1055.85 491.716 1055.58 491.971C1055.3 492.223 1054.95 492.393 1054.52 492.483C1054.8 492.523 1055.07 492.622 1055.34 492.781C1055.61 492.94 1055.83 493.159 1056 493.438C1056.18 493.713 1056.27 494.051 1056.27 494.452C1056.27 494.843 1056.17 495.192 1055.97 495.501C1055.77 495.809 1055.49 496.053 1055.11 496.232C1054.74 496.411 1054.3 496.5 1053.78 496.5H1050.18ZM1051.3 495.426H1053.78C1054.19 495.426 1054.5 495.33 1054.73 495.138C1054.96 494.946 1055.07 494.684 1055.07 494.352C1055.07 493.958 1054.96 493.648 1054.73 493.423C1054.5 493.194 1054.19 493.08 1053.78 493.08H1051.3V495.426ZM1051.3 492.065H1053.3C1053.62 492.065 1053.89 492.022 1054.11 491.936C1054.34 491.847 1054.51 491.721 1054.63 491.558C1054.75 491.393 1054.82 491.197 1054.82 490.972C1054.82 490.65 1054.68 490.398 1054.41 490.216C1054.14 490.03 1053.78 489.938 1053.3 489.938H1051.3V492.065ZM1060.01 496.679C1059.53 496.679 1059.09 496.588 1058.69 496.406C1058.3 496.22 1057.99 495.953 1057.75 495.605C1057.52 495.254 1057.41 494.83 1057.41 494.332C1057.41 493.895 1057.49 493.54 1057.66 493.268C1057.84 492.993 1058.07 492.778 1058.36 492.622C1058.64 492.466 1058.96 492.35 1059.31 492.274C1059.66 492.195 1060.01 492.132 1060.37 492.085C1060.83 492.026 1061.21 491.981 1061.5 491.951C1061.79 491.918 1062 491.863 1062.13 491.787C1062.27 491.711 1062.34 491.578 1062.34 491.389V491.349C1062.34 490.859 1062.2 490.478 1061.93 490.206C1061.67 489.934 1061.27 489.798 1060.73 489.798C1060.17 489.798 1059.73 489.921 1059.41 490.166C1059.09 490.411 1058.87 490.673 1058.74 490.952L1057.62 490.554C1057.82 490.09 1058.09 489.729 1058.42 489.47C1058.75 489.208 1059.12 489.026 1059.51 488.923C1059.91 488.817 1060.3 488.764 1060.69 488.764C1060.93 488.764 1061.21 488.794 1061.53 488.854C1061.85 488.91 1062.16 489.028 1062.46 489.207C1062.76 489.386 1063.01 489.656 1063.21 490.017C1063.41 490.378 1063.51 490.862 1063.51 491.469V496.5H1062.34V495.466H1062.28C1062.2 495.632 1062.07 495.809 1061.88 495.998C1061.69 496.187 1061.45 496.348 1061.14 496.48C1060.83 496.613 1060.45 496.679 1060.01 496.679ZM1060.19 495.625C1060.65 495.625 1061.04 495.534 1061.36 495.352C1061.68 495.169 1061.93 494.934 1062.09 494.646C1062.25 494.357 1062.34 494.054 1062.34 493.736V492.662C1062.29 492.722 1062.18 492.776 1062.01 492.826C1061.84 492.872 1061.65 492.914 1061.43 492.95C1061.22 492.983 1061.01 493.013 1060.8 493.04C1060.6 493.063 1060.44 493.083 1060.31 493.099C1060 493.139 1059.72 493.204 1059.45 493.293C1059.19 493.379 1058.98 493.51 1058.82 493.686C1058.66 493.858 1058.58 494.094 1058.58 494.392C1058.58 494.8 1058.73 495.108 1059.03 495.317C1059.34 495.522 1059.72 495.625 1060.19 495.625ZM1064.33 489.957V488.864H1070.54V489.957H1068.03V496.5H1066.86V489.957H1064.33ZM1074.77 496.659C1074.04 496.659 1073.4 496.497 1072.87 496.172C1072.34 495.844 1071.93 495.386 1071.64 494.8C1071.36 494.21 1071.21 493.524 1071.21 492.741C1071.21 491.959 1071.36 491.27 1071.64 490.673C1071.93 490.073 1072.33 489.606 1072.85 489.271C1073.36 488.933 1073.97 488.764 1074.66 488.764C1075.05 488.764 1075.45 488.83 1075.83 488.963C1076.22 489.096 1076.57 489.311 1076.89 489.609C1077.21 489.904 1077.46 490.295 1077.65 490.783C1077.84 491.27 1077.94 491.87 1077.94 492.582V493.08H1072.05V492.065H1076.74C1076.74 491.634 1076.66 491.25 1076.48 490.912C1076.32 490.574 1076.07 490.307 1075.76 490.112C1075.45 489.916 1075.08 489.818 1074.66 489.818C1074.19 489.818 1073.78 489.934 1073.44 490.166C1073.1 490.395 1072.84 490.693 1072.66 491.061C1072.48 491.429 1072.39 491.823 1072.39 492.244V492.92C1072.39 493.497 1072.49 493.986 1072.69 494.387C1072.89 494.785 1073.17 495.088 1073.53 495.297C1073.88 495.502 1074.3 495.605 1074.77 495.605C1075.08 495.605 1075.36 495.562 1075.61 495.476C1075.86 495.386 1076.08 495.254 1076.26 495.078C1076.44 494.899 1076.58 494.677 1076.68 494.412L1077.82 494.73C1077.7 495.115 1077.5 495.453 1077.22 495.744C1076.93 496.033 1076.59 496.258 1076.17 496.42C1075.76 496.58 1075.29 496.659 1074.77 496.659ZM1078.77 496.5V495.406H1079.04C1079.27 495.406 1079.46 495.362 1079.62 495.272C1079.77 495.179 1079.89 495.018 1079.98 494.79C1080.08 494.558 1080.15 494.236 1080.2 493.825C1080.25 493.411 1080.29 492.884 1080.32 492.244L1080.46 488.864H1085.55V496.5H1084.37V489.957H1081.57L1081.45 492.682C1081.42 493.308 1081.37 493.86 1081.28 494.337C1081.2 494.811 1081.07 495.209 1080.9 495.531C1080.73 495.852 1080.5 496.094 1080.22 496.256C1079.94 496.419 1079.59 496.5 1079.16 496.5H1078.77ZM1090.62 496.659C1089.88 496.659 1089.25 496.497 1088.72 496.172C1088.19 495.844 1087.78 495.386 1087.49 494.8C1087.2 494.21 1087.06 493.524 1087.06 492.741C1087.06 491.959 1087.2 491.27 1087.49 490.673C1087.78 490.073 1088.18 489.606 1088.69 489.271C1089.21 488.933 1089.81 488.764 1090.5 488.764C1090.9 488.764 1091.29 488.83 1091.68 488.963C1092.07 489.096 1092.42 489.311 1092.74 489.609C1093.06 489.904 1093.31 490.295 1093.5 490.783C1093.69 491.27 1093.78 491.87 1093.78 492.582V493.08H1087.9V492.065H1092.59C1092.59 491.634 1092.5 491.25 1092.33 490.912C1092.16 490.574 1091.92 490.307 1091.61 490.112C1091.29 489.916 1090.93 489.818 1090.5 489.818C1090.03 489.818 1089.63 489.934 1089.29 490.166C1088.95 490.395 1088.69 490.693 1088.51 491.061C1088.33 491.429 1088.23 491.823 1088.23 492.244V492.92C1088.23 493.497 1088.33 493.986 1088.53 494.387C1088.73 494.785 1089.01 495.088 1089.37 495.297C1089.73 495.502 1090.15 495.605 1090.62 495.605C1090.93 495.605 1091.21 495.562 1091.46 495.476C1091.71 495.386 1091.92 495.254 1092.11 495.078C1092.29 494.899 1092.43 494.677 1092.53 494.412L1093.66 494.73C1093.54 495.115 1093.34 495.453 1093.06 495.744C1092.78 496.033 1092.43 496.258 1092.02 496.42C1091.6 496.58 1091.14 496.659 1090.62 496.659ZM1096.46 494.77L1100.14 488.864H1101.49V496.5H1100.32V490.594L1096.66 496.5H1095.29V488.864H1096.46V494.77ZM1099.36 486.318H1100.46C1100.46 486.855 1100.27 487.294 1099.9 487.636C1099.53 487.977 1099.03 488.148 1098.39 488.148C1097.76 488.148 1097.26 487.977 1096.89 487.636C1096.53 487.294 1096.34 486.855 1096.34 486.318H1097.44C1097.44 486.577 1097.51 486.804 1097.65 486.999C1097.79 487.195 1098.04 487.293 1098.39 487.293C1098.74 487.293 1098.99 487.195 1099.14 486.999C1099.29 486.804 1099.36 486.577 1099.36 486.318Z" fill="white"/>
<path d="M42.163 77.0342C42.163 77.7501 41.994 78.3666 41.6559 78.8836C41.3178 79.4007 40.8522 79.7984 40.2589 80.0768C39.6656 80.3552 38.9878 80.4944 38.2255 80.4944C37.4499 80.4944 36.7655 80.3519 36.1722 80.0669C35.5756 79.7785 35.11 79.3775 34.7752 78.8638C34.4371 78.3467 34.2681 77.7435 34.2681 77.0541C34.2681 76.5172 34.3675 76.0333 34.5664 75.6024C34.7653 75.1715 35.0437 74.8185 35.4016 74.5434C35.7596 74.2684 36.1772 74.0977 36.6545 74.0314L36.6545 75.2047C36.3065 75.2942 35.9982 75.493 35.7298 75.8013C35.458 76.1062 35.3221 76.5172 35.3221 77.0342C35.3221 77.4916 35.4414 77.8926 35.68 78.2373C35.9154 78.5787 36.2485 78.8455 36.6793 79.0378C37.1069 79.2267 37.609 79.3211 38.1857 79.3211C38.7757 79.3211 39.2894 79.2283 39.7269 79.0427C40.1644 78.8538 40.5041 78.5887 40.7461 78.2473C40.988 77.9026 41.109 77.4982 41.109 77.0342C41.109 76.7293 41.056 76.4525 40.9499 76.204C40.8439 75.9554 40.6914 75.7449 40.4925 75.5726C40.2937 75.4002 40.055 75.2776 39.7766 75.2047L39.7766 74.0314C40.2274 74.0977 40.6334 74.2617 40.9947 74.5236C41.3526 74.7821 41.6377 75.1251 41.8498 75.5527C42.0586 75.9769 42.163 76.4708 42.163 77.0342ZM40.2738 71.4229L34.3675 67.7439L34.3675 66.3916L42.0039 66.3916L42.0039 67.5649L36.0977 67.5649L42.0039 71.224L42.0039 72.5962L34.3675 72.5962L34.3675 71.4229L40.2738 71.4229ZM42.0039 65.1988L40.9102 65.1988L40.9102 64.9204C40.9102 64.6917 40.8654 64.5011 40.7759 64.3487C40.6831 64.1962 40.5224 64.0736 40.2937 63.9808C40.0617 63.8846 39.7402 63.8117 39.3292 63.762C38.9149 63.709 38.3879 63.6709 37.7482 63.6477L34.3675 63.5085L34.3675 58.4175L42.0039 58.4175L42.0039 59.5908L35.4613 59.5908L35.4613 62.3948L38.1857 62.5141C38.8121 62.5407 39.364 62.597 39.8413 62.6832C40.3152 62.766 40.7129 62.8936 41.0344 63.066C41.3559 63.235 41.5979 63.4604 41.7603 63.7421C41.9227 64.0238 42.0039 64.3768 42.0039 64.8011L42.0039 65.1988ZM42.1829 54.2977C42.1829 54.7816 42.0917 55.2207 41.9094 55.6152C41.7238 56.0096 41.457 56.3228 41.109 56.5548C40.7577 56.7868 40.3335 56.9028 39.8363 56.9028C39.3988 56.9028 39.0442 56.8166 38.7724 56.6443C38.4973 56.4719 38.2818 56.2416 38.1261 55.9532C37.9703 55.6649 37.8543 55.3467 37.7781 54.9987C37.6985 54.6474 37.6355 54.2944 37.5891 53.9397C37.5295 53.4757 37.4847 53.0995 37.4549 52.8112C37.4218 52.5195 37.3671 52.3074 37.2908 52.1748C37.2146 52.0389 37.082 51.971 36.8931 51.971L36.8533 51.971C36.3628 51.971 35.9817 52.1052 35.7099 52.3737C35.4381 52.6388 35.3022 53.0415 35.3022 53.5818C35.3022 54.1419 35.4248 54.5811 35.6701 54.8992C35.9154 55.2174 36.1772 55.4412 36.4556 55.5704L36.0579 56.684C35.5939 56.4852 35.2326 56.22 34.9741 55.8886C34.7122 55.5538 34.5299 55.1893 34.4272 54.7948C34.3211 54.3971 34.2681 54.006 34.2681 53.6215C34.2681 53.3763 34.2979 53.0946 34.3576 52.7764C34.4139 52.4549 34.5316 52.145 34.7106 51.8467C34.8896 51.5451 35.1597 51.2948 35.521 51.096C35.8822 50.8971 36.3661 50.7977 36.9727 50.7977L42.0039 50.7977L42.0039 51.971L40.9698 51.971L40.9698 52.0306C41.1355 52.1102 41.3129 52.2428 41.5018 52.4284C41.6907 52.614 41.8514 52.8609 41.984 53.1691C42.1166 53.4774 42.1829 53.8536 42.1829 54.2977ZM41.1289 54.1187C41.1289 53.6547 41.0378 53.2636 40.8555 52.9454C40.6732 52.6239 40.4379 52.382 40.1495 52.2196C39.8611 52.0538 39.5579 51.971 39.2397 51.971L38.1658 51.971C38.2255 52.0207 38.2802 52.1301 38.3299 52.2991C38.3763 52.4648 38.4177 52.6571 38.4542 52.8758C38.4873 53.0912 38.5172 53.3017 38.5437 53.5072C38.5669 53.7094 38.5868 53.8734 38.6033 53.9994C38.6431 54.3043 38.7077 54.5894 38.7972 54.8545C38.8834 55.1163 39.0143 55.3285 39.19 55.4909C39.3623 55.65 39.5977 55.7295 39.896 55.7295C40.3036 55.7295 40.6119 55.5787 40.8207 55.2771C41.0262 54.9722 41.1289 54.586 41.1289 54.1187ZM42.163 42.1764C42.163 42.8923 41.994 43.5088 41.6559 44.0258C41.3178 44.5429 40.8522 44.9406 40.2589 45.219C39.6656 45.4974 38.9878 45.6366 38.2255 45.6366C37.4499 45.6366 36.7655 45.4941 36.1722 45.2091C35.5756 44.9207 35.11 44.5197 34.7752 44.0059C34.4371 43.4889 34.2681 42.8857 34.2681 42.1963C34.2681 41.6594 34.3675 41.1755 34.5664 40.7446C34.7653 40.3137 35.0437 39.9607 35.4016 39.6856C35.7596 39.4105 36.1772 39.2398 36.6545 39.1736L36.6545 40.3469C36.3065 40.4363 35.9982 40.6352 35.7298 40.9434C35.458 41.2484 35.3221 41.6594 35.3221 42.1764C35.3221 42.6338 35.4414 43.0348 35.68 43.3795C35.9154 43.7209 36.2485 43.9877 36.6793 44.18C37.1069 44.3689 37.609 44.4633 38.1857 44.4633C38.7757 44.4633 39.2894 44.3705 39.7269 44.1849C40.1644 43.996 40.5041 43.7309 40.7461 43.3895C40.988 43.0448 41.109 42.6404 41.109 42.1764C41.109 41.8715 41.056 41.5947 40.9499 41.3461C40.8439 41.0976 40.6914 40.8871 40.4925 40.7148C40.2937 40.5424 40.055 40.4198 39.7766 40.3469L39.7766 39.1736C40.2274 39.2398 40.6334 39.4039 40.9947 39.6657C41.3526 39.9243 41.6377 40.2673 41.8498 40.6949C42.0586 41.1191 42.163 41.613 42.163 42.1764ZM42.0039 37.7384L34.3675 37.7384L34.3675 34.6162C34.3675 33.7942 34.5531 33.1413 34.9244 32.6574C35.2956 32.1735 35.7861 31.9315 36.3959 31.9315C36.86 31.9315 37.2196 32.0691 37.4748 32.3442C37.7267 32.6193 37.8974 32.9723 37.9869 33.4031C38.0266 33.1214 38.1261 32.848 38.2852 32.5828C38.4442 32.3144 38.663 32.0923 38.9414 31.9166C39.2165 31.741 39.5546 31.6531 39.9556 31.6531C40.3467 31.6531 40.6964 31.7526 41.0046 31.9514C41.3129 32.1503 41.5565 32.4353 41.7354 32.8065C41.9144 33.1778 42.0039 33.6219 42.0039 34.1389L42.0039 37.7384ZM40.93 36.6247L40.93 34.1389C40.93 33.7346 40.8339 33.418 40.6417 33.1894C40.4495 32.9607 40.1876 32.8463 39.8562 32.8463C39.4618 32.8463 39.1519 32.9607 38.9265 33.1894C38.6978 33.418 38.5834 33.7346 38.5834 34.1389L38.5834 36.6247L40.93 36.6247ZM37.5692 36.6247L37.5692 34.6162C37.5692 34.3013 37.5262 34.0312 37.44 33.8058C37.3505 33.5805 37.2245 33.4081 37.0621 33.2888C36.8964 33.1662 36.7009 33.1048 36.4755 33.1048C36.154 33.1048 35.9021 33.2391 35.7198 33.5075C35.5342 33.776 35.4414 34.1456 35.4414 34.6162L35.4414 36.6247L37.5692 36.6247ZM42.0039 25.5633L35.4414 25.5633L35.4414 27.5917C35.4414 28.0491 35.5475 28.4087 35.7596 28.6705C35.9717 28.9324 36.2634 29.0633 36.6346 29.0633C36.9992 29.0633 37.2859 28.9456 37.4947 28.7103C37.7035 28.4717 37.8079 28.1452 37.8079 27.7309L37.8079 25.265L38.9016 25.265L38.9016 27.7309C38.9016 28.2479 38.8105 28.6937 38.6282 29.0683C38.4459 29.4428 38.1857 29.7311 37.8477 29.9333C37.5063 30.1355 37.1019 30.2366 36.6346 30.2366C36.1639 30.2366 35.7596 30.1305 35.4215 29.9184C35.0834 29.7063 34.8233 29.403 34.641 29.0086C34.4587 28.6109 34.3675 28.1386 34.3675 27.5917L34.3675 24.4496L42.0039 24.4496L42.0039 25.5633ZM42.0039 30.6542L38.2056 28.4866L38.2056 27.2139L42.0039 29.3815L42.0039 30.6542ZM40.055 23.053L40.055 21.8001C40.3997 21.7736 40.6616 21.6178 40.8406 21.3328C41.0195 21.0445 41.109 20.6699 41.109 20.2092C41.109 19.7386 41.0129 19.3359 40.8207 19.0011C40.6251 18.6664 40.3102 18.499 39.8761 18.499C39.6209 18.499 39.3988 18.562 39.2099 18.6879C39.0176 18.8139 38.8685 18.9912 38.7624 19.2199C38.6564 19.4486 38.6033 19.7187 38.6033 20.0303L38.6033 21.3428L37.5494 21.3428L37.5494 20.0303C37.5494 19.5629 37.4433 19.2182 37.2312 18.9962C37.0191 18.7708 36.7539 18.6581 36.4357 18.6581C36.0943 18.6581 35.8209 18.7791 35.6154 19.021C35.4066 19.263 35.3022 19.606 35.3022 20.0501C35.3022 20.4976 35.4033 20.8705 35.6055 21.1687C35.8043 21.467 36.0612 21.6245 36.3761 21.641L36.3761 22.874C35.9651 22.8607 35.6022 22.7348 35.2873 22.4962C34.9691 22.2575 34.7205 21.9327 34.5415 21.5217C34.3593 21.1107 34.2681 20.6401 34.2681 20.1098C34.2681 19.5729 34.3626 19.1072 34.5515 18.7128C34.7371 18.3151 34.9906 18.0085 35.3121 17.793C35.6303 17.5743 35.9916 17.4649 36.3959 17.4649C36.8268 17.4649 37.1748 17.5859 37.44 17.8278C37.7051 18.0698 37.8941 18.3731 38.0067 18.7376L38.0863 18.7376C38.1062 18.4493 38.199 18.199 38.3647 17.9869C38.5271 17.7715 38.7409 17.6041 39.006 17.4848C39.2679 17.3655 39.5579 17.3058 39.8761 17.3058C40.3401 17.3058 40.7444 17.4301 41.0891 17.6787C41.4305 17.9273 41.6957 18.2687 41.8846 18.7028C42.0702 19.137 42.163 19.6325 42.163 20.1893C42.163 20.7296 42.0752 21.2135 41.8995 21.641C41.7205 22.0686 41.4736 22.4083 41.1587 22.6602C40.8406 22.9088 40.4727 23.0397 40.055 23.053ZM42.163 12.736C42.163 13.4718 42.0006 14.1065 41.6758 14.6401C41.3477 15.1705 40.8903 15.5798 40.3036 15.8681C39.7137 16.1532 39.0276 16.2957 38.2454 16.2957C37.4632 16.2957 36.7738 16.1532 36.1772 15.8681C35.5773 15.5798 35.11 15.1787 34.7752 14.665C34.4371 14.148 34.2681 13.5447 34.2681 12.8553C34.2681 12.4576 34.3344 12.0649 34.467 11.6771C34.5995 11.2893 34.815 10.9363 35.1133 10.6181C35.4083 10.2999 35.7994 10.0464 36.2866 9.85748C36.7738 9.66856 37.3737 9.5741 38.0863 9.5741L38.5834 9.5741L38.5834 15.4605L37.5692 15.4605L37.5692 10.7673C37.1384 10.7673 36.7539 10.8535 36.4158 11.0258C36.0778 11.1948 35.811 11.4368 35.6154 11.7517C35.4199 12.0632 35.3221 12.4311 35.3221 12.8553C35.3221 13.3227 35.4381 13.727 35.6701 14.0684C35.8988 14.4065 36.1971 14.6667 36.565 14.849C36.9329 15.0312 37.3273 15.1224 37.7482 15.1224L38.4244 15.1224C39.0011 15.1224 39.4899 15.023 39.891 14.8241C40.2887 14.6219 40.592 14.3419 40.8008 13.9839C41.0063 13.6259 41.109 13.21 41.109 12.736C41.109 12.4278 41.0659 12.1494 40.9798 11.9008C40.8903 11.6489 40.7577 11.4318 40.582 11.2495C40.4031 11.0672 40.181 10.9264 39.9158 10.8269L40.234 9.69341C40.6185 9.81273 40.9566 10.0133 41.2482 10.295C41.5366 10.5767 41.762 10.9247 41.9244 11.339C42.0834 11.7533 42.163 12.219 42.163 12.736ZM40.2738 6.89601L34.3675 3.21703L34.3675 1.86476L42.0039 1.86476L42.0039 3.03805L36.0977 3.03805L42.0039 6.69714L42.0039 8.0693L34.3675 8.0693L34.3675 6.89601L40.2738 6.89601ZM31.8221 3.9926L31.8221 2.89885C32.359 2.89885 32.7982 3.08445 33.1396 3.45567C33.4809 3.82688 33.6516 4.33067 33.6516 4.96703C33.6516 5.59345 33.4809 6.09227 33.1396 6.46348C32.7982 6.83138 32.359 7.01532 31.8221 7.01532L31.8221 5.92157C32.0806 5.92157 32.3076 5.85031 32.5032 5.7078C32.6987 5.56196 32.7965 5.31504 32.7965 4.96703C32.7965 4.61902 32.6987 4.37044 32.5032 4.22129C32.3076 4.06883 32.0806 3.9926 31.8221 3.9926Z" fill="white"/>
</svg>
