<svg width="40" height="40" viewBox="0 0 40 40" fill="none" xmlns="http://www.w3.org/2000/svg">
<path d="M3.33333 28.4336H20" stroke="white" stroke-width="1.5" stroke-miterlimit="10" stroke-linecap="round" stroke-linejoin="round"/>
<path d="M7.03328 22.5H16.3C19.2667 22.5 20 23.2333 20 26.1667V33.0167C20 35.95 19.2667 36.6833 16.3 36.6833H7.03328C4.06661 36.6833 3.33333 35.95 3.33333 33.0167V26.1667C3.33333 23.2333 4.06661 22.5 7.03328 22.5Z" stroke="white" stroke-width="1.5" stroke-linecap="round" stroke-linejoin="round"/>
<path d="M36.6667 25C36.6667 31.45 31.45 36.6667 25 36.6667L26.75 33.75" stroke="white" stroke-width="1.5" stroke-linecap="round" stroke-linejoin="round"/>
<path d="M3.33333 14.9997C3.33333 8.54967 8.55 3.33301 15 3.33301L13.25 6.24967" stroke="white" stroke-width="1.5" stroke-linecap="round" stroke-linejoin="round"/>
<path d="M30.8333 18.333C34.9755 18.333 38.3333 14.9751 38.3333 10.833C38.3333 6.69087 34.9755 3.33301 30.8333 3.33301C26.6912 3.33301 23.3333 6.69087 23.3333 10.833C23.3333 14.9751 26.6912 18.333 30.8333 18.333Z" stroke="white" stroke-width="1.5" stroke-linecap="round" stroke-linejoin="round"/>
</svg>
