<svg width="34" height="34" viewBox="0 0 34 34" fill="none" xmlns="http://www.w3.org/2000/svg">
<rect x="0.25" y="0.25" width="33.5" height="33.5" rx="16.75" stroke="white" stroke-opacity="0.5" stroke-width="0.5"/>
<path d="M11.2244 22.9287C11.3659 23.0667 11.5568 23.1423 11.7544 23.1387C11.9514 23.1391 12.1411 23.064 12.2844 22.9287L21.6144 13.5899V21.6487C21.6144 22.0629 21.9502 22.3987 22.3644 22.3987C22.5658 22.4042 22.7608 22.3273 22.9042 22.1857C23.0477 22.0442 23.1272 21.8502 23.1244 21.6487V11.9165C23.1504 11.8024 23.1498 11.6819 23.1198 11.5644C23.0519 11.2987 22.8444 11.0912 22.5787 11.0233C22.4612 10.9934 22.3407 10.9927 22.2266 11.0187H12.4944C12.0802 11.0187 11.7444 11.3545 11.7444 11.7687C11.7444 12.1829 12.0802 12.5187 12.4944 12.5187H20.5644L11.2244 21.8587C11.0809 21.9997 11 22.1925 11 22.3937C11 22.5949 11.0809 22.7877 11.2244 22.9287Z" fill="white"/>
</svg>
