<svg width="40" height="40" viewBox="0 0 40 40" fill="none" xmlns="http://www.w3.org/2000/svg">
<path d="M12.1 3.33301H27.8833C28.9667 3.33301 29.9333 3.36639 30.8 3.48305C35.4167 3.99972 36.6667 6.16636 36.6667 12.0997V22.633C36.6667 28.5664 35.4167 30.733 30.8 31.2497C29.9333 31.3663 28.9833 31.3997 27.8833 31.3997H12.1C11.0167 31.3997 10.05 31.3663 9.18333 31.2497C4.56666 30.733 3.31668 28.5664 3.31668 22.633V12.0997C3.31668 6.16636 4.56666 3.99972 9.18333 3.48305C10.05 3.36639 11.0167 3.33301 12.1 3.33301Z" stroke="white" stroke-width="1.5" stroke-linecap="round" stroke-linejoin="round"/>
<path d="M22.6333 13.8662H28.7667" stroke="white" stroke-width="1.5" stroke-linecap="round" stroke-linejoin="round"/>
<path d="M11.2333 23.5166H11.2667H28.7833" stroke="white" stroke-width="1.5" stroke-linecap="round" stroke-linejoin="round"/>
<path d="M11.6667 36.667H28.3333" stroke="white" stroke-width="1.5" stroke-linecap="round" stroke-linejoin="round"/>
<path d="M11.9912 13.8333H12.0061" stroke="white" stroke-width="2" stroke-linecap="round" stroke-linejoin="round"/>
<path d="M17.4908 13.8333H17.5058" stroke="white" stroke-width="2" stroke-linecap="round" stroke-linejoin="round"/>
</svg>
