<svg width="40" height="40" viewBox="0 0 40 40" fill="none" xmlns="http://www.w3.org/2000/svg">
<path d="M29.5857 11.7496C29.1857 11.683 28.769 11.6663 28.3357 11.6663H11.669C11.2024 11.6663 10.7524 11.6996 10.319 11.7663C10.5524 11.2996 10.8857 10.8664 11.2857 10.4664L16.7024 5.03301C18.9857 2.76634 22.6857 2.76634 24.969 5.03301L27.8857 7.98294C28.9524 9.03294 29.519 10.3663 29.5857 11.7496Z" stroke="white" stroke-width="1.5" stroke-linecap="round" stroke-linejoin="round"/>
<path d="M15 31.6667C15 32.9167 14.65 34.1 14.0334 35.1C12.8834 37.0333 10.7667 38.3333 8.33335 38.3333C5.90002 38.3333 3.78335 37.0333 2.63335 35.1C2.01669 34.1 1.66669 32.9167 1.66669 31.6667C1.66669 27.9833 4.65002 25 8.33335 25C12.0167 25 15 27.9833 15 31.6667Z" stroke="white" stroke-width="1.5" stroke-miterlimit="10" stroke-linecap="round" stroke-linejoin="round"/>
<path d="M10.8196 31.6328H5.85291" stroke="white" stroke-width="1.5" stroke-miterlimit="10" stroke-linecap="round" stroke-linejoin="round"/>
<path d="M8.33337 29.1992V34.1825" stroke="white" stroke-width="1.5" stroke-miterlimit="10" stroke-linecap="round" stroke-linejoin="round"/>
<path d="M36.6666 20.0003V28.3337C36.6666 33.3337 33.3333 36.667 28.3333 36.667H12.7166C13.2333 36.2337 13.6833 35.7003 14.0333 35.1003C14.65 34.1003 15 32.917 15 31.667C15 27.9837 12.0166 25.0003 8.33331 25.0003C6.33331 25.0003 4.54998 25.8836 3.33331 27.267V20.0003C3.33331 15.467 6.06665 12.3003 10.3166 11.767C10.75 11.7003 11.2 11.667 11.6666 11.667H28.3333C28.7666 11.667 29.1833 11.6836 29.5833 11.7503C33.8833 12.2503 36.6666 15.4337 36.6666 20.0003Z" stroke="white" stroke-width="1.5" stroke-linecap="round" stroke-linejoin="round"/>
<path d="M36.6666 20.833H31.6666C29.8333 20.833 28.3333 22.333 28.3333 24.1663C28.3333 25.9997 29.8333 27.4997 31.6666 27.4997H36.6666" stroke="white" stroke-width="1.5" stroke-linecap="round" stroke-linejoin="round"/>
</svg>
