<svg width="40" height="40" viewBox="0 0 40 40" fill="none" xmlns="http://www.w3.org/2000/svg">
<path d="M22.9167 16.6654C23.8371 16.6654 24.5833 15.9192 24.5833 14.9987C24.5833 14.0782 23.8371 13.332 22.9167 13.332C21.9962 13.332 21.25 14.0782 21.25 14.9987C21.25 15.9192 21.9962 16.6654 22.9167 16.6654Z" stroke="white" stroke-miterlimit="10"/>
<path d="M17.0807 16.6654C18.0012 16.6654 18.7474 15.9192 18.7474 14.9987C18.7474 14.0782 18.0012 13.332 17.0807 13.332C16.1603 13.332 15.4141 14.0782 15.4141 14.9987C15.4141 15.9192 16.1603 16.6654 17.0807 16.6654Z" stroke="white" stroke-miterlimit="10"/>
<path d="M25.8307 21.6654C26.7512 21.6654 27.4974 20.9192 27.4974 19.9987C27.4974 19.0782 26.7512 18.332 25.8307 18.332C24.9103 18.332 24.1641 19.0782 24.1641 19.9987C24.1641 20.9192 24.9103 21.6654 25.8307 21.6654Z" stroke="white" stroke-miterlimit="10"/>
<path d="M28.5859 16.25C29.2763 16.25 29.8359 15.6904 29.8359 15C29.8359 14.3096 29.2763 13.75 28.5859 13.75C27.8956 13.75 27.3359 14.3096 27.3359 15C27.3359 15.6904 27.8956 16.25 28.5859 16.25Z" stroke="white" stroke-miterlimit="10"/>
<path d="M28.5859 26.25C29.2763 26.25 29.8359 25.6904 29.8359 25C29.8359 24.3096 29.2763 23.75 28.5859 23.75C27.8956 23.75 27.3359 24.3096 27.3359 25C27.3359 25.6904 27.8956 26.25 28.5859 26.25Z" stroke="white" stroke-miterlimit="10"/>
<path d="M32.9141 21.25C33.6044 21.25 34.1641 20.6904 34.1641 20C34.1641 19.3096 33.6044 18.75 32.9141 18.75C32.2237 18.75 31.6641 19.3096 31.6641 20C31.6641 20.6904 32.2237 21.25 32.9141 21.25Z" stroke="white" stroke-miterlimit="10"/>
<path d="M11.3359 16.25C12.0263 16.25 12.5859 15.6904 12.5859 15C12.5859 14.3096 12.0263 13.75 11.3359 13.75C10.6456 13.75 10.0859 14.3096 10.0859 15C10.0859 15.6904 10.6456 16.25 11.3359 16.25Z" stroke="white" stroke-miterlimit="10"/>
<path d="M11.3359 26.25C12.0263 26.25 12.5859 25.6904 12.5859 25C12.5859 24.3096 12.0263 23.75 11.3359 23.75C10.6456 23.75 10.0859 24.3096 10.0859 25C10.0859 25.6904 10.6456 26.25 11.3359 26.25Z" stroke="white" stroke-miterlimit="10"/>
<path d="M7 21.25C7.69036 21.25 8.25 20.6904 8.25 20C8.25 19.3096 7.69036 18.75 7 18.75C6.30964 18.75 5.75 19.3096 5.75 20C5.75 20.6904 6.30964 21.25 7 21.25Z" stroke="white" stroke-miterlimit="10"/>
<path d="M26.5 9.91797C27.1904 9.91797 27.75 9.35832 27.75 8.66797C27.75 7.97761 27.1904 7.41797 26.5 7.41797C25.8096 7.41797 25.25 7.97761 25.25 8.66797C25.25 9.35832 25.8096 9.91797 26.5 9.91797Z" stroke="white" stroke-miterlimit="10"/>
<path d="M13.5 9.91797C14.1904 9.91797 14.75 9.35832 14.75 8.66797C14.75 7.97761 14.1904 7.41797 13.5 7.41797C12.8096 7.41797 12.25 7.97761 12.25 8.66797C12.25 9.35832 12.8096 9.91797 13.5 9.91797Z" stroke="white" stroke-miterlimit="10"/>
<path d="M20.0859 11.25C20.7763 11.25 21.3359 10.6904 21.3359 10C21.3359 9.30964 20.7763 8.75 20.0859 8.75C19.3956 8.75 18.8359 9.30964 18.8359 10C18.8359 10.6904 19.3956 11.25 20.0859 11.25Z" stroke="white" stroke-miterlimit="10"/>
<path d="M26.5 32.918C27.1904 32.918 27.75 32.3583 27.75 31.668C27.75 30.9776 27.1904 30.418 26.5 30.418C25.8096 30.418 25.25 30.9776 25.25 31.668C25.25 32.3583 25.8096 32.918 26.5 32.918Z" stroke="white" stroke-miterlimit="10"/>
<path d="M13.5 32.918C14.1904 32.918 14.75 32.3583 14.75 31.668C14.75 30.9776 14.1904 30.418 13.5 30.418C12.8096 30.418 12.25 30.9776 12.25 31.668C12.25 32.3583 12.8096 32.918 13.5 32.918Z" stroke="white" stroke-miterlimit="10"/>
<path d="M20.0859 31.582C20.7763 31.582 21.3359 31.0224 21.3359 30.332C21.3359 29.6417 20.7763 29.082 20.0859 29.082C19.3956 29.082 18.8359 29.6417 18.8359 30.332C18.8359 31.0224 19.3956 31.582 20.0859 31.582Z" stroke="white" stroke-miterlimit="10"/>
<path d="M14.1667 21.6654C15.0871 21.6654 15.8333 20.9192 15.8333 19.9987C15.8333 19.0782 15.0871 18.332 14.1667 18.332C13.2462 18.332 12.5 19.0782 12.5 19.9987C12.5 20.9192 13.2462 21.6654 14.1667 21.6654Z" stroke="white" stroke-miterlimit="10"/>
<path d="M17.0807 26.6654C18.0012 26.6654 18.7474 25.9192 18.7474 24.9987C18.7474 24.0782 18.0012 23.332 17.0807 23.332C16.1603 23.332 15.4141 24.0782 15.4141 24.9987C15.4141 25.9192 16.1603 26.6654 17.0807 26.6654Z" stroke="white" stroke-miterlimit="10"/>
<path d="M22.9167 26.6654C23.8371 26.6654 24.5833 25.9192 24.5833 24.9987C24.5833 24.0782 23.8371 23.332 22.9167 23.332C21.9962 23.332 21.25 24.0782 21.25 24.9987C21.25 25.9192 21.9962 26.6654 22.9167 26.6654Z" stroke="white" stroke-miterlimit="10"/>
<path d="M20 4.08203V4.08203" stroke="white" stroke-width="2" stroke-linecap="round" stroke-linejoin="round"/>
<path d="M29.1641 4.75V4.75" stroke="white" stroke-width="1.5" stroke-linecap="round" stroke-linejoin="round"/>
<path d="M29.1641 35.332V35.332" stroke="white" stroke-width="1.5" stroke-linecap="round" stroke-linejoin="round"/>
<path d="M33.3359 27.5V27.5" stroke="white" stroke-width="1.5" stroke-linecap="round" stroke-linejoin="round"/>
<path d="M33.3359 11.668V11.668" stroke="white" stroke-width="1.5" stroke-linecap="round" stroke-linejoin="round"/>
<path d="M6.66406 27.5V27.5" stroke="white" stroke-width="1.5" stroke-linecap="round" stroke-linejoin="round"/>
<path d="M6.66406 11.668V11.668" stroke="white" stroke-width="1.5" stroke-linecap="round" stroke-linejoin="round"/>
<path d="M10.8359 4.75V4.75" stroke="white" stroke-width="1.5" stroke-linecap="round" stroke-linejoin="round"/>
<path d="M10.8359 35.332V35.332" stroke="white" stroke-width="1.5" stroke-linecap="round" stroke-linejoin="round"/>
<path d="M20 35.832V35.832" stroke="white" stroke-width="2" stroke-linecap="round" stroke-linejoin="round"/>
<path d="M2.58594 20V20" stroke="white" stroke-width="2" stroke-linecap="round" stroke-linejoin="round"/>
<path d="M37.5 20V20" stroke="white" stroke-width="2" stroke-linecap="round" stroke-linejoin="round"/>
</svg>
