<svg width="40" height="40" viewBox="0 0 40 40" fill="none" xmlns="http://www.w3.org/2000/svg">
<path d="M36.6693 21.6654V14.9987C36.6693 6.66536 33.3359 3.33203 25.0026 3.33203H15.0026C6.66927 3.33203 3.33594 6.66536 3.33594 14.9987V24.9987C3.33594 33.332 6.66927 36.6654 15.0026 36.6654H21.6693" stroke="white" stroke-width="1.5" stroke-linecap="round" stroke-linejoin="round"/>
<path d="M12.2188 24.1516L16.1854 19.0016C16.7521 18.2682 17.8021 18.1349 18.5354 18.7016L21.5855 21.1016C22.3188 21.6682 23.3687 21.5349 23.9354 20.8182L27.7855 15.8516" stroke="white" stroke-width="1.5" stroke-linecap="round" stroke-linejoin="round"/>
<path d="M32.4674 26.3664L32.934 27.3164C33.1674 27.7831 33.7507 28.2164 34.2673 28.3164L34.9007 28.4164C36.8007 28.7331 37.2507 30.1331 35.884 31.5164L35.3007 32.0997C34.9173 32.4997 34.7007 33.2664 34.8174 33.7997L34.9007 34.1497C35.4173 36.4497 34.2007 37.333 32.2007 36.133L31.7673 35.8831C31.2507 35.5831 30.4173 35.5831 29.9007 35.8831L29.4673 36.133C27.4507 37.3497 26.234 36.4497 26.7673 34.1497L26.8506 33.7997C26.9673 33.2664 26.7507 32.4997 26.3674 32.0997L25.784 31.5164C24.4173 30.1331 24.8673 28.7331 26.7673 28.4164L27.4007 28.3164C27.9007 28.2331 28.5007 27.7831 28.734 27.3164L29.2007 26.3664C30.1007 24.5497 31.5674 24.5497 32.4674 26.3664Z" stroke="white" stroke-width="1.5" stroke-linecap="round" stroke-linejoin="round"/>
</svg>
