<svg width="40" height="40" viewBox="0 0 40 40" fill="none" xmlns="http://www.w3.org/2000/svg">
<path d="M6 13L20 5L34 13V18.858C34 22.7831 32.5841 26.5764 30.0124 29.5417C27.4407 32.5069 23.8856 34.4449 20 35C16.1144 34.4449 12.5593 32.5069 9.98761 29.5417C7.41588 26.5764 6.00003 22.7831 6 18.858V13Z" stroke="white" stroke-width="1.5"/>
<path d="M10 14.8667L20 9L30 14.8667V19.1625C30 22.0409 28.9886 24.8227 27.1517 26.9972C25.3148 29.1717 22.7754 30.5929 20 31C17.2246 30.5929 14.6852 29.1717 12.8483 26.9972C11.0113 24.8227 10 22.0409 10 19.1625V14.8667Z" stroke="white" stroke-width="1.5"/>
</svg>
