<svg width="51" height="51" viewBox="0 0 51 51" fill="none" xmlns="http://www.w3.org/2000/svg">
<path d="M21.187 30.9406C21.3049 31.0556 21.464 31.1186 21.6287 31.1156C21.7928 31.1159 21.9509 31.0533 22.0703 30.9406L29.8453 23.1583V29.8739C29.8453 30.2191 30.1251 30.4989 30.4703 30.4989C30.6382 30.5035 30.8007 30.4394 30.9202 30.3214C31.0397 30.2035 31.106 30.0419 31.1037 29.8739V21.7638C31.1253 21.6687 31.1248 21.5682 31.0998 21.4704C31.0433 21.2489 30.8703 21.076 30.6489 21.0195C30.551 20.9945 30.4506 20.994 30.3555 21.0156H22.2453C21.9001 21.0156 21.6203 21.2954 21.6203 21.6406C21.6203 21.9858 21.9001 22.2656 22.2453 22.2656H28.9703L21.187 30.0489C21.0674 30.1665 21 30.3271 21 30.4948C21 30.6624 21.0674 30.8231 21.187 30.9406Z" fill="white"/>
<rect x="1" y="1" width="49" height="49" rx="24.5" stroke="url(#paint0_linear_4751_3211)" stroke-width="2"/>
<defs>
<linearGradient id="paint0_linear_4751_3211" x1="25.5" y1="16.049" x2="25.5" y2="84.5245" gradientUnits="userSpaceOnUse">
<stop stop-color="white"/>
<stop offset="1" stop-color="#13001E" stop-opacity="0"/>
</linearGradient>
</defs>
</svg>
